<?xml version="1.0" standalone="no"?>
<!DOCTYPE svg PUBLIC "-//W3C//DTD SVG 1.1//EN" "http://www.w3.org/Graphics/SVG/1.1/DTD/svg11.dtd" >
<svg xmlns="http://www.w3.org/2000/svg" xmlns:xlink="http://www.w3.org/1999/xlink" version="1.1">
<metadata>
Created by FontForge 20160405 at Wed Jun 20 14:29:27 2018
 By Apache
Copyright 2016 Google Inc. All Rights Reserved.
</metadata>
<defs>
<font id="NotoSerifDisplay-Bold" horiz-adv-x="0" >
  <font-face 
    font-family="Noto Serif Disp"
    font-weight="700"
    font-stretch="normal"
    units-per-em="1000"
    panose-1="2 2 8 2 8 5 5 2 2 4"
    ascent="800"
    descent="-200"
    x-height="536"
    cap-height="714"
    bbox="-724 -389 2797 1065"
    underline-thickness="50"
    underline-position="-125"
    unicode-range="U+000D-FFFD"
  />
<missing-glyph horiz-adv-x="600" 
d="M94 0v714h411v-714h-411zM114 20h371v674h-371v-674z" />
    <glyph glyph-name="f_f_i" unicode="ffi" horiz-adv-x="1074" 
d="M19 0v10h22q15 0 31.5 4.5t28 18t11.5 42.5v451h-89v10h89v27q0 93 49.5 144.5t170.5 51.5q69 0 101.5 -21.5t32.5 -53.5t-28.5 -47.5t-77.5 -15.5q0 73 -10.5 100.5t-37.5 27.5t-37.5 -26t-10.5 -95v-92h203v6q0 108 65 167.5t205 59.5q83 0 131.5 -10.5t69 -30
t20.5 -47.5q0 -37 -34 -60.5t-114 -23.5q0 42 -7.5 79t-27.5 60t-58 23q-52 0 -75 -30.5t-23 -97.5v-95h355v-461q0 -29 11.5 -42.5t28 -18t31.5 -4.5h12v-10h-318v10h12q15 0 31.5 4.5t28 18t11.5 42.5v451h-203v-451q0 -29 11.5 -42.5t28.5 -18t31 -4.5h27v-10h-333v10h12
q14 0 31 4.5t28.5 18t11.5 42.5v451h-203v-451q0 -29 11.5 -42.5t28 -18t31.5 -4.5h27v-10h-343z" />
    <glyph glyph-name="f_f_l" unicode="ffl" horiz-adv-x="1074" 
d="M19 0v10h22q15 0 31.5 4.5t28 18t11.5 42.5v451h-89v10h89v27q0 93 49.5 144.5t170.5 51.5q69 0 101.5 -21.5t32.5 -53.5t-28.5 -47.5t-77.5 -15.5q0 73 -10.5 100.5t-37.5 27.5t-37.5 -26t-10.5 -95v-92h203v7q0 109 66 167.5t188 58.5q37 0 63.5 -2.5t59.5 -6.5h130
v-685q0 -29 11.5 -42.5t28 -18t31.5 -4.5h12v-10h-308v10h2q15 0 31.5 4.5t28 18t11.5 42.5v546q0 63 -25.5 100.5t-75.5 37.5q-102 0 -102 -121v-102h125v-10h-125v-451q0 -29 11.5 -42.5t28.5 -18t31 -4.5h17v-10h-323v10h12q14 0 31 4.5t28.5 18t11.5 42.5v451h-203v-451
q0 -29 11.5 -42.5t28 -18t31.5 -4.5h17v-10h-333z" />
    <glyph glyph-name="f_i" unicode="fi" horiz-adv-x="719" 
d="M19 0v10h22q15 0 31.5 4.5t28 18t11.5 42.5v451h-89v10h89v6q0 108 65 167.5t205 59.5q83 0 131.5 -10.5t69 -30t20.5 -47.5q0 -37 -34.5 -60.5t-113.5 -23.5q0 42 -7.5 79t-27.5 60t-58 23q-52 0 -75 -30.5t-23 -97.5v-95h355v-461q0 -29 11.5 -42.5t28.5 -18t31 -4.5
h12v-10h-318v10h12q14 0 31 4.5t28.5 18t11.5 42.5v451h-203v-451q0 -29 11.5 -42.5t28 -18t31.5 -4.5h27v-10h-343z" />
    <glyph glyph-name="f_l" unicode="fl" horiz-adv-x="719" 
d="M19 0v10h22q15 0 31.5 4.5t28 18t11.5 42.5v451h-89v10h89v7q0 109 66 167.5t188 58.5q37 0 63.5 -2.5t59.5 -6.5h130v-685q0 -29 11.5 -42.5t28.5 -18t31 -4.5h12v-10h-308v10h2q14 0 31 4.5t28.5 18t11.5 42.5v546q0 63 -25.5 100.5t-75.5 37.5q-102 0 -102 -121v-102
h125v-10h-125v-451q0 -29 11.5 -42.5t28 -18t31.5 -4.5h17v-10h-333z" />
    <glyph glyph-name="f_f" unicode="ff" horiz-adv-x="762" 
d="M19 0v10h22q15 0 31.5 4.5t28 18t11.5 42.5v451h-89v10h89v27q0 93 49.5 144.5t170.5 51.5q69 0 101.5 -21.5t32.5 -53.5t-28.5 -47.5t-77.5 -15.5q0 73 -10.5 100.5t-37.5 27.5t-37.5 -26t-10.5 -95v-92h203v6q0 66 25 117.5t74.5 80.5t120.5 29q82 0 116.5 -21.5
t34.5 -53.5q0 -63 -123 -63q0 73 -10 100.5t-33 27.5q-31 0 -42 -41.5t-11 -110.5v-71h138v-10h-138v-451q0 -29 11.5 -42.5t28.5 -18t31 -4.5h47v-10h-363v10h22q14 0 31 4.5t28.5 18t11.5 42.5v451h-203v-451q0 -29 11.5 -42.5t28 -18t31.5 -4.5h17v-10h-333z" />
    <glyph glyph-name=".notdef" horiz-adv-x="600" 
d="M94 0v714h411v-714h-411zM114 20h371v674h-371v-674z" />
    <glyph glyph-name="NULL" 
 />
    <glyph glyph-name="NULL" 
 />
    <glyph glyph-name="CR" unicode="&#xd;" horiz-adv-x="225" 
 />
    <glyph glyph-name="space" unicode=" " horiz-adv-x="225" 
 />
    <glyph glyph-name="exclam" unicode="!" horiz-adv-x="382" 
d="M184 228l-80 486h174l-79 -486h-15zM192 -8q-30 0 -50.5 17.5t-20.5 62.5q0 46 20.5 63t50.5 17q28 0 49.5 -17t21.5 -63q0 -45 -21.5 -62.5t-49.5 -17.5z" />
    <glyph glyph-name="quotedbl" unicode="&#x22;" horiz-adv-x="350" 
d="M87 479l-57 235h130l-57 -235h-16zM247 479l-57 235h130l-57 -235h-16z" />
    <glyph glyph-name="numbersign" unicode="#" horiz-adv-x="559" 
d="M100 0l43 233h-118v10h120l45 245h-133v10h135l40 216h10l-40 -216h191l40 216h10l-40 -216h131v-10h-133l-45 -245h146v-10h-148l-43 -233h-10l43 233h-191l-43 -233h-10zM155 243h191l45 245h-191z" />
    <glyph glyph-name="dollar" unicode="$" horiz-adv-x="559" 
d="M279 -79v122q-113 0 -171.5 37.5t-58.5 102.5q0 43 29 61.5t65 18.5q0 -109 33 -158.5t103 -50.5v248q-35 16 -71.5 32t-67.5 38.5t-50 55t-19 81.5q0 75 55.5 124t152.5 51v76h10v-76q101 0 147.5 -28.5t46.5 -71.5q0 -32 -27.5 -52.5t-82.5 -20.5q0 85 -18.5 123
t-65.5 40v-235q36 -17 74.5 -32.5t71.5 -36.5t53.5 -53.5t20.5 -81.5q0 -81 -58.5 -134t-161.5 -58v-122h-10zM279 443v231q-42 -1 -71.5 -25.5t-29.5 -77.5q0 -50 29.5 -79t71.5 -49zM289 54q54 2 82.5 31t28.5 79q0 52 -32.5 81.5t-78.5 51.5v-243z" />
    <glyph glyph-name="percent" unicode="%" horiz-adv-x="906" 
d="M214 280q-95 0 -137.5 61t-42.5 162t42.5 161t138.5 60q90 0 134.5 -60t44.5 -161t-44.5 -162t-135.5 -61zM267 0l357 714h11l-357 -714h-11zM214 290q25 0 39.5 19.5t20.5 66t6 127.5q0 80 -6 126t-20 65.5t-39 19.5q-26 0 -41 -19.5t-21 -65.5t-6 -126q0 -81 6 -127.5
t20.5 -66t40.5 -19.5zM692 -10q-95 0 -137.5 61t-42.5 162t42.5 161t138.5 60q90 0 134.5 -60t44.5 -161t-44.5 -162t-135.5 -61zM692 0q25 0 39.5 19.5t20.5 66t6 127.5q0 80 -6 126t-20 65.5t-39 19.5q-26 0 -41 -19.5t-21 -65.5t-6 -126q0 -81 6 -127.5t20.5 -66
t40.5 -19.5z" />
    <glyph glyph-name="ampersand" unicode="&#x26;" horiz-adv-x="801" 
d="M299 -10q-115 0 -183.5 51t-68.5 148q0 44 17 80.5t58.5 64.5t112.5 45q-49 53 -71 97t-22 91q0 73 49.5 115t149.5 42q96 0 144.5 -38t48.5 -103q0 -23 -10.5 -54.5t-44 -62t-103.5 -52.5l158 -165q4 29 5.5 62.5t1.5 70.5v44h219v-10h-16q-34 0 -53 -9t-31 -32t-22 -65
q-9 -34 -19.5 -67t-22.5 -60l101 -105q37 -39 55 -53.5t34 -14.5h2v-10h-198l-68 72q-81 -82 -223 -82zM368 422q21 20 38 58t17 106q0 67 -19.5 97.5t-60.5 30.5q-75 0 -75 -104q0 -34 9.5 -61.5t31 -57t59.5 -69.5zM338 4q108 0 157 98l-251 267q-34 -23 -47 -68t-13 -101
q0 -80 20.5 -122t55.5 -58t78 -16z" />
    <glyph glyph-name="quotesingle" unicode="'" horiz-adv-x="190" 
d="M87 479l-57 235h130l-57 -235h-16z" />
    <glyph glyph-name="parenleft" unicode="(" horiz-adv-x="400" 
d="M368 -139q-167 67 -239 181t-72 276q0 161 72 274t239 180v-10q-62 -41 -94.5 -104.5t-44 -148.5t-11.5 -191t11.5 -192t44 -150t94.5 -105v-10z" />
    <glyph glyph-name="parenright" unicode=")" horiz-adv-x="400" 
d="M32 -139v10q62 41 94.5 105t44 150t11.5 192t-11.5 191t-44 148.5t-94.5 104.5v10q167 -67 239 -180t72 -274q0 -162 -72 -276t-239 -181z" />
    <glyph glyph-name="asterisk" unicode="*" horiz-adv-x="502" 
d="M196 367l47 179l-163 -122l-45 99l198 41l-198 40l45 101l163 -122l-47 177h112l-50 -177l164 120l45 -100l-197 -39l197 -40l-45 -99l-164 121l49 -179h-111z" />
    <glyph glyph-name="plus" unicode="+" horiz-adv-x="559" 
d="M269 143v204h-204v20h204v205h20v-205h205v-20h-205v-204h-20z" />
    <glyph glyph-name="comma" unicode="," horiz-adv-x="294" 
d="M45 -154v10q43 16 75.5 37t32.5 65q0 23 -9.5 34.5t-23.5 18.5t-27.5 14.5t-23 21t-9.5 38.5q0 35 22 51t50 16q44 0 68 -29.5t24 -80.5q0 -64 -41 -117t-138 -79z" />
    <glyph glyph-name="hyphen" unicode="-" horiz-adv-x="310" 
d="M25 263v20h260v-20h-260z" />
    <glyph glyph-name="period" unicode="." horiz-adv-x="294" 
d="M147 -8q-30 0 -50.5 17.5t-20.5 62.5q0 46 20.5 63t50.5 17q29 0 50 -17t21 -63q0 -45 -21 -62.5t-50 -17.5z" />
    <glyph glyph-name="slash" unicode="/" horiz-adv-x="288" 
d="M30 -122l218 882h10l-218 -882h-10z" />
    <glyph glyph-name="zero" unicode="0" horiz-adv-x="559" 
d="M280 -10q-92 0 -145.5 46t-77 129t-23.5 194t23.5 193t77.5 127t146 45q87 0 140.5 -45t78.5 -127.5t25 -193.5t-25 -193.5t-79 -128.5t-141 -46zM280 0q34 0 53.5 33t28 111t8.5 214t-8 213.5t-27.5 110t-53.5 32.5q-35 0 -55 -32.5t-28.5 -110t-8.5 -213.5t8.5 -214
t28.5 -111t54 -33z" />
    <glyph glyph-name="one" unicode="1" horiz-adv-x="559" 
d="M97 0v10h82q25 0 37.5 14t12.5 51v562q-46 -65 -72.5 -93.5t-54.5 -28.5q-26 0 -43 16t-17 50q50 1 83 9t63 29t72 63l36 36h82v-643q0 -31 10 -48t41 -17h81v-10h-413z" />
    <glyph glyph-name="two" unicode="2" horiz-adv-x="559" 
d="M35 0v93l139 132q63 60 98.5 110.5t50 104t14.5 122.5q0 80 -19 116t-65 36q-34 0 -52.5 -20.5t-26 -69.5t-7.5 -134q-57 0 -92.5 23t-35.5 72q0 59 55.5 99t164.5 40q112 0 170.5 -44t58.5 -124q0 -34 -13 -66.5t-44.5 -70.5t-86 -86.5t-138.5 -113.5l-139 -109h336
q48 0 70.5 15t26.5 54l3 31h10l-7 -210h-471z" />
    <glyph glyph-name="three" unicode="3" horiz-adv-x="559" 
d="M241 -10q-110 0 -161.5 36.5t-51.5 84.5q0 37 25 57t60 20q0 -73 15.5 -113.5t43.5 -57.5t65 -17q64 0 93 49.5t29 142.5q0 67 -16 104.5t-51.5 52.5t-92.5 15h-57v10h57q53 0 82.5 16.5t41.5 54.5t12 102q0 92 -21.5 129.5t-61.5 37.5q-54 0 -70 -54.5t-16 -151.5
q-62 0 -96 21.5t-34 67.5q0 53 56 90t165 37q107 0 169 -43t62 -125q0 -42 -21 -81.5t-69.5 -67t-132.5 -35.5q119 -1 183.5 -46t64.5 -135q0 -73 -38.5 -117t-100.5 -64t-133 -20z" />
    <glyph glyph-name="four" unicode="4" horiz-adv-x="559" 
d="M180 0v10h28q34 0 58 12.5t24 59.5v104h-277v61l284 467h139v-462h104v-66h-104v-104q0 -47 24 -59.5t58 -12.5h13v-10h-351zM28 252h262v221v113.5t2 103.5q-6 -10 -18.5 -31t-27 -45.5t-27.5 -46t-20 -33.5z" />
    <glyph glyph-name="five" unicode="5" horiz-adv-x="559" 
d="M241 -10q-69 0 -113.5 17.5t-66 45t-21.5 58.5q0 35 22 52t58 17q0 -88 24.5 -134t86.5 -46q64 0 93 52t29 168q0 107 -34.5 153t-95.5 46q-39 0 -72 -16.5t-59 -47.5l-11 4l33 355h355l6 -182h-10l-1 14q-2 33 -17 45.5t-53 12.5h-280l-22 -235q27 31 68.5 48t97.5 17
q116 0 182 -57t66 -157q0 -65 -22 -109t-60 -70.5t-85.5 -38.5t-97.5 -12z" />
    <glyph glyph-name="six" unicode="6" horiz-adv-x="559" 
d="M293 -10q-74 0 -130 36.5t-87 112t-31 191.5q0 82 16.5 154t51.5 125.5t90 84t133 30.5q86 0 128.5 -33t42.5 -74q0 -33 -27 -57t-93 -24q0 98 -16.5 137.5t-57.5 39.5q-37 0 -65 -31.5t-44 -102t-18 -188.5q20 19 53.5 33t84.5 14q91 0 145.5 -55t54.5 -152
q0 -107 -58.5 -174t-172.5 -67zM296 0q46 0 64.5 49t18.5 172q0 109 -22 156t-69 47q-30 0 -58 -15t-44 -34q0 -140 10 -222t34 -117.5t66 -35.5z" />
    <glyph glyph-name="seven" unicode="7" horiz-adv-x="559" 
d="M165 0l326 605h-343q-48 0 -68 -17.5t-24 -63.5l-2 -20h-10l7 210h475v-49l-276 -665h-85z" />
    <glyph glyph-name="eight" unicode="8" horiz-adv-x="559" 
d="M277 -10q-125 0 -186 53t-61 136q0 58 35 103t129 69q-79 45 -110 88.5t-31 98.5q0 48 23 90.5t73 69t132 26.5q75 0 123 -22.5t71 -61t23 -85.5q0 -126 -156 -158q66 -32 107 -62t60.5 -64.5t19.5 -82.5q0 -93 -65.5 -145.5t-186.5 -52.5zM325 406q28 17 43 50.5
t15 96.5q0 79 -26 120t-80 41q-49 0 -76 -34t-27 -98q0 -47 15.5 -76.5t49 -51.5t86.5 -48zM285 0q57 0 91 33t34 109q0 22 -6 43t-25.5 43.5t-59 50t-107.5 62.5q-27 -22 -42 -58.5t-15 -101.5q0 -89 30 -135t100 -46z" />
    <glyph glyph-name="nine" unicode="9" horiz-adv-x="559" 
d="M230 -10q-60 0 -97 17t-53.5 43t-16.5 53q0 29 14 45t39 17q0 -79 32 -122t87 -43q49 0 78.5 32t44 107t15.5 203q-23 -28 -57.5 -47.5t-84.5 -19.5q-86 0 -141 53t-55 154q0 72 27.5 126.5t78.5 85t123 30.5t128.5 -35t89 -109t32.5 -192q0 -82 -15.5 -154.5t-49.5 -127
t-88 -85.5t-131 -31zM274 298q34 0 59.5 19.5t39.5 42.5q0 132 -10 209.5t-32.5 111t-62.5 33.5q-49 0 -68.5 -50.5t-19.5 -175.5q0 -106 24 -148t70 -42z" />
    <glyph glyph-name="colon" unicode=":" horiz-adv-x="304" 
d="M152 385q-30 0 -50.5 17.5t-20.5 62.5q0 46 20.5 63t50.5 17q28 0 49.5 -17t21.5 -63q0 -45 -21.5 -62.5t-49.5 -17.5zM152 -8q-30 0 -50.5 17.5t-20.5 62.5q0 46 20.5 63t50.5 17q28 0 49.5 -17t21.5 -63q0 -45 -21.5 -62.5t-49.5 -17.5z" />
    <glyph glyph-name="semicolon" unicode=";" horiz-adv-x="304" 
d="M152 385q-30 0 -50.5 17.5t-20.5 62.5q0 46 20.5 63t50.5 17q28 0 49.5 -17t21.5 -63q0 -45 -21.5 -62.5t-49.5 -17.5zM55 -154v10q43 16 75.5 37t32.5 65q0 23 -9.5 34.5t-23.5 18.5t-27.5 14.5t-23 21t-9.5 38.5q0 35 22 51t50 16q44 0 68 -29.5t24 -80.5
q0 -64 -41 -117t-138 -79z" />
    <glyph glyph-name="less" unicode="&#x3c;" horiz-adv-x="559" 
d="M494 119l-429 228v20l429 228v-23l-407 -215l407 -215v-23z" />
    <glyph glyph-name="equal" unicode="=" horiz-adv-x="559" 
d="M68 455v20h423v-20h-423zM68 239v20h423v-20h-423z" />
    <glyph glyph-name="greater" unicode="&#x3e;" horiz-adv-x="559" 
d="M65 119v23l407 215l-407 215v23l429 -228v-20z" />
    <glyph glyph-name="question" unicode="?" horiz-adv-x="550" 
d="M238 228l-43 125q52 3 83 17t44.5 52t13.5 114q0 84 -17 131t-63 47q-40 0 -59 -40.5t-19 -135.5q-62 0 -101.5 17t-39.5 57q0 44 52 78t153 34q115 0 184 -48t69 -141q0 -149 -199 -186l-43 -121h-15zM244 -8q-30 0 -50.5 17.5t-20.5 62.5q0 46 20.5 63t50.5 17
q28 0 49.5 -17t21.5 -63q0 -45 -21.5 -62.5t-49.5 -17.5z" />
    <glyph glyph-name="at" unicode="@" horiz-adv-x="921" 
d="M425 -142q-108 0 -192.5 40t-133 120.5t-48.5 204.5q0 104 35.5 193t100 156t153 104.5t195.5 37.5q115 0 192 -42.5t116 -117t39 -169.5q0 -91 -32 -160.5t-82.5 -108.5t-106.5 -39q-27 0 -56.5 12t-50 42.5t-20.5 86.5h-2q-22 -75 -60.5 -108t-86.5 -33q-55 0 -94 40
t-39 117q0 45 15 96t45 96t76 74t108 29q40 0 59 -12.5t31 -32.5l97 36h11l-51 -254q-4 -18 -10.5 -52t-6.5 -66q0 -34 10.5 -47.5t29.5 -13.5q31 0 55.5 26t42.5 71t27.5 101.5t9.5 117.5q0 157 -64.5 229t-185.5 72q-91 0 -165 -37t-127 -104t-81.5 -159t-28.5 -201
q0 -334 285 -334q74 0 144.5 23t142.5 74l7 -9q-71 -51 -145.5 -75t-157.5 -24zM423 98q27 0 59.5 40t46.5 113l45 228q-4 12 -21 25.5t-40 13.5q-27 0 -49 -21.5t-38.5 -56.5t-28 -76.5t-17 -83.5t-5.5 -76q0 -106 48 -106z" />
    <glyph glyph-name="A" unicode="A" horiz-adv-x="753" 
d="M4 0v10h41q28 0 44.5 16t31.5 57l231 631h98l224 -632q15 -41 31.5 -56.5t44.5 -15.5h3v-10h-330v10h54q46 0 46 32q0 16 -11 51l-57 168h-258l-57 -155q-8 -20 -12 -35.5t-4 -26.5q0 -19 12 -26.5t37 -7.5h71v-10h-240zM201 271h251l-62 187q-8 24 -18.5 57.5t-20 68
t-15.5 59.5q-8 -24 -19.5 -56.5t-23.5 -65t-21 -56.5z" />
    <glyph glyph-name="B" unicode="B" horiz-adv-x="672" 
d="M28 0v10h41q22 0 37 11t15 54v565q0 40 -15.5 52t-36.5 12h-41v10h292q142 0 214 -45t72 -131q0 -77 -55.5 -115t-160.5 -44v-2q118 -2 182 -48t64 -137q0 -192 -286 -192h-322zM279 379h38q65 0 93 37.5t28 125.5t-28 125t-95 37h-36v-325zM279 10h66q67 0 95 41t28 139
q0 97 -28 138t-93 41h-68v-359z" />
    <glyph glyph-name="C" unicode="C" horiz-adv-x="668" 
d="M401 -10q-116 0 -193 46t-115 128.5t-38 193.5q0 108 38 190.5t115.5 129t195.5 46.5q107 0 165.5 -34t58.5 -83q0 -37 -32 -61.5t-93 -24.5q0 101 -29 147t-93 46q-83 0 -120.5 -84.5t-37.5 -271.5q0 -188 46.5 -272.5t149.5 -84.5q148 0 181 164q27 -11 27 -44
q0 -27 -21 -57.5t-70.5 -52t-134.5 -21.5z" />
    <glyph glyph-name="D" unicode="D" horiz-adv-x="767" 
d="M28 0v10h42q22 0 36.5 11t14.5 54v568q0 40 -15 50.5t-36 10.5h-42v10h330q166 0 260 -87t94 -257q0 -110 -40 -193t-119 -130t-195 -47h-330zM279 10h56q75 0 121 36t66.5 115.5t20.5 208.5q0 120 -20.5 193.5t-66.5 107t-120 33.5h-57v-694z" />
    <glyph glyph-name="E" unicode="E" horiz-adv-x="653" 
d="M28 0v10h42q21 0 36 10t15 50v569q0 43 -14.5 54t-36.5 11h-42v10h553l6 -184h-10l-3 34q-7 76 -43.5 108t-116.5 32h-134v-326h237v-10h-237v-358h168q80 0 116.5 32t43.5 109l3 33h10l-7 -184h-586z" />
    <glyph glyph-name="F" unicode="F" horiz-adv-x="621" 
d="M28 0v10h42q21 0 36 10t15 50v569q0 43 -14.5 54t-36.5 11h-42v10h553l6 -184h-10l-3 34q-7 76 -43.5 108t-116.5 32h-134v-326h237v-10h-237v-293q0 -43 14.5 -54t36.5 -11h62v-10h-365z" />
    <glyph glyph-name="G" unicode="G" horiz-adv-x="769" 
d="M423 -10q-124 0 -205.5 46t-122 128.5t-40.5 193.5q0 108 42 190.5t125.5 129t205.5 46.5q124 0 187 -33.5t63 -82.5q0 -35 -33 -60t-96 -25q0 101 -28.5 146t-101.5 45q-102 0 -149 -84.5t-47 -271.5q0 -188 51.5 -272.5t163.5 -84.5q19 0 37.5 1.5t35.5 5.5v247
q0 40 -18 55.5t-53 15.5h-13v10h314v-10h-13q-31 0 -45 -16t-14 -59v-207q-59 -27 -118.5 -40.5t-127.5 -13.5z" />
    <glyph glyph-name="H" unicode="H" horiz-adv-x="819" 
d="M28 0v10h42q22 0 36.5 11t14.5 54v564q0 43 -14.5 54t-36.5 11h-42v10h345v-10h-42q-22 0 -36.5 -11t-14.5 -54v-261h259v261q0 43 -14.5 54t-36.5 11h-42v10h345v-10h-42q-22 0 -36.5 -11t-14.5 -54v-564q0 -43 14.5 -54t36.5 -11h42v-10h-345v10h42q22 0 36.5 11
t14.5 54v293h-259v-293q0 -43 14.5 -54t36.5 -11h42v-10h-345z" />
    <glyph glyph-name="I" unicode="I" horiz-adv-x="401" 
d="M28 0v10h42q22 0 36.5 11t14.5 54v564q0 43 -14.5 54t-36.5 11h-42v10h345v-10h-42q-22 0 -36.5 -11t-14.5 -54v-564q0 -43 14.5 -54t36.5 -11h42v-10h-345z" />
    <glyph glyph-name="J" unicode="J" horiz-adv-x="397" 
d="M-21 -240v10h18q32 0 61 17t47 56t18 106v694q0 40 -15 50.5t-36 10.5h-42v10h345v-10h-42q-22 0 -37 -11t-15 -54v-641q0 -68 -22 -114t-59.5 -73t-85.5 -39t-99 -12h-36z" />
    <glyph glyph-name="K" unicode="K" horiz-adv-x="734" 
d="M28 0v10h42q21 0 36 10t15 50v573q0 40 -15 50.5t-36 10.5h-42v10h345v-10h-42q-22 0 -37 -11t-15 -54v-312l229 247q30 33 45.5 56t15.5 39q0 20 -21.5 27.5t-78.5 7.5v10h247v-10q-27 0 -47.5 -5t-45 -23.5t-62.5 -59.5l-148 -160l203 -322q32 -50 52 -77t34.5 -37
t29.5 -10h2v-10h-54q-76 0 -117.5 9.5t-64 30t-41.5 52.5l-148 252l-30 -32v-237q0 -43 15 -54t37 -11h42v-10h-345z" />
    <glyph glyph-name="L" unicode="L" horiz-adv-x="654" 
d="M28 0v10h42q22 0 36.5 11t14.5 54v564q0 43 -14.5 54t-36.5 11h-42v10h345v-10h-42q-21 0 -36 -10.5t-15 -50.5v-633h147q91 0 132.5 37t47.5 123l4 53h10l-8 -223h-585z" />
    <glyph glyph-name="M" unicode="M" horiz-adv-x="952" 
d="M28 0v10h73q21 0 36 10t15 50v573q0 40 -15 50.5t-36 10.5h-73v10h273l207 -545l170 545h246v-10h-42q-22 0 -36.5 -11t-14.5 -54v-564q0 -43 14.5 -54t36.5 -11h42v-10h-320v10h10q32 0 47.5 9.5t15.5 46.5v611l-212 -677h-48l-255 672v-597q0 -43 19.5 -54t54.5 -11h40
v-10h-248z" />
    <glyph glyph-name="N" unicode="N" horiz-adv-x="788" 
d="M28 0v10h62q21 0 36 11t15 54v568q0 40 -15.5 50.5t-35.5 10.5h-62v10h254l354 -539v468q0 40 -15.5 50.5t-35.5 10.5h-75v10h261v-10h-74q-21 0 -36 -11t-15 -54v-639h-60l-435 662v-587q0 -43 15 -54t36 -11h87v-10h-261z" />
    <glyph glyph-name="O" unicode="O" horiz-adv-x="787" 
d="M394 -10q-114 0 -189 46t-112.5 129t-37.5 194t37.5 193t112.5 127.5t190 45.5q108 0 183.5 -45.5t114.5 -128t39 -193.5t-39.5 -193.5t-115 -128.5t-183.5 -46zM394 0q89 0 129.5 85t40.5 273t-40 272.5t-129 84.5q-90 0 -131 -84.5t-41 -272.5t40.5 -273t130.5 -85z
" />
    <glyph glyph-name="P" unicode="P" horiz-adv-x="638" 
d="M28 0v10h42q22 0 36.5 11t14.5 54v568q0 40 -15 50.5t-36 10.5h-42v10h307q139 0 206 -57t67 -155q0 -60 -29 -112t-93.5 -84.5t-172.5 -32.5h-34v-203q0 -40 16 -50t37 -10h61v-10h-365zM279 283h24q74 0 105.5 48.5t31.5 162.5q0 113 -28 161.5t-94 48.5h-39v-421z" />
    <glyph glyph-name="Q" unicode="Q" horiz-adv-x="787" 
d="M577 -240q-60 0 -116 24t-94.5 75.5t-44.5 135.5q-134 22 -200.5 119t-66.5 245q0 111 37.5 193t112.5 127.5t190 45.5q108 0 183.5 -45.5t114.5 -128t39 -193.5q0 -140 -62.5 -234.5t-180.5 -122.5q0 -121 34 -176t110 -55h16v-10h-72zM394 0q89 0 129.5 85t40.5 273
t-40 272.5t-129 84.5q-90 0 -131 -84.5t-41 -272.5t40.5 -273t130.5 -85z" />
    <glyph glyph-name="R" unicode="R" horiz-adv-x="707" 
d="M28 0v10h42q20 0 35.5 10t15.5 50v573q0 40 -15.5 50.5t-35.5 10.5h-42v10h322q142 0 208 -47.5t66 -137.5q0 -53 -20.5 -90t-54 -61t-73.5 -38l111 -189q37 -64 58.5 -94t35 -38.5t28.5 -8.5h2v-10h-33q-60 0 -101 7t-70 28t-52 63l-129 236h-47v-264q0 -40 15.5 -50
t35.5 -10h43v-10h-345zM279 344h56q64 0 92.5 43t28.5 137t-29 137t-94 43h-54v-360z" />
    <glyph glyph-name="S" unicode="S" horiz-adv-x="586" 
d="M255 -10q-83 0 -132 21.5t-71 54.5t-22 67q0 33 16 52.5t42 28.5t55 9q0 -92 17.5 -140t47.5 -65.5t69 -17.5q60 0 98.5 32t38.5 96q0 46 -21 77t-60.5 54t-95.5 46q-70 29 -111 60.5t-58.5 70t-17.5 87.5q0 91 68.5 146t189.5 55q95 0 147.5 -33.5t52.5 -81.5
q0 -36 -31 -60t-92 -24q0 97 -24.5 142t-83.5 45q-26 0 -52 -10t-43 -35t-17 -71q0 -38 17 -67.5t56 -55t106 -52.5q104 -42 148 -90.5t44 -121.5q0 -65 -33 -114t-95.5 -77t-152.5 -28z" />
    <glyph glyph-name="T" unicode="T" horiz-adv-x="653" 
d="M154 0v10h42q22 0 36.5 11t14.5 54v629h-64q-81 0 -118 -32t-42 -108l-3 -44h-10l7 194h619l7 -194h-10l-3 44q-5 76 -42 108t-118 32h-64v-629q0 -43 14.5 -54t36.5 -11h42v-10h-345z" />
    <glyph glyph-name="U" unicode="U" horiz-adv-x="747" 
d="M387 -10q-131 0 -204 52.5t-73 175.5v425q0 40 -15.5 50.5t-35.5 10.5h-43v10h345v-10h-42q-21 0 -36 -11t-15 -54v-485q0 -84 40.5 -116.5t108.5 -32.5q95 0 147.5 53.5t52.5 147.5v437q0 40 -15 50.5t-36 10.5h-62v10h227v-10h-53q-21 0 -36 -11t-15 -54v-433
q0 -107 -62 -161.5t-178 -54.5z" />
    <glyph glyph-name="V" unicode="V" horiz-adv-x="698" 
d="M298 0l-228 656q-10 28 -28.5 38t-33.5 10h-8v10h330v-10h-61q-14 0 -26.5 -7t-12.5 -26q0 -10 3 -22.5t6 -20.5l117 -351q16 -50 32 -100.5t27 -90.5q10 34 21.5 73t21.5 74l117 388q5 15 7.5 26.5t2.5 20.5q0 20 -13.5 28t-44.5 8h-67v10h238v-10h-30q-31 0 -48.5 -16
t-30.5 -57l-191 -631h-100z" />
    <glyph glyph-name="W" unicode="W" horiz-adv-x="1067" 
d="M267 0l-196 651q-10 31 -25.5 42t-43.5 11h-2v10h334v-10h-36q-60 0 -60 -48q0 -8 3 -24t7 -30l80 -274q18 -62 33.5 -123t34.5 -141q5 25 12 53t15 61l129 529h72l128 -382q12 -35 25.5 -82t26.5 -93t21 -75q8 39 18.5 85.5t20.5 89.5t17 70l66 283q4 16 6 28.5t2 23.5
q0 27 -15.5 38t-49.5 11h-54v10h231v-10h-28q-33 0 -50 -17t-27 -62l-145 -625h-114l-178 553l-135 -553h-123z" />
    <glyph glyph-name="X" unicode="X" horiz-adv-x="732" 
d="M10 0v10h21q33 0 56.5 15.5t52.5 56.5l174 242l-198 327q-18 30 -36 41.5t-47 11.5h-2v10h331v-10h-21q-35 0 -47 -8.5t-12 -20.5q0 -11 8 -26.5t18 -32.5l113 -188l134 186q29 41 29 61q0 29 -68 29h-37v10h224v-10h-13q-33 0 -56.5 -15t-52.5 -56l-154 -214l184 -304
q27 -44 44 -66.5t32 -30.5t33 -8h2v-10h-330v10h23q60 0 60 33q0 11 -6.5 24t-26.5 45l-122 202l-154 -214q-29 -41 -29 -61q0 -29 68 -29h44v-10h-239z" />
    <glyph glyph-name="Y" unicode="Y" horiz-adv-x="693" 
d="M164 0v10h47q24 0 41 9t17 52v204l-198 376q-16 30 -28.5 41.5t-30.5 11.5h-12v10h335v-10h-30q-34 0 -50 -8t-16 -27q0 -23 21 -65l102 -200q17 -33 31 -59.5t29 -58.5q16 38 32.5 74.5t32.5 70.5l75 163q10 23 16 40t6 30q0 22 -17.5 31t-54.5 9h-71v10h252v-10h-29
q-22 0 -38.5 -17t-37.5 -62l-160 -347v-206q0 -44 16.5 -53t39.5 -9h49v-10h-369z" />
    <glyph glyph-name="Z" unicode="Z" horiz-adv-x="666" 
d="M42 0v10l387 694h-194q-83 0 -119.5 -32t-40.5 -108l-3 -56h-11l7 206h532v-10l-387 -694h235q81 0 117.5 32t42.5 108l4 56h10l-7 -206h-573z" />
    <glyph glyph-name="bracketleft" unicode="[" horiz-adv-x="414" 
d="M100 -128v888h277v-10h-43q-34 0 -58 -12.5t-24 -59.5v-724q0 -47 24 -59.5t58 -12.5h43v-10h-277z" />
    <glyph glyph-name="backslash" unicode="\" horiz-adv-x="226" 
d="M216 -121l-216 881h9l217 -881h-10z" />
    <glyph glyph-name="bracketright" unicode="]" horiz-adv-x="414" 
d="M37 -128v10h43q34 0 58 12.5t24 59.5v724q0 47 -24 59.5t-58 12.5h-43v10h277v-888h-277z" />
    <glyph glyph-name="asciicircum" unicode="^" horiz-adv-x="504" 
d="M55 261l184 453h24l186 -453h-22l-176 433l-174 -433h-22z" />
    <glyph glyph-name="underscore" unicode="_" horiz-adv-x="459" 
d="M-5 -122v20h469v-20h-469z" />
    <glyph glyph-name="grave" unicode="`" horiz-adv-x="294" 
d="M244 606q-24 15 -53.5 35t-59 41.5t-54 41t-37.5 32.5v10h130q16 -34 39 -76t45 -74v-10h-10z" />
    <glyph glyph-name="a" unicode="a" horiz-adv-x="599" 
d="M205 -10q-75 0 -117.5 42.5t-42.5 113.5q0 77 55.5 111t168.5 38l82 3v127q0 65 -13.5 89.5t-47.5 24.5q-40 0 -54 -34t-14 -125q-67 0 -101 15t-34 53q0 36 28 58t74.5 32.5t103.5 10.5q105 0 157.5 -38t52.5 -132v-298q0 -41 13 -56t47 -15h4v-10h-214v101h-2
q-19 -65 -58.5 -88t-87.5 -23zM256 18q29 0 50.5 22t33 57t11.5 74v117l-45 -2q-60 -3 -83 -34.5t-23 -102.5q0 -73 14 -102t42 -29z" />
    <glyph glyph-name="b" unicode="b" horiz-adv-x="649" 
d="M397 -10q-56 0 -94.5 35.5t-49.5 111.5h-2v-137h-234v10h12q15 0 31.5 4.5t28 18t11.5 42.5v614q0 27 -12 40t-28.5 17t-30.5 4h-12v10h235v-171v-71.5t-1 -106.5h2q11 70 50 103.5t99 33.5q96 0 148 -66.5t52 -211.5q0 -146 -52 -213t-153 -67zM355 15q93 0 93 269
q0 239 -91 239q-105 0 -105 -239q0 -269 103 -269z" />
    <glyph glyph-name="c" unicode="c" horiz-adv-x="527" 
d="M296 -10q-74 0 -130.5 26.5t-87.5 87t-31 162.5q0 108 32 169.5t88.5 87.5t129.5 26q91 0 142 -30t51 -78q0 -19 -10.5 -38t-38.5 -31.5t-80 -12.5q0 69 -6.5 108t-21.5 55.5t-42 16.5q-33 0 -53 -25t-28.5 -84.5t-8.5 -162.5q0 -144 28.5 -205t95.5 -61q52 0 88.5 33.5
t46.5 116.5q16 -5 25 -19t9 -32q0 -25 -21 -50.5t-64.5 -42.5t-112.5 -17z" />
    <glyph glyph-name="d" unicode="d" horiz-adv-x="649" 
d="M251 -10q-101 0 -153 67t-52 213q0 145 52 211.5t148 66.5q60 0 99 -33.5t50 -103.5h2q-1 60 -1 106.5v71.5v100q0 27 -12 40t-28.5 17t-30.5 4h-12v10h235v-685q0 -29 11.5 -42.5t28 -18t31.5 -4.5h12v-10h-234v137h-2q-11 -76 -49.5 -111.5t-94.5 -35.5zM293 15
q103 0 103 269q0 239 -105 239q-91 0 -91 -239q0 -269 93 -269z" />
    <glyph glyph-name="e" unicode="e" horiz-adv-x="571" 
d="M311 -10q-130 0 -197 72t-67 203q0 141 64.5 212.5t183.5 71.5q109 0 171.5 -61t62.5 -180v-24h-328q0 -152 31 -217.5t102 -65.5q52 0 89.5 34.5t47.5 116.5q20 -4 28.5 -17t8.5 -30q0 -29 -22 -55t-65.5 -43t-109.5 -17zM201 294h176q0 90 -7 144t-25 77.5t-50 23.5
q-49 0 -71 -54.5t-23 -190.5z" />
    <glyph glyph-name="f" unicode="f" horiz-adv-x="407" 
d="M19 0v10h22q15 0 31.5 4.5t28 18t11.5 42.5v451h-89v10h89v37q0 93 49.5 144.5t170.5 51.5q82 0 116.5 -21.5t34.5 -53.5q0 -63 -123 -63q0 73 -10.5 100.5t-37.5 27.5t-37.5 -26t-10.5 -95v-102h138v-10h-138v-451q0 -29 11.5 -42.5t28 -18t31.5 -4.5h47v-10h-363z" />
    <glyph glyph-name="g" unicode="g" horiz-adv-x="560" 
d="M236 -240q-124 0 -178.5 31t-54.5 86q0 45 39 72t135 32q-54 9 -84 39t-30 71q0 40 28 67t78 44q-55 17 -86.5 58.5t-31.5 103.5q0 88 51 136.5t158 48.5q39 0 72.5 -10.5t58.5 -30.5q26 36 48 51t50 15q31 0 48.5 -16t17.5 -41q0 -20 -15 -38.5t-56 -18.5q0 28 -13 43.5
t-34 15.5q-23 0 -38 -17q30 -25 46.5 -60t16.5 -78q0 -76 -49 -125.5t-153 -49.5q-46 0 -80 10q-19 -11 -26 -21.5t-7 -24.5q0 -44 66 -44h121q100 0 146 -40.5t46 -112.5q0 -92 -71 -144t-219 -52zM257 199q37 0 52.5 36.5t15.5 128.5q0 97 -15.5 136t-53.5 39t-53.5 -39.5
t-15.5 -137.5q0 -91 15.5 -127t54.5 -36zM248 -230q75 0 121.5 28t46.5 93q0 41 -21.5 63.5t-69.5 22.5h-102q-54 0 -78.5 -26t-24.5 -73q0 -56 32.5 -82t95.5 -26z" />
    <glyph glyph-name="h" unicode="h" horiz-adv-x="667" 
d="M17 0v10h12q15 0 31.5 4.5t28 18t11.5 42.5v614q0 27 -12 40t-28.5 17t-30.5 4h-12v10h235v-201v-57.5t-1 -57.5h2q12 45 34.5 67.5t51.5 30t58 7.5q88 0 131 -46t43 -147v-275q0 -47 16.5 -59t50.5 -12h3v-10h-222v389q0 65 -17.5 97.5t-57.5 32.5q-53 0 -72.5 -53
t-19.5 -137v-254q0 -29 11.5 -42.5t28 -18t31.5 -4.5h12v-10h-318z" />
    <glyph glyph-name="i" unicode="i" horiz-adv-x="352" 
d="M171 626q-29 0 -49.5 17.5t-20.5 54.5q0 38 20.5 55t49.5 17t50 -17t21 -55q0 -37 -21 -54.5t-50 -17.5zM17 0v10h12q15 0 31.5 4.5t28 18t11.5 42.5v390q0 27 -12 40t-28.5 17t-30.5 4h-12v10h235v-461q0 -29 11.5 -42.5t28 -18t31.5 -4.5h12v-10h-318z" />
    <glyph glyph-name="j" unicode="j" horiz-adv-x="345" 
d="M172 626q-31 0 -52 17.5t-21 54.5q0 38 21 55t52 17q30 0 52 -17t22 -55q0 -37 -22 -54.5t-52 -17.5zM-20 -240v10h7q55 0 84 38t29 140v512q0 43 -24 54.5t-56 11.5h-3v10h235v-544q0 -90 -32.5 -140.5t-89 -71t-130.5 -20.5h-20z" />
    <glyph glyph-name="k" unicode="k" horiz-adv-x="636" 
d="M17 0v10h12q15 0 31.5 4.5t28 18t11.5 42.5v614q0 27 -12 40t-28.5 17t-30.5 4h-12v10h235v-432v-44.5t-1 -45.5l193 203q16 17 23.5 30.5t7.5 22.5q0 18 -27.5 25t-89.5 7v10h242v-10q-22 0 -40.5 -5.5t-41.5 -23.5t-59 -56l-81 -85l186 -277q30 -45 43.5 -57t26.5 -12
h2v-10h-14q-55 0 -92.5 2.5t-63.5 11t-46 26.5t-39 49l-103 162l-26 -27v-149q0 -29 11.5 -42.5t28 -18t31.5 -4.5h12v-10h-318z" />
    <glyph glyph-name="l" unicode="l" horiz-adv-x="352" 
d="M17 0v10h12q15 0 31.5 4.5t28 18t11.5 42.5v614q0 27 -12 40t-28.5 17t-30.5 4h-12v10h235v-685q0 -29 11.5 -42.5t28 -18t31.5 -4.5h12v-10h-318z" />
    <glyph glyph-name="m" unicode="m" horiz-adv-x="986" 
d="M17 0v10h12q15 0 31.5 4.5t28 18t11.5 42.5v390q0 27 -12 40t-28.5 17t-30.5 4h-12v10h235v-91h2q12 45 34 67t51 29.5t58 7.5q145 0 169 -120h2q11 56 44.5 88t103.5 32q88 0 131 -46t43 -147v-275q0 -47 16.5 -59t50.5 -12h3v-10h-222v389q0 65 -17 97.5t-58 32.5
q-35 0 -55.5 -23.5t-28.5 -64.5t-8 -92v-258q0 -47 16.5 -59t50.5 -12h3v-10h-222v389q0 65 -17.5 97.5t-57.5 32.5q-53 0 -72.5 -53t-19.5 -137v-254q0 -29 11.5 -42.5t28 -18t31.5 -4.5h12v-10h-318z" />
    <glyph glyph-name="n" unicode="n" horiz-adv-x="667" 
d="M17 0v10h12q15 0 31.5 4.5t28 18t11.5 42.5v390q0 27 -12 40t-28.5 17t-30.5 4h-12v10h235v-91h2q12 45 34 67t51 29.5t58 7.5q88 0 131 -46t43 -147v-275q0 -47 16.5 -59t50.5 -12h3v-10h-222v389q0 65 -17.5 97.5t-57.5 32.5q-53 0 -72.5 -53t-19.5 -137v-254
q0 -29 11.5 -42.5t28 -18t31.5 -4.5h12v-10h-318z" />
    <glyph glyph-name="o" unicode="o" horiz-adv-x="613" 
d="M305 -10q-120 0 -189 69.5t-69 210.5t66 210t195 69q120 0 189 -69t69 -210t-66.5 -210.5t-194.5 -69.5zM307 0q39 0 61.5 26t32.5 85t10 159t-10 158.5t-33 84.5t-62 26q-38 0 -61 -26t-33 -84.5t-10 -158.5t10 -159t33 -85t62 -26z" />
    <glyph glyph-name="p" unicode="p" horiz-adv-x="645" 
d="M30 -240v10h12q14 0 31 4.5t28.5 18t11.5 42.5v630q0 27 -12 40t-28.5 17t-30.5 4h-3v10h225v-125h2q11 70 50 103.5t99 33.5q96 0 148 -66.5t52 -211.5q0 -146 -52.5 -213t-152.5 -67q-56 0 -95 35.5t-49 111.5h-2q1 -31 1 -67v-70v-165q0 -29 11.5 -42.5t28.5 -18
t31 -4.5h22v-10h-328zM368 15q93 0 93 269q0 239 -91 239q-105 0 -105 -239q0 -269 103 -269z" />
    <glyph glyph-name="q" unicode="q" horiz-adv-x="648" 
d="M297 -240v10h28q15 0 31.5 4.5t28 18t11.5 42.5v185v60t1 57h-2q-11 -76 -49.5 -111.5t-94.5 -35.5q-101 0 -153 67t-52 213q0 145 52 211.5t148 66.5q60 0 99 -33.5t50 -103.5h2v125h238v-10h-16q-14 0 -30.5 -4t-28.5 -17t-12 -40v-630q0 -29 11.5 -42.5t28 -18
t31.5 -4.5h28v-10h-350zM293 15q103 0 103 269q0 239 -105 239q-91 0 -91 -239q0 -269 93 -269z" />
    <glyph glyph-name="r" unicode="r" horiz-adv-x="523" 
d="M20 0v10h9q15 0 31.5 4.5t28 18t11.5 42.5v390q0 27 -12 40t-28.5 17t-30.5 4h-4v10h227v-86h2q16 49 49.5 73.5t89.5 24.5q55 0 85 -23t30 -64q0 -43 -34 -67t-93 -24q0 76 -15 104.5t-43 28.5q-31 0 -51 -34.5t-20 -125.5v-268q0 -29 11.5 -42.5t28 -18t31.5 -4.5h31
v-10h-334z" />
    <glyph glyph-name="s" unicode="s" horiz-adv-x="488" 
d="M221 -10q-97 0 -144 33.5t-47 83.5q0 33 16 49t38 21.5t39 5.5q0 -103 26 -143t84 -40q48 0 77.5 24t29.5 75q0 33 -14 52.5t-43.5 34t-75.5 31.5q-45 17 -83 37t-61 51t-23 83q0 81 58.5 120.5t157.5 39.5q94 0 134 -29.5t40 -67.5q0 -29 -23.5 -47t-78.5 -18
q0 85 -22 118.5t-66 33.5q-21 0 -42 -8t-35 -28t-14 -55q0 -32 14.5 -51t46.5 -34.5t86 -34.5q46 -17 80 -37.5t53 -51t19 -77.5q0 -79 -57.5 -125t-169.5 -46z" />
    <glyph glyph-name="t" unicode="t" horiz-adv-x="405" 
d="M243 -10q-67 0 -107 35t-40 123v378h-75v10q98 0 150 42q49 40 67 122h10v-164h128v-10h-128v-423q0 -47 18 -69t53 -22q28 0 66 13v-10q-16 -7 -52.5 -16t-89.5 -9z" />
    <glyph glyph-name="u" unicode="u" horiz-adv-x="667" 
d="M270 -10q-88 0 -131 46t-43 147v272q0 47 -16.5 59t-50.5 12h-3v10h222v-386q0 -64 17 -97t58 -33q53 0 72.5 53t19.5 137v251q0 29 -11.5 42.5t-28.5 18t-31 4.5h-4v10h227v-465q0 -27 12 -40t28.5 -17t30.5 -4h4v-10h-227v94h-2q-11 -45 -34 -67t-51 -29.5t-58 -7.5z
" />
    <glyph glyph-name="v" unicode="v" horiz-adv-x="606" 
d="M244 0l-180 478q-10 28 -26.5 38t-37.5 10v10h310v-10h-38q-53 0 -53 -34q0 -16 9 -42l83 -231q15 -41 29.5 -81t27.5 -80q6 20 14.5 47t17.5 53t14 40l83 244q5 13 7.5 24t2.5 20q0 20 -17 30t-61 10h-23v10h200v-10h-5q-25 0 -41 -5t-26.5 -21t-21.5 -47l-155 -453
h-113z" />
    <glyph glyph-name="w" unicode="w" horiz-adv-x="856" 
d="M199 0l-141 473q-10 32 -24 42.5t-34 10.5h-3v10h293v-10h-26q-30 0 -45 -8.5t-15 -33.5q0 -8 2.5 -20t5.5 -23l50 -173q8 -26 18 -62.5t20 -71.5t16 -58h2q4 17 8 30t8 28l111 397h64l98 -295q12 -35 24 -74.5t22 -75.5h3q4 16 11 42.5t15.5 56t15.5 54.5l53 188
q4 13 6.5 27.5t2.5 22.5q0 49 -66 49h-34v10h197v-10h-17q-27 0 -43.5 -15t-29.5 -64l-126 -447h-94l-129 396l-111 -396h-108z" />
    <glyph glyph-name="x" unicode="x" horiz-adv-x="646" 
d="M11 0v10h14q22 0 38.5 5.5t34.5 22.5t45 51l128 161l-165 223q-39 53 -83 53h-2v10h323v-10h-23q-35 0 -46.5 -8.5t-11.5 -20.5q0 -11 4.5 -21t15.5 -25l95 -130l99 119q11 14 18 28t7 28q0 18 -14 24t-37 6h-39v10h206v-10h-9q-29 0 -49 -12.5t-52 -51.5l-123 -150
l183 -249q21 -29 39.5 -41t35.5 -12h3v-10h-325v10h24q62 0 62 33q0 11 -5.5 24.5t-28.5 44.5l-95 129l-116 -145q-11 -14 -18 -28t-7 -28q0 -18 14 -24t37 -6h34v-10h-211z" />
    <glyph glyph-name="y" unicode="y" horiz-adv-x="579" 
d="M31 -240v10q68 0 111.5 11.5t70.5 35t46 60t40 86.5l-243 515q-13 27 -23.5 37.5t-26.5 10.5h-6v10h287l1 -10h-20q-29 0 -43 -7t-14 -24t12 -45l98 -225q17 -39 25 -56.5t15 -35.5q7 21 14.5 39.5t12.5 33.5l85 230q12 32 12 51q0 22 -15.5 30.5t-50.5 8.5h-42v10h202
v-10h-2q-34 0 -53.5 -17t-35.5 -61l-166 -452q-26 -72 -50 -118t-54 -72t-74 -36t-110 -10h-3z" />
    <glyph glyph-name="z" unicode="z" horiz-adv-x="529" 
d="M18 0v10l320 516h-132q-70 0 -104.5 -30t-44.5 -100l-3 -22h-10l12 162h432v-10l-320 -516h168q77 0 111 30t39 101l3 40h10l-6 -181h-475z" />
    <glyph glyph-name="braceleft" unicode="{" horiz-adv-x="442" 
d="M317 -125q-84 0 -127.5 40t-43.5 108v196q0 38 -15.5 57.5t-42 27.5t-58.5 9v10q32 1 58.5 8.5t42 27t15.5 57.5v198q0 70 43.5 108t127.5 38h95v-10h-39q-43 0 -57 -25t-14 -72v-219q0 -45 -27.5 -75t-92.5 -39v-2q64 -10 92 -40t28 -75v-220q0 -47 14 -72.5t57 -25.5
h39v-10h-95z" />
    <glyph glyph-name="bar" unicode="|" horiz-adv-x="559" 
d="M269 -240v1000h20v-1000h-20z" />
    <glyph glyph-name="braceright" unicode="}" horiz-adv-x="442" 
d="M30 -125v10h39q43 0 57 25.5t14 72.5v220q0 45 28 75t92 40v2q-65 9 -92.5 39t-27.5 75v219q0 47 -14 72t-57 25h-39v10h95q84 0 127.5 -38t43.5 -108v-198q0 -38 15.5 -57.5t42 -27t58.5 -8.5v-10q-32 -1 -58.5 -9t-42 -27.5t-15.5 -57.5v-196q0 -68 -43.5 -108
t-127.5 -40h-95z" />
    <glyph glyph-name="asciitilde" unicode="~" horiz-adv-x="559" 
d="M64 277q4 23 10 50t17 52t30 41t49 16q35 0 62 -21t52 -46q26 -26 50.5 -49t54.5 -23q29 0 45.5 22.5t25 55t15.5 61.5h19q-3 -18 -9 -45t-17.5 -53t-31 -43.5t-49.5 -17.5q-37 0 -65 25.5t-54 54.5q-22 25 -45 42t-52 17q-42 0 -58.5 -39t-28.5 -100h-20z" />
    <glyph glyph-name="uni00A0" unicode="&#xa0;" horiz-adv-x="225" 
 />
    <glyph glyph-name="exclamdown" unicode="&#xa1;" horiz-adv-x="382" 
d="M190 382q-28 0 -49.5 17t-21.5 63q0 45 21.5 62.5t49.5 17.5q30 0 50.5 -17.5t20.5 -62.5q0 -46 -20.5 -63t-50.5 -17zM104 -180l79 486h15l80 -486h-174z" />
    <glyph glyph-name="cent" unicode="&#xa2;" horiz-adv-x="559" 
d="M305 0v82q-125 2 -186.5 69t-61.5 207q0 144 61.5 211t186.5 72v73h10v-73q94 -1 148.5 -30.5t54.5 -79.5q0 -19 -10.5 -37.5t-38.5 -30.5t-80 -12q0 99 -15.5 138t-58.5 41v-537q127 0 164 150q16 -3 25 -16t9 -31q0 -26 -21.5 -52.5t-65.5 -44t-111 -17.5v-82h-10z
M305 94v536q-36 -1 -56.5 -26.5t-29.5 -84.5t-9 -160q0 -94 9 -150.5t30 -83.5t56 -31z" />
    <glyph glyph-name="sterling" unicode="&#xa3;" horiz-adv-x="559" 
d="M411 -14q-27 0 -58.5 10t-75.5 27q-29 11 -53.5 18.5t-48.5 7.5q-46 0 -93 -35l-44 -33l-5 8l32 30q52 49 74 106t22 109q0 37 -9 71t-20 67h-108v10h104q-15 42 -29 83t-14 85q0 82 57 128t169 46q69 0 111.5 -16t62.5 -42.5t20 -56.5q0 -39 -32 -60.5t-93 -21.5
q0 103 -21 145t-68 42q-43 0 -63 -31t-20 -86q0 -64 18.5 -115t34.5 -100h167v-10h-163q7 -22 11 -44t4 -45q0 -51 -21 -88t-54 -67t-71 -62l1 -2q50 34 87.5 52t74.5 18q28 0 52.5 -8t47.5 -18q19 -8 38 -14.5t37 -6.5q17 0 34.5 9.5t29.5 36.5l8 -5q-24 -55 -44 -86
t-41 -43.5t-48 -12.5z" />
    <glyph glyph-name="currency" unicode="&#xa4;" horiz-adv-x="559" 
d="M117 146l-51 51l58 58q-29 44 -29 101q0 60 32 104l-60 60l50 50l60 -60q22 14 47.5 22t53.5 8q56 0 101 -31l62 62l50 -51l-61 -62q15 -22 23.5 -48t8.5 -54t-8 -53.5t-22 -47.5l59 -59l-50 -50l-59 59q-22 -15 -49 -23.5t-55 -8.5q-58 0 -103 31zM278 240q50 0 82.5 34
t32.5 82q0 50 -32.5 83.5t-82.5 33.5q-48 0 -81.5 -33.5t-33.5 -83.5q0 -32 15.5 -58.5t41.5 -42t58 -15.5z" />
    <glyph glyph-name="yen" unicode="&#xa5;" horiz-adv-x="559" 
d="M127 0v10h37q18 0 31.5 9t13.5 52v120h-139v10h139v97h-139v10h138l-153 342q-13 30 -22 42t-23 12h-10v10h289v-10h-24q-26 0 -39 -8t-13 -27q0 -25 17 -65l73 -175q13 -31 24 -57t25 -63q11 35 19.5 60t19.5 57l58 166q7 22 11.5 40t4.5 31q0 20 -12.5 30.5t-40.5 10.5
h-29v10h165v-10h-18q-17 0 -30 -16.5t-29 -62.5l-110 -317h138v-10h-140v-97h140v-10h-140v-119q0 -44 12.5 -53t31.5 -9h37v-10h-313z" />
    <glyph glyph-name="brokenbar" unicode="&#xa6;" horiz-adv-x="559" 
d="M269 360v400h20v-400h-20zM269 -240v400h20v-400h-20z" />
    <glyph glyph-name="section" unicode="&#xa7;" horiz-adv-x="544" 
d="M268 -113q-68 0 -109 18t-59 45.5t-18 58.5q0 39 25 62t64 23q0 -99 28 -147.5t94 -48.5q27 0 53 9t42.5 33.5t16.5 69.5q0 34 -15 60.5t-57 55t-123 66.5q-61 29 -92 56.5t-42 53.5t-11 50q0 48 23.5 74t54.5 43q-28 25 -42 55t-14 70q0 83 56.5 124.5t147.5 41.5
q83 0 127.5 -32t44.5 -78q0 -34 -24.5 -55t-70.5 -21q0 87 -23 131t-76 44q-41 0 -66.5 -27t-25.5 -81q0 -33 11.5 -57.5t43.5 -48t91 -50.5q93 -43 138 -83t45 -96q0 -46 -24.5 -75t-52.5 -45q24 -25 36 -54t12 -67q0 -50 -21.5 -90.5t-67.5 -64t-120 -23.5zM411 201
q6 11 9.5 23.5t3.5 28.5q0 23 -10.5 42t-38 39t-79.5 45q-44 22 -80 41.5t-61 39.5q-16 -22 -16 -53q0 -24 13.5 -44t47 -42t94.5 -51q37 -17 66 -34t51 -35z" />
    <glyph glyph-name="dieresis" unicode="&#xa8;" horiz-adv-x="577" 
d="M391 626q-19 0 -34 14t-15 48t15 48t34 14t33.5 -14t14.5 -48t-14.5 -48t-33.5 -14zM185 626q-19 0 -33.5 14t-14.5 48t14.5 48t33.5 14t34 -14t15 -48t-15 -48t-34 -14z" />
    <glyph glyph-name="copyright" unicode="&#xa9;" horiz-adv-x="845" 
d="M422 -10q-80 0 -147 27t-116.5 76.5t-76.5 117t-27 147.5t27 147t76 116t116.5 76.5t147.5 27.5t147.5 -27t117 -76.5t76.5 -117t27 -147.5t-27 -147t-76.5 -116.5t-117 -76.5t-147.5 -27zM424 0q76 0 141 26.5t112.5 75t74 113.5t26.5 143q0 77 -26.5 142.5t-74 113.5
t-112.5 74.5t-143 26.5q-77 0 -142 -26.5t-112.5 -74.5t-74 -113t-26.5 -143q0 -80 27 -145.5t76 -113t114 -73.5t140 -26zM430 124q-106 0 -159 64t-53 170q0 108 57 170t166 62q61 0 101.5 -19.5t40.5 -53.5q0 -24 -20.5 -37.5t-50.5 -13.5q0 58 -22 85.5t-68 27.5
q-64 0 -91.5 -53t-27.5 -168q0 -116 35 -170t100 -54q50 0 84 29t44 82q20 -10 20 -33q0 -20 -18.5 -40.5t-53.5 -34t-84 -13.5z" />
    <glyph glyph-name="ordfeminine" unicode="&#xaa;" horiz-adv-x="420" 
d="M139 380q-51 0 -80.5 24.5t-29.5 65.5q0 48 41.5 71.5t127.5 27.5l45 2v74q0 35 -9.5 49.5t-28.5 14.5q-23 0 -31.5 -21t-8.5 -74q-53 0 -81 10t-28 34q0 32 43.5 46.5t104.5 14.5q76 0 114 -23.5t38 -80.5v-181q0 -22 9.5 -30t33.5 -8v-10h-147v69h-2q-9 -37 -38.5 -56
t-72.5 -19zM192 410q28 0 39.5 23t11.5 52v76l-23 -1q-41 -2 -58.5 -19t-17.5 -57q0 -39 13.5 -56.5t34.5 -17.5z" />
    <glyph glyph-name="guillemotleft" unicode="&#xab;" horiz-adv-x="554" 
d="M474 70l-208 195v10l208 195h15l-101 -200l101 -200h-15zM273 70l-208 195v10l208 195h15l-101 -200l101 -200h-15z" />
    <glyph glyph-name="logicalnot" unicode="&#xac;" horiz-adv-x="559" 
d="M467 120v235h-405v20h425v-255h-20z" />
    <glyph glyph-name="uni00AD" unicode="&#xad;" horiz-adv-x="310" 
d="M25 263v20h260v-20h-260z" />
    <glyph glyph-name="registered" unicode="&#xae;" horiz-adv-x="845" 
d="M422 -10q-80 0 -147 27t-116.5 76.5t-76.5 117t-27 147.5t27 147t76 116t116.5 76.5t147.5 27.5t147.5 -27t117 -76.5t76.5 -117t27 -147.5t-27 -147t-76.5 -116.5t-117 -76.5t-147.5 -27zM424 0q76 0 141 26.5t112.5 75t74 113.5t26.5 143q0 77 -26.5 142.5t-74 113.5
t-112.5 74.5t-143 26.5q-77 0 -142 -26.5t-112.5 -74.5t-74 -113t-26.5 -143q0 -80 27 -145.5t76 -113t114 -73.5t140 -26zM232 141v10h13q19 0 34 6t15 30v346q0 24 -15 30t-34 6h-13v10h183q89 0 132.5 -31.5t43.5 -89.5q0 -50 -28.5 -75t-71.5 -36l101 -158
q14 -22 24.5 -30t19.5 -8v-10h-104l-122 201h-38v-155q0 -24 15 -30t34 -6h14v-10h-203zM372 352h42q51 0 72.5 25t21.5 82q0 61 -22 85.5t-75 24.5h-39v-217z" />
    <glyph glyph-name="overscore" unicode="&#xaf;" horiz-adv-x="459" 
d="M-5 780v20h469v-20h-469z" />
    <glyph glyph-name="degree" unicode="&#xb0;" horiz-adv-x="400" 
d="M199 423q-67 0 -109 41.5t-42 109.5q0 67 42 109.5t109 42.5t109.5 -42.5t42.5 -109.5q0 -68 -42.5 -109.5t-109.5 -41.5zM200 443q57 0 93 36t36 95q0 60 -36.5 96t-92.5 36t-93 -36t-37 -96q0 -59 36.5 -95t93.5 -36z" />
    <glyph glyph-name="plusminus" unicode="&#xb1;" horiz-adv-x="559" 
d="M269 143v204h-204v20h204v205h20v-205h205v-20h-205v-204h-20zM65 25v20h429v-20h-429z" />
    <glyph glyph-name="uni00B2" unicode="&#xb2;" horiz-adv-x="400" 
d="M38 387v72l128 97q37 28 53.5 54.5t21 51t4.5 44.5q0 46 -7.5 69.5t-20.5 31.5t-27 8q-38 0 -46 -36.5t-8 -97.5q-33 0 -61.5 14t-28.5 48q0 35 37 58.5t110 23.5q77 0 113 -29t36 -84q0 -30 -13 -56t-50 -56t-108 -71l-109 -64h236q26 0 37 8.5t13 30.5l2 21h10l-5 -138
h-317z" />
    <glyph glyph-name="uni00B3" unicode="&#xb3;" horiz-adv-x="400" 
d="M165 380q-65 0 -99.5 22.5t-34.5 57.5q0 21 13 36t43 15q0 -121 84 -121q83 0 83 109q0 55 -23.5 80.5t-75.5 25.5h-33v10h33q79 0 79 100q0 57 -12 78t-38 21q-32 0 -41.5 -30.5t-9.5 -91.5q-41 0 -64 9t-23 37q0 34 36.5 60t106.5 26q73 0 112.5 -27.5t39.5 -79.5
q0 -47 -34 -73.5t-105 -30.5v-2q156 -8 156 -104q0 -61 -51.5 -94t-141.5 -33z" />
    <glyph glyph-name="acute" unicode="&#xb4;" horiz-adv-x="294" 
d="M40 606v10q22 32 45 74t39 76h130v-10q-13 -13 -37.5 -32.5t-54 -41t-59 -41.5t-53.5 -35h-10z" />
    <glyph glyph-name="uni00B5" unicode="&#xb5;" horiz-adv-x="665" 
d="M175 -240q-37 0 -65.5 29t-28.5 102q0 40 3 85.5t6 105.5t3 144v310h152v-395q0 -54 18.5 -87t58.5 -33q46 0 68 42.5t22 112.5v360h152v-441q0 -46 17 -65.5t51 -19.5h7v-10h-87q-57 0 -90.5 21.5t-46.5 72.5h-2q-15 -50 -46 -77t-93 -27q-70 0 -114 34t-58 105
q0 -99 15 -160t51 -90t99 -32q0 -37 -24.5 -62t-67.5 -25z" />
    <glyph glyph-name="paragraph" unicode="&#xb6;" horiz-adv-x="627" 
d="M169 -111v10h13q22 0 41 4.5t30 19.5t11 47v416h-71q-59 0 -92 27.5t-47 72t-14 96.5q0 80 35 129t120 49h392v-10h-13q-34 0 -58 -12.5t-24 -59.5v-708q0 -32 11 -47t30 -19.5t41 -4.5h13v-10h-167v861h-84v-861h-167z" />
    <glyph glyph-name="periodcentered" unicode="&#xb7;" horiz-adv-x="294" 
d="M147 275q-30 0 -50.5 17.5t-20.5 62.5q0 46 20.5 63t50.5 17q29 0 50 -17t21 -63q0 -45 -21 -62.5t-50 -17.5z" />
    <glyph glyph-name="cedilla" unicode="&#xb8;" horiz-adv-x="333" 
d="M137 -240q-16 0 -42.5 3t-44.5 8v11q30 -9 53 -9q42 0 63.5 26t21.5 71q0 30 -10 45t-24 20t-25 7l16 67h10l-14 -60q66 0 102 -22.5t36 -64.5q0 -49 -37 -75.5t-105 -26.5z" />
    <glyph glyph-name="uni00B9" unicode="&#xb9;" horiz-adv-x="400" 
d="M63 387v10h51q19 0 32 6.5t13 31.5v325q-19 -32 -37 -50.5t-39 -18.5q-16 0 -26 11.5t-10 31.5q29 0 49.5 5t39 17t40.5 35l28 28h54v-384q0 -25 13.5 -31.5t32.5 -6.5h41v-10h-282z" />
    <glyph glyph-name="ordmasculine" unicode="&#xba;" horiz-adv-x="437" 
d="M218 380q-87 0 -135 42t-48 128q0 169 185 169q84 0 133 -41.5t49 -127.5t-47 -128t-137 -42zM219 390q38 0 52.5 34t14.5 126q0 91 -14.5 125t-53.5 34q-38 0 -52 -34t-14 -125q0 -92 14.5 -126t52.5 -34z" />
    <glyph glyph-name="guillemotright" unicode="&#xbb;" horiz-adv-x="554" 
d="M266 70l101 200l-101 200h15l208 -195v-10l-208 -195h-15zM65 70l101 200l-101 200h15l208 -195v-10l-208 -195h-15z" />
    <glyph glyph-name="onequarter" unicode="&#xbc;" horiz-adv-x="840" 
d="M21 287v10h51q19 0 32 6.5t13 31.5v325q-19 -32 -37 -50.5t-39 -18.5q-16 0 -26 11.5t-10 31.5q29 0 49.5 5t39 17t40.5 35l28 28h54v-384q0 -25 13.5 -31.5t32.5 -6.5h41v-10h-282zM237 0l357 714h11l-357 -714h-11zM575 0v10h28q17 0 29 6.5t12 31.5v69h-190v40
l199 275h90v-262h78v-53h-78v-69q0 -25 12.5 -31.5t29.5 -6.5h20v-10h-230zM476 170h168v163v37.5t1 35.5q-3 -5 -7 -11.5t-8 -11.5z" />
    <glyph glyph-name="onehalf" unicode="&#xbd;" horiz-adv-x="840" 
d="M21 287v10h51q19 0 32 6.5t13 31.5v325q-19 -32 -37 -50.5t-39 -18.5q-16 0 -26 11.5t-10 31.5q29 0 49.5 5t39 17t40.5 35l28 28h54v-384q0 -25 13.5 -31.5t32.5 -6.5h41v-10h-282zM217 0l357 714h11l-357 -714h-11zM492 0v72l128 97q37 28 53.5 54.5t21 51t4.5 44.5
q0 46 -7.5 69.5t-20.5 31.5t-27 8q-38 0 -46 -36.5t-8 -97.5q-33 0 -61.5 14t-28.5 48q0 35 37 58.5t110 23.5q77 0 113 -29t36 -84q0 -30 -13 -56t-50 -56t-108 -71l-109 -64h236q26 0 37 8.5t13 30.5l2 21h10l-5 -138h-317z" />
    <glyph glyph-name="threequarters" unicode="&#xbe;" horiz-adv-x="840" 
d="M165 280q-65 0 -99.5 22.5t-34.5 57.5q0 21 13 36t43 15q0 -121 84 -121q83 0 83 109q0 55 -23.5 80.5t-75.5 25.5h-33v10h33q79 0 79 100q0 57 -12 78t-38 21q-32 0 -41.5 -30.5t-9.5 -91.5q-41 0 -64 9t-23 37q0 34 36.5 60t106.5 26q73 0 112.5 -27.5t39.5 -79.5
q0 -47 -34 -73.5t-105 -30.5v-2q156 -8 156 -104q0 -61 -51.5 -94t-141.5 -33zM257 0l357 714h11l-357 -714h-11zM575 0v10h28q17 0 29 6.5t12 31.5v69h-190v40l199 275h90v-262h78v-53h-78v-69q0 -25 12.5 -31.5t29.5 -6.5h20v-10h-230zM476 170h168v163v37.5t1 35.5
q-3 -5 -7 -11.5t-8 -11.5z" />
    <glyph glyph-name="questiondown" unicode="&#xbf;" horiz-adv-x="550" 
d="M314 304l43 -125q-52 -3 -83 -17t-44.5 -52t-13.5 -114q0 -84 17 -131t63 -47q40 0 59 40.5t19 135.5q62 0 101.5 -17t39.5 -57q0 -44 -52 -78t-153 -34q-115 0 -184 48t-69 141q0 149 199 186l43 121h15zM308 540q30 0 50.5 -17.5t20.5 -62.5q0 -46 -20.5 -63t-50.5 -17
q-28 0 -49.5 17t-21.5 63q0 45 21.5 62.5t49.5 17.5z" />
    <glyph glyph-name="Agrave" unicode="&#xc0;" horiz-adv-x="753" 
d="M4 0v10h41q28 0 44.5 16t31.5 57l231 631h98l224 -632q15 -41 31.5 -56.5t44.5 -15.5h3v-10h-330v10h54q46 0 46 32q0 16 -11 51l-57 168h-258l-57 -155q-8 -20 -12 -35.5t-4 -26.5q0 -19 12 -26.5t37 -7.5h71v-10h-240zM201 271h251l-62 187q-8 24 -18.5 57.5t-20 68
t-15.5 59.5q-8 -24 -19.5 -56.5t-23.5 -65t-21 -56.5zM402 771q-24 15 -53.5 35t-59 41.5t-54 41t-37.5 32.5v10h130q16 -34 39 -76t45 -74v-10h-10z" />
    <glyph glyph-name="Aacute" unicode="&#xc1;" horiz-adv-x="753" 
d="M4 0v10h41q28 0 44.5 16t31.5 57l231 631h98l224 -632q15 -41 31.5 -56.5t44.5 -15.5h3v-10h-330v10h54q46 0 46 32q0 16 -11 51l-57 168h-258l-57 -155q-8 -20 -12 -35.5t-4 -26.5q0 -19 12 -26.5t37 -7.5h71v-10h-240zM201 271h251l-62 187q-8 24 -18.5 57.5t-20 68
t-15.5 59.5q-8 -24 -19.5 -56.5t-23.5 -65t-21 -56.5zM340 771v10q22 32 45 74t39 76h130v-10q-13 -13 -37.5 -32.5t-54 -41t-59 -41.5t-53.5 -35h-10z" />
    <glyph glyph-name="Acircumflex" unicode="&#xc2;" horiz-adv-x="753" 
d="M4 0v10h41q28 0 44.5 16t31.5 57l231 631h98l224 -632q15 -41 31.5 -56.5t44.5 -15.5h3v-10h-330v10h54q46 0 46 32q0 16 -11 51l-57 168h-258l-57 -155q-8 -20 -12 -35.5t-4 -26.5q0 -19 12 -26.5t37 -7.5h71v-10h-240zM201 271h251l-62 187q-8 24 -18.5 57.5t-20 68
t-15.5 59.5q-8 -24 -19.5 -56.5t-23.5 -65t-21 -56.5zM203 771v10q18 19 41.5 45.5t46 54.5t39.5 50h101q17 -22 39.5 -50t45.5 -54.5t42 -45.5v-10h-10q-21 12 -51 28.5t-61 35t-56 36.5q-25 -18 -55.5 -36.5t-60 -35t-51.5 -28.5h-10z" />
    <glyph glyph-name="Atilde" unicode="&#xc3;" horiz-adv-x="753" 
d="M4 0v10h41q28 0 44.5 16t31.5 57l231 631h98l224 -632q15 -41 31.5 -56.5t44.5 -15.5h3v-10h-330v10h54q46 0 46 32q0 16 -11 51l-57 168h-258l-57 -155q-8 -20 -12 -35.5t-4 -26.5q0 -19 12 -26.5t37 -7.5h71v-10h-240zM201 271h251l-62 187q-8 24 -18.5 57.5t-20 68
t-15.5 59.5q-8 -24 -19.5 -56.5t-23.5 -65t-21 -56.5zM450 771q-27 0 -51 11t-47 25.5t-46.5 25.5t-50.5 11q-37 0 -50 -20.5t-17 -42.5h-10q2 40 18.5 74t44 54t61.5 20q27 0 51.5 -11t48 -25.5t47 -25.5t49.5 -11q34 0 48 20.5t18 42.5h10q-2 -42 -18.5 -75.5t-44 -53
t-61.5 -19.5z" />
    <glyph glyph-name="Adieresis" unicode="&#xc4;" horiz-adv-x="753" 
d="M4 0v10h41q28 0 44.5 16t31.5 57l231 631h98l224 -632q15 -41 31.5 -56.5t44.5 -15.5h3v-10h-330v10h54q46 0 46 32q0 16 -11 51l-57 168h-258l-57 -155q-8 -20 -12 -35.5t-4 -26.5q0 -19 12 -26.5t37 -7.5h71v-10h-240zM201 271h251l-62 187q-8 24 -18.5 57.5t-20 68
t-15.5 59.5q-8 -24 -19.5 -56.5t-23.5 -65t-21 -56.5zM478 791q-19 0 -34 14t-15 48t15 48t34 14t33.5 -14t14.5 -48t-14.5 -48t-33.5 -14zM272 791q-19 0 -33.5 14t-14.5 48t14.5 48t33.5 14t34 -14t15 -48t-15 -48t-34 -14z" />
    <glyph glyph-name="Aring" unicode="&#xc5;" horiz-adv-x="753" 
d="M4 0v10h41q28 0 44.5 16t31.5 57l214 585q-64 25 -64 100q0 51 32.5 80t87.5 29t87.5 -29t32.5 -80q0 -62 -47 -92l210 -594q14 -41 31 -56.5t45 -15.5h3v-10h-330v10h54q46 0 46 32q0 16 -11 51l-57 168h-258l-57 -155q-8 -20 -12 -35.5t-4 -26.5q0 -19 12 -26.5
t37 -7.5h71v-10h-240zM391 668q50 0 79.5 27t29.5 73t-29.5 72.5t-79.5 26.5t-79.5 -26.5t-29.5 -72.5t29.5 -73t79.5 -27zM201 271h251l-62 187q-8 24 -18.5 57.5t-20 68t-15.5 59.5q-8 -24 -19.5 -56.5t-23.5 -65t-21 -56.5z" />
    <glyph glyph-name="AE" unicode="&#xc6;" horiz-adv-x="997" 
d="M4 0v10h28q26 0 46.5 19t42.5 59l330 616h-131v10h605l6 -184h-10l-3 34q-7 76 -43.5 108t-116.5 32h-134v-326h237v-10h-237v-358h168q80 0 116.5 32t43.5 109l3 33h10l-7 -184h-586v10h42q21 0 36 10t15 50v184h-243l-82 -152q-8 -16 -12 -30t-4 -23q0 -39 60 -39h40
v-10h-220zM227 264h238v440h-2z" />
    <glyph glyph-name="Ccedilla" unicode="&#xc7;" horiz-adv-x="668" 
d="M401 -10q-116 0 -193 46t-115 128.5t-38 193.5q0 108 38 190.5t115.5 129t195.5 46.5q107 0 165.5 -34t58.5 -83q0 -37 -32 -61.5t-93 -24.5q0 101 -29 147t-93 46q-83 0 -120.5 -84.5t-37.5 -271.5q0 -188 46.5 -272.5t149.5 -84.5q148 0 181 164q27 -11 27 -44
q0 -27 -21 -57.5t-70.5 -52t-134.5 -21.5zM361 -245q-16 0 -42.5 3t-44.5 8v11q30 -9 53 -9q42 0 63.5 26t21.5 71q0 30 -10 45t-24 20t-25 7l16 67h10l-14 -60q66 0 102 -22.5t36 -64.5q0 -49 -37 -75.5t-105 -26.5z" />
    <glyph glyph-name="Egrave" unicode="&#xc8;" horiz-adv-x="653" 
d="M28 0v10h42q21 0 36 10t15 50v569q0 43 -14.5 54t-36.5 11h-42v10h553l6 -184h-10l-3 34q-7 76 -43.5 108t-116.5 32h-134v-326h237v-10h-237v-358h168q80 0 116.5 32t43.5 109l3 33h10l-7 -184h-586zM368 771q-24 15 -53.5 35t-59 41.5t-54 41t-37.5 32.5v10h130
q16 -34 39 -76t45 -74v-10h-10z" />
    <glyph glyph-name="Eacute" unicode="&#xc9;" horiz-adv-x="653" 
d="M28 0v10h42q21 0 36 10t15 50v569q0 43 -14.5 54t-36.5 11h-42v10h553l6 -184h-10l-3 34q-7 76 -43.5 108t-116.5 32h-134v-326h237v-10h-237v-358h168q80 0 116.5 32t43.5 109l3 33h10l-7 -184h-586zM282 771v10q22 32 45 74t39 76h130v-10q-13 -13 -37.5 -32.5t-54 -41
t-59 -41.5t-53.5 -35h-10z" />
    <glyph glyph-name="Ecircumflex" unicode="&#xca;" horiz-adv-x="653" 
d="M28 0v10h42q21 0 36 10t15 50v569q0 43 -14.5 54t-36.5 11h-42v10h553l6 -184h-10l-3 34q-7 76 -43.5 108t-116.5 32h-134v-326h237v-10h-237v-358h168q80 0 116.5 32t43.5 109l3 33h10l-7 -184h-586zM141 771v10q18 19 41.5 45.5t46 54.5t39.5 50h101q17 -22 39.5 -50
t45.5 -54.5t42 -45.5v-10h-10q-21 12 -51 28.5t-61 35t-56 36.5q-25 -18 -55.5 -36.5t-60 -35t-51.5 -28.5h-10z" />
    <glyph glyph-name="Edieresis" unicode="&#xcb;" horiz-adv-x="653" 
d="M28 0v10h42q21 0 36 10t15 50v569q0 43 -14.5 54t-36.5 11h-42v10h553l6 -184h-10l-3 34q-7 76 -43.5 108t-116.5 32h-134v-326h237v-10h-237v-358h168q80 0 116.5 32t43.5 109l3 33h10l-7 -184h-586zM439 791q-19 0 -34 14t-15 48t15 48t34 14t33.5 -14t14.5 -48
t-14.5 -48t-33.5 -14zM233 791q-19 0 -33.5 14t-14.5 48t14.5 48t33.5 14t34 -14t15 -48t-15 -48t-34 -14z" />
    <glyph glyph-name="Igrave" unicode="&#xcc;" horiz-adv-x="401" 
d="M28 0v10h42q22 0 36.5 11t14.5 54v564q0 43 -14.5 54t-36.5 11h-42v10h345v-10h-42q-22 0 -36.5 -11t-14.5 -54v-564q0 -43 14.5 -54t36.5 -11h42v-10h-345zM241 771q-24 15 -53.5 35t-59 41.5t-54 41t-37.5 32.5v10h130q16 -34 39 -76t45 -74v-10h-10z" />
    <glyph glyph-name="Iacute" unicode="&#xcd;" horiz-adv-x="401" 
d="M28 0v10h42q22 0 36.5 11t14.5 54v564q0 43 -14.5 54t-36.5 11h-42v10h345v-10h-42q-22 0 -36.5 -11t-14.5 -54v-564q0 -43 14.5 -54t36.5 -11h42v-10h-345zM150 771v10q22 32 45 74t39 76h130v-10q-13 -13 -37.5 -32.5t-54 -41t-59 -41.5t-53.5 -35h-10z" />
    <glyph glyph-name="Icircumflex" unicode="&#xce;" horiz-adv-x="401" 
d="M28 0v10h42q22 0 36.5 11t14.5 54v564q0 43 -14.5 54t-36.5 11h-42v10h345v-10h-42q-22 0 -36.5 -11t-14.5 -54v-564q0 -43 14.5 -54t36.5 -11h42v-10h-345zM23 771v10q18 19 41.5 45.5t46 54.5t39.5 50h101q17 -22 39.5 -50t45.5 -54.5t42 -45.5v-10h-10
q-21 12 -51 28.5t-61 35t-56 36.5q-25 -18 -55.5 -36.5t-60 -35t-51.5 -28.5h-10z" />
    <glyph glyph-name="Idieresis" unicode="&#xcf;" horiz-adv-x="401" 
d="M28 0v10h42q22 0 36.5 11t14.5 54v564q0 43 -14.5 54t-36.5 11h-42v10h345v-10h-42q-22 0 -36.5 -11t-14.5 -54v-564q0 -43 14.5 -54t36.5 -11h42v-10h-345zM303 791q-19 0 -34 14t-15 48t15 48t34 14t33.5 -14t14.5 -48t-14.5 -48t-33.5 -14zM97 791q-19 0 -33.5 14
t-14.5 48t14.5 48t33.5 14t34 -14t15 -48t-15 -48t-34 -14z" />
    <glyph glyph-name="Eth" unicode="&#xd0;" horiz-adv-x="767" 
d="M28 0v10h42q22 0 36.5 11t14.5 54v294h-83v10h83v264q0 40 -15 50.5t-36 10.5h-42v10h330q166 0 260 -87t94 -257q0 -110 -40 -193t-119 -130t-195 -47h-330zM279 10h56q75 0 121 36t66.5 115.5t20.5 208.5q0 120 -20.5 193.5t-66.5 107t-120 33.5h-57v-325h125v-10h-125
v-359z" />
    <glyph glyph-name="Ntilde" unicode="&#xd1;" horiz-adv-x="788" 
d="M28 0v10h62q21 0 36 11t15 54v568q0 40 -15.5 50.5t-35.5 10.5h-62v10h254l354 -539v468q0 40 -15.5 50.5t-35.5 10.5h-75v10h261v-10h-74q-21 0 -36 -11t-15 -54v-639h-60l-435 662v-587q0 -43 15 -54t36 -11h87v-10h-261zM477 771q-27 0 -51 11t-47 25.5t-46.5 25.5
t-50.5 11q-37 0 -50 -20.5t-17 -42.5h-10q2 40 18.5 74t44 54t61.5 20q27 0 51.5 -11t48 -25.5t47 -25.5t49.5 -11q34 0 48 20.5t18 42.5h10q-2 -42 -18.5 -75.5t-44 -53t-61.5 -19.5z" />
    <glyph glyph-name="Ograve" unicode="&#xd2;" horiz-adv-x="787" 
d="M394 -10q-114 0 -189 46t-112.5 129t-37.5 194t37.5 193t112.5 127.5t190 45.5q108 0 183.5 -45.5t114.5 -128t39 -193.5t-39.5 -193.5t-115 -128.5t-183.5 -46zM394 0q89 0 129.5 85t40.5 273t-40 272.5t-129 84.5q-90 0 -131 -84.5t-41 -272.5t40.5 -273t130.5 -85z
M429 771q-24 15 -53.5 35t-59 41.5t-54 41t-37.5 32.5v10h130q16 -34 39 -76t45 -74v-10h-10z" />
    <glyph glyph-name="Oacute" unicode="&#xd3;" horiz-adv-x="787" 
d="M394 -10q-114 0 -189 46t-112.5 129t-37.5 194t37.5 193t112.5 127.5t190 45.5q108 0 183.5 -45.5t114.5 -128t39 -193.5t-39.5 -193.5t-115 -128.5t-183.5 -46zM394 0q89 0 129.5 85t40.5 273t-40 272.5t-129 84.5q-90 0 -131 -84.5t-41 -272.5t40.5 -273t130.5 -85z
M352 771v10q22 32 45 74t39 76h130v-10q-13 -13 -37.5 -32.5t-54 -41t-59 -41.5t-53.5 -35h-10z" />
    <glyph glyph-name="Ocircumflex" unicode="&#xd4;" horiz-adv-x="787" 
d="M394 -10q-114 0 -189 46t-112.5 129t-37.5 194t37.5 193t112.5 127.5t190 45.5q108 0 183.5 -45.5t114.5 -128t39 -193.5t-39.5 -193.5t-115 -128.5t-183.5 -46zM394 0q89 0 129.5 85t40.5 273t-40 272.5t-129 84.5q-90 0 -131 -84.5t-41 -272.5t40.5 -273t130.5 -85z
M215 771v10q18 19 41.5 45.5t46 54.5t39.5 50h101q17 -22 39.5 -50t45.5 -54.5t42 -45.5v-10h-10q-21 12 -51 28.5t-61 35t-56 36.5q-25 -18 -55.5 -36.5t-60 -35t-51.5 -28.5h-10z" />
    <glyph glyph-name="Otilde" unicode="&#xd5;" horiz-adv-x="787" 
d="M394 -10q-114 0 -189 46t-112.5 129t-37.5 194t37.5 193t112.5 127.5t190 45.5q108 0 183.5 -45.5t114.5 -128t39 -193.5t-39.5 -193.5t-115 -128.5t-183.5 -46zM394 0q89 0 129.5 85t40.5 273t-40 272.5t-129 84.5q-90 0 -131 -84.5t-41 -272.5t40.5 -273t130.5 -85z
M466 771q-27 0 -51 11t-47 25.5t-46.5 25.5t-50.5 11q-37 0 -50 -20.5t-17 -42.5h-10q2 40 18.5 74t44 54t61.5 20q27 0 51.5 -11t48 -25.5t47 -25.5t49.5 -11q34 0 48 20.5t18 42.5h10q-2 -42 -18.5 -75.5t-44 -53t-61.5 -19.5z" />
    <glyph glyph-name="Odieresis" unicode="&#xd6;" horiz-adv-x="787" 
d="M394 -10q-114 0 -189 46t-112.5 129t-37.5 194t37.5 193t112.5 127.5t190 45.5q108 0 183.5 -45.5t114.5 -128t39 -193.5t-39.5 -193.5t-115 -128.5t-183.5 -46zM394 0q89 0 129.5 85t40.5 273t-40 272.5t-129 84.5q-90 0 -131 -84.5t-41 -272.5t40.5 -273t130.5 -85z
M491 791q-19 0 -34 14t-15 48t15 48t34 14t33.5 -14t14.5 -48t-14.5 -48t-33.5 -14zM285 791q-19 0 -33.5 14t-14.5 48t14.5 48t33.5 14t34 -14t15 -48t-15 -48t-34 -14z" />
    <glyph glyph-name="multiply" unicode="&#xd7;" horiz-adv-x="559" 
d="M82 145l-14 14l198 198l-198 198l14 14l198 -198l197 198l14 -14l-198 -198l198 -198l-14 -14l-197 198z" />
    <glyph glyph-name="Oslash" unicode="&#xd8;" horiz-adv-x="787" 
d="M175 -40l38 71q-79 44 -118.5 129t-39.5 199q0 111 37.5 193t112.5 127.5t190 45.5q49 0 92 -10t79 -29l37 69h11l-40 -74q77 -43 117.5 -127t40.5 -196q0 -111 -39.5 -193.5t-115 -128.5t-183.5 -46q-51 0 -94 9.5t-78 27.5l-36 -67h-11zM254 107l275 511
q-40 97 -134 97q-90 0 -131 -84.5t-41 -272.5q0 -165 31 -251zM394 0q89 0 129.5 85t40.5 273q0 161 -30 248l-275 -511q39 -95 135 -95z" />
    <glyph glyph-name="Ugrave" unicode="&#xd9;" horiz-adv-x="747" 
d="M387 -10q-131 0 -204 52.5t-73 175.5v425q0 40 -15.5 50.5t-35.5 10.5h-43v10h345v-10h-42q-21 0 -36 -11t-15 -54v-485q0 -84 40.5 -116.5t108.5 -32.5q95 0 147.5 53.5t52.5 147.5v437q0 40 -15 50.5t-36 10.5h-62v10h227v-10h-53q-21 0 -36 -11t-15 -54v-433
q0 -107 -62 -161.5t-178 -54.5zM429 771q-24 15 -53.5 35t-59 41.5t-54 41t-37.5 32.5v10h130q16 -34 39 -76t45 -74v-10h-10z" />
    <glyph glyph-name="Uacute" unicode="&#xda;" horiz-adv-x="747" 
d="M387 -10q-131 0 -204 52.5t-73 175.5v425q0 40 -15.5 50.5t-35.5 10.5h-43v10h345v-10h-42q-21 0 -36 -11t-15 -54v-485q0 -84 40.5 -116.5t108.5 -32.5q95 0 147.5 53.5t52.5 147.5v437q0 40 -15 50.5t-36 10.5h-62v10h227v-10h-53q-21 0 -36 -11t-15 -54v-433
q0 -107 -62 -161.5t-178 -54.5zM341 771v10q22 32 45 74t39 76h130v-10q-13 -13 -37.5 -32.5t-54 -41t-59 -41.5t-53.5 -35h-10z" />
    <glyph glyph-name="Ucircumflex" unicode="&#xdb;" horiz-adv-x="747" 
d="M387 -10q-131 0 -204 52.5t-73 175.5v425q0 40 -15.5 50.5t-35.5 10.5h-43v10h345v-10h-42q-21 0 -36 -11t-15 -54v-485q0 -84 40.5 -116.5t108.5 -32.5q95 0 147.5 53.5t52.5 147.5v437q0 40 -15 50.5t-36 10.5h-62v10h227v-10h-53q-21 0 -36 -11t-15 -54v-433
q0 -107 -62 -161.5t-178 -54.5zM222 771v10q18 19 41.5 45.5t46 54.5t39.5 50h101q17 -22 39.5 -50t45.5 -54.5t42 -45.5v-10h-10q-21 12 -51 28.5t-61 35t-56 36.5q-25 -18 -55.5 -36.5t-60 -35t-51.5 -28.5h-10z" />
    <glyph glyph-name="Udieresis" unicode="&#xdc;" horiz-adv-x="747" 
d="M387 -10q-131 0 -204 52.5t-73 175.5v425q0 40 -15.5 50.5t-35.5 10.5h-43v10h345v-10h-42q-21 0 -36 -11t-15 -54v-485q0 -84 40.5 -116.5t108.5 -32.5q95 0 147.5 53.5t52.5 147.5v437q0 40 -15 50.5t-36 10.5h-62v10h227v-10h-53q-21 0 -36 -11t-15 -54v-433
q0 -107 -62 -161.5t-178 -54.5zM506 791q-19 0 -34 14t-15 48t15 48t34 14t33.5 -14t14.5 -48t-14.5 -48t-33.5 -14zM300 791q-19 0 -33.5 14t-14.5 48t14.5 48t33.5 14t34 -14t15 -48t-15 -48t-34 -14z" />
    <glyph glyph-name="Yacute" unicode="&#xdd;" horiz-adv-x="693" 
d="M164 0v10h47q24 0 41 9t17 52v204l-198 376q-16 30 -28.5 41.5t-30.5 11.5h-12v10h335v-10h-30q-34 0 -50 -8t-16 -27q0 -23 21 -65l102 -200q17 -33 31 -59.5t29 -58.5q16 38 32.5 74.5t32.5 70.5l75 163q10 23 16 40t6 30q0 22 -17.5 31t-54.5 9h-71v10h252v-10h-29
q-22 0 -38.5 -17t-37.5 -62l-160 -347v-206q0 -44 16.5 -53t39.5 -9h49v-10h-369zM321 771v10q22 32 45 74t39 76h130v-10q-13 -13 -37.5 -32.5t-54 -41t-59 -41.5t-53.5 -35h-10z" />
    <glyph glyph-name="Thorn" unicode="&#xde;" horiz-adv-x="638" 
d="M28 0v10h42q22 0 36.5 11t14.5 54v564q0 43 -14.5 54t-36.5 11h-42v10h345v-10h-41q-21 0 -37 -10t-16 -50v-61h54q139 0 207 -57t68 -155q0 -60 -29 -112.5t-93.5 -84.5t-172.5 -32h-34v-72q0 -40 16 -50t37 -10h41v-10h-345zM279 152h24q72 0 104.5 51t32.5 164
q0 108 -29 157t-93 49h-39v-421z" />
    <glyph glyph-name="germandbls" unicode="&#xdf;" horiz-adv-x="706" 
d="M467 -10q-88 0 -135 32t-47 81q0 29 13 44t32.5 20.5t36.5 5.5q0 -95 25.5 -134t75.5 -39q42 0 68.5 24t26.5 70q0 42 -18 66t-46 39t-59 30q-32 15 -61.5 34.5t-48.5 50t-19 78.5q0 68 45.5 104t116.5 40q-1 84 -14 133t-37.5 70t-58.5 21q-51 0 -81.5 -34t-30.5 -107
v-619h-245v10h43q21 0 36 11t15 54v451h-80v10h80v10q0 84 34.5 133t93 70t132.5 21q125 0 186.5 -61t68.5 -183h-86q-23 0 -46.5 -7.5t-39.5 -26t-16 -53.5q0 -43 26.5 -63.5t64.5 -39.5q33 -16 67.5 -36.5t57.5 -54t23 -89.5q0 -80 -50 -123t-149 -43z" />
    <glyph glyph-name="agrave" unicode="&#xe0;" horiz-adv-x="599" 
d="M205 -10q-75 0 -117.5 42.5t-42.5 113.5q0 77 55.5 111t168.5 38l82 3v127q0 65 -13.5 89.5t-47.5 24.5q-40 0 -54 -34t-14 -125q-67 0 -101 15t-34 53q0 36 28 58t74.5 32.5t103.5 10.5q105 0 157.5 -38t52.5 -132v-298q0 -41 13 -56t47 -15h4v-10h-214v101h-2
q-19 -65 -58.5 -88t-87.5 -23zM256 18q29 0 50.5 22t33 57t11.5 74v117l-45 -2q-60 -3 -83 -34.5t-23 -102.5q0 -73 14 -102t42 -29zM333 606q-24 15 -53.5 35t-59 41.5t-54 41t-37.5 32.5v10h130q16 -34 39 -76t45 -74v-10h-10z" />
    <glyph glyph-name="aacute" unicode="&#xe1;" horiz-adv-x="599" 
d="M205 -10q-75 0 -117.5 42.5t-42.5 113.5q0 77 55.5 111t168.5 38l82 3v127q0 65 -13.5 89.5t-47.5 24.5q-40 0 -54 -34t-14 -125q-67 0 -101 15t-34 53q0 36 28 58t74.5 32.5t103.5 10.5q105 0 157.5 -38t52.5 -132v-298q0 -41 13 -56t47 -15h4v-10h-214v101h-2
q-19 -65 -58.5 -88t-87.5 -23zM256 18q29 0 50.5 22t33 57t11.5 74v117l-45 -2q-60 -3 -83 -34.5t-23 -102.5q0 -73 14 -102t42 -29zM255 606v10q22 32 45 74t39 76h130v-10q-13 -13 -37.5 -32.5t-54 -41t-59 -41.5t-53.5 -35h-10z" />
    <glyph glyph-name="acircumflex" unicode="&#xe2;" horiz-adv-x="599" 
d="M205 -10q-75 0 -117.5 42.5t-42.5 113.5q0 77 55.5 111t168.5 38l82 3v127q0 65 -13.5 89.5t-47.5 24.5q-40 0 -54 -34t-14 -125q-67 0 -101 15t-34 53q0 36 28 58t74.5 32.5t103.5 10.5q105 0 157.5 -38t52.5 -132v-298q0 -41 13 -56t47 -15h4v-10h-214v101h-2
q-19 -65 -58.5 -88t-87.5 -23zM256 18q29 0 50.5 22t33 57t11.5 74v117l-45 -2q-60 -3 -83 -34.5t-23 -102.5q0 -73 14 -102t42 -29zM125 606v10q18 19 41.5 45.5t46 54.5t39.5 50h101q17 -22 39.5 -50t45.5 -54.5t42 -45.5v-10h-10q-21 12 -51 28.5t-61 35t-56 36.5
q-25 -18 -55.5 -36.5t-60 -35t-51.5 -28.5h-10z" />
    <glyph glyph-name="atilde" unicode="&#xe3;" horiz-adv-x="599" 
d="M205 -10q-75 0 -117.5 42.5t-42.5 113.5q0 77 55.5 111t168.5 38l82 3v127q0 65 -13.5 89.5t-47.5 24.5q-40 0 -54 -34t-14 -125q-67 0 -101 15t-34 53q0 36 28 58t74.5 32.5t103.5 10.5q105 0 157.5 -38t52.5 -132v-298q0 -41 13 -56t47 -15h4v-10h-214v101h-2
q-19 -65 -58.5 -88t-87.5 -23zM256 18q29 0 50.5 22t33 57t11.5 74v117l-45 -2q-60 -3 -83 -34.5t-23 -102.5q0 -73 14 -102t42 -29zM375 606q-27 0 -51 11t-47 25.5t-46.5 25.5t-50.5 11q-37 0 -50 -20.5t-17 -42.5h-10q2 40 18.5 74t44 54t61.5 20q27 0 51.5 -11t48 -25.5
t47 -25.5t49.5 -11q34 0 48 20.5t18 42.5h10q-2 -42 -18.5 -75.5t-44 -53t-61.5 -19.5z" />
    <glyph glyph-name="adieresis" unicode="&#xe4;" horiz-adv-x="599" 
d="M205 -10q-75 0 -117.5 42.5t-42.5 113.5q0 77 55.5 111t168.5 38l82 3v127q0 65 -13.5 89.5t-47.5 24.5q-40 0 -54 -34t-14 -125q-67 0 -101 15t-34 53q0 36 28 58t74.5 32.5t103.5 10.5q105 0 157.5 -38t52.5 -132v-298q0 -41 13 -56t47 -15h4v-10h-214v101h-2
q-19 -65 -58.5 -88t-87.5 -23zM256 18q29 0 50.5 22t33 57t11.5 74v117l-45 -2q-60 -3 -83 -34.5t-23 -102.5q0 -73 14 -102t42 -29zM401 626q-19 0 -34 14t-15 48t15 48t34 14t33.5 -14t14.5 -48t-14.5 -48t-33.5 -14zM195 626q-19 0 -33.5 14t-14.5 48t14.5 48t33.5 14
t34 -14t15 -48t-15 -48t-34 -14z" />
    <glyph glyph-name="aring" unicode="&#xe5;" horiz-adv-x="599" 
d="M205 -10q-75 0 -117.5 42.5t-42.5 113.5q0 77 55.5 111t168.5 38l82 3v127q0 65 -13.5 89.5t-47.5 24.5q-40 0 -54 -34t-14 -125q-67 0 -101 15t-34 53q0 36 28 58t74.5 32.5t103.5 10.5q105 0 157.5 -38t52.5 -132v-298q0 -41 13 -56t47 -15h4v-10h-214v101h-2
q-19 -65 -58.5 -88t-87.5 -23zM256 18q29 0 50.5 22t33 57t11.5 74v117l-45 -2q-60 -3 -83 -34.5t-23 -102.5q0 -73 14 -102t42 -29zM302 596q-50 0 -85 28t-35 81t35 81t85 28t85 -28t35 -81t-35 -81t-85 -28zM302 606q48 0 78 25t30 74t-30 74t-78 25t-78 -25t-30 -74
t30 -74t78 -25z" />
    <glyph glyph-name="ae" unicode="&#xe6;" horiz-adv-x="875" 
d="M219 -10q-87 0 -130.5 42.5t-43.5 113.5q0 77 55.5 111t168.5 38l82 3v127q0 65 -13.5 89.5t-47.5 24.5q-40 0 -54 -34t-14 -125q-67 0 -101 15t-34 53q0 36 28 58t74.5 32.5t103.5 10.5q103 0 156 -47q55 47 150 47q109 0 171.5 -61t62.5 -180v-24h-328
q0 -152 31 -217.5t102 -65.5q52 0 89.5 34.5t47.5 116.5q20 -4 28.5 -17t8.5 -30q0 -29 -22 -55t-65.5 -43t-109.5 -17q-93 0 -148 38t-78 108q-19 -81 -60.5 -113.5t-109.5 -32.5zM505 294h176q0 90 -7 144t-25 77.5t-50 23.5q-49 0 -71 -54.5t-23 -190.5zM267 10
q84 0 84 121v157l-45 -2q-60 -3 -83 -34.5t-23 -102.5q0 -77 15 -108t52 -31z" />
    <glyph glyph-name="ccedilla" unicode="&#xe7;" horiz-adv-x="527" 
d="M296 -10q-74 0 -130.5 26.5t-87.5 87t-31 162.5q0 108 32 169.5t88.5 87.5t129.5 26q91 0 142 -30t51 -78q0 -19 -10.5 -38t-38.5 -31.5t-80 -12.5q0 69 -6.5 108t-21.5 55.5t-42 16.5q-33 0 -53 -25t-28.5 -84.5t-8.5 -162.5q0 -144 28.5 -205t95.5 -61q52 0 88.5 33.5
t46.5 116.5q16 -5 25 -19t9 -32q0 -25 -21 -50.5t-64.5 -42.5t-112.5 -17zM262 -240q-16 0 -42.5 3t-44.5 8v11q30 -9 53 -9q42 0 63.5 26t21.5 71q0 30 -10 45t-24 20t-25 7l16 67h10l-14 -60q66 0 102 -22.5t36 -64.5q0 -49 -37 -75.5t-105 -26.5z" />
    <glyph glyph-name="egrave" unicode="&#xe8;" horiz-adv-x="571" 
d="M311 -10q-130 0 -197 72t-67 203q0 141 64.5 212.5t183.5 71.5q109 0 171.5 -61t62.5 -180v-24h-328q0 -152 31 -217.5t102 -65.5q52 0 89.5 34.5t47.5 116.5q20 -4 28.5 -17t8.5 -30q0 -29 -22 -55t-65.5 -43t-109.5 -17zM201 294h176q0 90 -7 144t-25 77.5t-50 23.5
q-49 0 -71 -54.5t-23 -190.5zM345 606q-24 15 -53.5 35t-59 41.5t-54 41t-37.5 32.5v10h130q16 -34 39 -76t45 -74v-10h-10z" />
    <glyph glyph-name="eacute" unicode="&#xe9;" horiz-adv-x="571" 
d="M311 -10q-130 0 -197 72t-67 203q0 141 64.5 212.5t183.5 71.5q109 0 171.5 -61t62.5 -180v-24h-328q0 -152 31 -217.5t102 -65.5q52 0 89.5 34.5t47.5 116.5q20 -4 28.5 -17t8.5 -30q0 -29 -22 -55t-65.5 -43t-109.5 -17zM201 294h176q0 90 -7 144t-25 77.5t-50 23.5
q-49 0 -71 -54.5t-23 -190.5zM258 606v10q22 32 45 74t39 76h130v-10q-13 -13 -37.5 -32.5t-54 -41t-59 -41.5t-53.5 -35h-10z" />
    <glyph glyph-name="ecircumflex" unicode="&#xea;" horiz-adv-x="571" 
d="M311 -10q-130 0 -197 72t-67 203q0 141 64.5 212.5t183.5 71.5q109 0 171.5 -61t62.5 -180v-24h-328q0 -152 31 -217.5t102 -65.5q52 0 89.5 34.5t47.5 116.5q20 -4 28.5 -17t8.5 -30q0 -29 -22 -55t-65.5 -43t-109.5 -17zM201 294h176q0 90 -7 144t-25 77.5t-50 23.5
q-49 0 -71 -54.5t-23 -190.5zM124 606v10q18 19 41.5 45.5t46 54.5t39.5 50h101q17 -22 39.5 -50t45.5 -54.5t42 -45.5v-10h-10q-21 12 -51 28.5t-61 35t-56 36.5q-25 -18 -55.5 -36.5t-60 -35t-51.5 -28.5h-10z" />
    <glyph glyph-name="edieresis" unicode="&#xeb;" horiz-adv-x="571" 
d="M311 -10q-130 0 -197 72t-67 203q0 141 64.5 212.5t183.5 71.5q109 0 171.5 -61t62.5 -180v-24h-328q0 -152 31 -217.5t102 -65.5q52 0 89.5 34.5t47.5 116.5q20 -4 28.5 -17t8.5 -30q0 -29 -22 -55t-65.5 -43t-109.5 -17zM201 294h176q0 90 -7 144t-25 77.5t-50 23.5
q-49 0 -71 -54.5t-23 -190.5zM402 626q-19 0 -34 14t-15 48t15 48t34 14t33.5 -14t14.5 -48t-14.5 -48t-33.5 -14zM196 626q-19 0 -33.5 14t-14.5 48t14.5 48t33.5 14t34 -14t15 -48t-15 -48t-34 -14z" />
    <glyph glyph-name="igrave" unicode="&#xec;" horiz-adv-x="352" 
d="M17 0v10h12q15 0 31.5 4.5t28 18t11.5 42.5v390q0 27 -12 40t-28.5 17t-30.5 4h-12v10h235v-461q0 -29 11.5 -42.5t28 -18t31.5 -4.5h12v-10h-318zM212 606q-24 15 -53.5 35t-59 41.5t-54 41t-37.5 32.5v10h130q16 -34 39 -76t45 -74v-10h-10z" />
    <glyph glyph-name="iacute" unicode="&#xed;" horiz-adv-x="352" 
d="M17 0v10h12q15 0 31.5 4.5t28 18t11.5 42.5v390q0 27 -12 40t-28.5 17t-30.5 4h-12v10h235v-461q0 -29 11.5 -42.5t28 -18t31.5 -4.5h12v-10h-318zM125 606v10q22 32 45 74t39 76h130v-10q-13 -13 -37.5 -32.5t-54 -41t-59 -41.5t-53.5 -35h-10z" />
    <glyph glyph-name="icircumflex" unicode="&#xee;" horiz-adv-x="352" 
d="M17 0v10h12q15 0 31.5 4.5t28 18t11.5 42.5v390q0 27 -12 40t-28.5 17t-30.5 4h-12v10h235v-461q0 -29 11.5 -42.5t28 -18t31.5 -4.5h12v-10h-318zM-15 606v10q18 19 41.5 45.5t46 54.5t39.5 50h101q17 -22 39.5 -50t45.5 -54.5t42 -45.5v-10h-10q-21 12 -51 28.5t-61 35
t-56 36.5q-25 -18 -55.5 -36.5t-60 -35t-51.5 -28.5h-10z" />
    <glyph glyph-name="idieresis" unicode="&#xef;" horiz-adv-x="352" 
d="M17 0v10h12q15 0 31.5 4.5t28 18t11.5 42.5v390q0 27 -12 40t-28.5 17t-30.5 4h-12v10h235v-461q0 -29 11.5 -42.5t28 -18t31.5 -4.5h12v-10h-318zM264 626q-19 0 -34 14t-15 48t15 48t34 14t33.5 -14t14.5 -48t-14.5 -48t-33.5 -14zM58 626q-19 0 -33.5 14t-14.5 48
t14.5 48t33.5 14t34 -14t15 -48t-15 -48t-34 -14z" />
    <glyph glyph-name="eth" unicode="&#xf0;" horiz-adv-x="613" 
d="M304 -10q-119 0 -188 65.5t-69 199.5q0 133 62.5 198.5t178.5 65.5q33 0 65.5 -11.5t53.5 -45.5q-21 116 -85 189l-151 -77v11l144 74q-69 73 -173 91v11q125 -15 220 -78l102 52v-11l-93 -48q91 -63 143 -163t52 -222q0 -152 -67 -226.5t-195 -74.5zM307 0q40 0 63 23.5
t32.5 79t9.5 151.5q0 135 -24.5 194.5t-81.5 59.5q-40 0 -62.5 -24t-32 -80t-9.5 -150q0 -96 9.5 -151.5t32.5 -79t63 -23.5z" />
    <glyph glyph-name="ntilde" unicode="&#xf1;" horiz-adv-x="667" 
d="M17 0v10h12q15 0 31.5 4.5t28 18t11.5 42.5v390q0 27 -12 40t-28.5 17t-30.5 4h-12v10h235v-91h2q12 45 34 67t51 29.5t58 7.5q88 0 131 -46t43 -147v-275q0 -47 16.5 -59t50.5 -12h3v-10h-222v389q0 65 -17.5 97.5t-57.5 32.5q-53 0 -72.5 -53t-19.5 -137v-254
q0 -29 11.5 -42.5t28 -18t31.5 -4.5h12v-10h-318zM401 606q-27 0 -51 11t-47 25.5t-46.5 25.5t-50.5 11q-37 0 -50 -20.5t-17 -42.5h-10q2 40 18.5 74t44 54t61.5 20q27 0 51.5 -11t48 -25.5t47 -25.5t49.5 -11q34 0 48 20.5t18 42.5h10q-2 -42 -18.5 -75.5t-44 -53
t-61.5 -19.5z" />
    <glyph glyph-name="ograve" unicode="&#xf2;" horiz-adv-x="613" 
d="M305 -10q-120 0 -189 69.5t-69 210.5t66 210t195 69q120 0 189 -69t69 -210t-66.5 -210.5t-194.5 -69.5zM307 0q39 0 61.5 26t32.5 85t10 159t-10 158.5t-33 84.5t-62 26q-38 0 -61 -26t-33 -84.5t-10 -158.5t10 -159t33 -85t62 -26zM333 606q-24 15 -53.5 35t-59 41.5
t-54 41t-37.5 32.5v10h130q16 -34 39 -76t45 -74v-10h-10z" />
    <glyph glyph-name="oacute" unicode="&#xf3;" horiz-adv-x="613" 
d="M305 -10q-120 0 -189 69.5t-69 210.5t66 210t195 69q120 0 189 -69t69 -210t-66.5 -210.5t-194.5 -69.5zM307 0q39 0 61.5 26t32.5 85t10 159t-10 158.5t-33 84.5t-62 26q-38 0 -61 -26t-33 -84.5t-10 -158.5t10 -159t33 -85t62 -26zM273 606v10q22 32 45 74t39 76h130
v-10q-13 -13 -37.5 -32.5t-54 -41t-59 -41.5t-53.5 -35h-10z" />
    <glyph glyph-name="ocircumflex" unicode="&#xf4;" horiz-adv-x="613" 
d="M305 -10q-120 0 -189 69.5t-69 210.5t66 210t195 69q120 0 189 -69t69 -210t-66.5 -210.5t-194.5 -69.5zM307 0q39 0 61.5 26t32.5 85t10 159t-10 158.5t-33 84.5t-62 26q-38 0 -61 -26t-33 -84.5t-10 -158.5t10 -159t33 -85t62 -26zM128 606v10q18 19 41.5 45.5t46 54.5
t39.5 50h101q17 -22 39.5 -50t45.5 -54.5t42 -45.5v-10h-10q-21 12 -51 28.5t-61 35t-56 36.5q-25 -18 -55.5 -36.5t-60 -35t-51.5 -28.5h-10z" />
    <glyph glyph-name="otilde" unicode="&#xf5;" horiz-adv-x="613" 
d="M305 -10q-120 0 -189 69.5t-69 210.5t66 210t195 69q120 0 189 -69t69 -210t-66.5 -210.5t-194.5 -69.5zM307 0q39 0 61.5 26t32.5 85t10 159t-10 158.5t-33 84.5t-62 26q-38 0 -61 -26t-33 -84.5t-10 -158.5t10 -159t33 -85t62 -26zM378 606q-27 0 -51 11t-47 25.5
t-46.5 25.5t-50.5 11q-37 0 -50 -20.5t-17 -42.5h-10q2 40 18.5 74t44 54t61.5 20q27 0 51.5 -11t48 -25.5t47 -25.5t49.5 -11q34 0 48 20.5t18 42.5h10q-2 -42 -18.5 -75.5t-44 -53t-61.5 -19.5z" />
    <glyph glyph-name="odieresis" unicode="&#xf6;" horiz-adv-x="613" 
d="M305 -10q-120 0 -189 69.5t-69 210.5t66 210t195 69q120 0 189 -69t69 -210t-66.5 -210.5t-194.5 -69.5zM307 0q39 0 61.5 26t32.5 85t10 159t-10 158.5t-33 84.5t-62 26q-38 0 -61 -26t-33 -84.5t-10 -158.5t10 -159t33 -85t62 -26zM408 626q-19 0 -34 14t-15 48t15 48
t34 14t33.5 -14t14.5 -48t-14.5 -48t-33.5 -14zM202 626q-19 0 -33.5 14t-14.5 48t14.5 48t33.5 14t34 -14t15 -48t-15 -48t-34 -14z" />
    <glyph glyph-name="divide" unicode="&#xf7;" horiz-adv-x="559" 
d="M280 486q-17 0 -29 9.5t-12 33.5t12 33t29 9q16 0 28.5 -9t12.5 -33t-12.5 -33.5t-28.5 -9.5zM65 347v20h429v-20h-429zM280 144q-17 0 -29 9.5t-12 32.5q0 25 12 34t29 9q16 0 28.5 -9t12.5 -34q0 -23 -12.5 -32.5t-28.5 -9.5z" />
    <glyph glyph-name="oslash" unicode="&#xf8;" horiz-adv-x="613" 
d="M114 -40l42 67q-52 33 -80.5 93.5t-28.5 149.5q0 141 66 210t195 69q87 0 147 -36l39 63h12l-42 -68q49 -33 75.5 -92.5t26.5 -145.5q0 -141 -66.5 -210.5t-194.5 -69.5q-82 0 -141 32l-38 -62h-12zM211 117l190 309q-10 61 -33 87t-62 26q-38 0 -61 -26t-33 -84.5
t-10 -158.5q0 -94 9 -153zM307 0q39 0 61.5 26t32.5 85t10 159q0 43 -1.5 77.5t-5.5 62.5l-190 -308q10 -55 33 -78.5t60 -23.5z" />
    <glyph glyph-name="ugrave" unicode="&#xf9;" horiz-adv-x="667" 
d="M270 -10q-88 0 -131 46t-43 147v272q0 47 -16.5 59t-50.5 12h-3v10h222v-386q0 -64 17 -97t58 -33q53 0 72.5 53t19.5 137v251q0 29 -11.5 42.5t-28.5 18t-31 4.5h-4v10h227v-465q0 -27 12 -40t28.5 -17t30.5 -4h4v-10h-227v94h-2q-11 -45 -34 -67t-51 -29.5t-58 -7.5z
M341 606q-24 15 -53.5 35t-59 41.5t-54 41t-37.5 32.5v10h130q16 -34 39 -76t45 -74v-10h-10z" />
    <glyph glyph-name="uacute" unicode="&#xfa;" horiz-adv-x="667" 
d="M270 -10q-88 0 -131 46t-43 147v272q0 47 -16.5 59t-50.5 12h-3v10h222v-386q0 -64 17 -97t58 -33q53 0 72.5 53t19.5 137v251q0 29 -11.5 42.5t-28.5 18t-31 4.5h-4v10h227v-465q0 -27 12 -40t28.5 -17t30.5 -4h4v-10h-227v94h-2q-11 -45 -34 -67t-51 -29.5t-58 -7.5z
M284 606v10q22 32 45 74t39 76h130v-10q-13 -13 -37.5 -32.5t-54 -41t-59 -41.5t-53.5 -35h-10z" />
    <glyph glyph-name="ucircumflex" unicode="&#xfb;" horiz-adv-x="667" 
d="M270 -10q-88 0 -131 46t-43 147v272q0 47 -16.5 59t-50.5 12h-3v10h222v-386q0 -64 17 -97t58 -33q53 0 72.5 53t19.5 137v251q0 29 -11.5 42.5t-28.5 18t-31 4.5h-4v10h227v-465q0 -27 12 -40t28.5 -17t30.5 -4h4v-10h-227v94h-2q-11 -45 -34 -67t-51 -29.5t-58 -7.5z
M144 606v10q18 19 41.5 45.5t46 54.5t39.5 50h101q17 -22 39.5 -50t45.5 -54.5t42 -45.5v-10h-10q-21 12 -51 28.5t-61 35t-56 36.5q-25 -18 -55.5 -36.5t-60 -35t-51.5 -28.5h-10z" />
    <glyph glyph-name="udieresis" unicode="&#xfc;" horiz-adv-x="667" 
d="M270 -10q-88 0 -131 46t-43 147v272q0 47 -16.5 59t-50.5 12h-3v10h222v-386q0 -64 17 -97t58 -33q53 0 72.5 53t19.5 137v251q0 29 -11.5 42.5t-28.5 18t-31 4.5h-4v10h227v-465q0 -27 12 -40t28.5 -17t30.5 -4h4v-10h-227v94h-2q-11 -45 -34 -67t-51 -29.5t-58 -7.5z
M427 626q-19 0 -34 14t-15 48t15 48t34 14t33.5 -14t14.5 -48t-14.5 -48t-33.5 -14zM221 626q-19 0 -33.5 14t-14.5 48t14.5 48t33.5 14t34 -14t15 -48t-15 -48t-34 -14z" />
    <glyph glyph-name="yacute" unicode="&#xfd;" horiz-adv-x="579" 
d="M31 -240v10q68 0 111.5 11.5t70.5 35t46 60t40 86.5l-243 515q-13 27 -23.5 37.5t-26.5 10.5h-6v10h287l1 -10h-20q-29 0 -43 -7t-14 -24t12 -45l98 -225q17 -39 25 -56.5t15 -35.5q7 21 14.5 39.5t12.5 33.5l85 230q12 32 12 51q0 22 -15.5 30.5t-50.5 8.5h-42v10h202
v-10h-2q-34 0 -53.5 -17t-35.5 -61l-166 -452q-26 -72 -50 -118t-54 -72t-74 -36t-110 -10h-3zM253 606v10q22 32 45 74t39 76h130v-10q-13 -13 -37.5 -32.5t-54 -41t-59 -41.5t-53.5 -35h-10z" />
    <glyph glyph-name="thorn" unicode="&#xfe;" horiz-adv-x="645" 
d="M13 -240v10h12q15 0 31.5 4.5t28 18t11.5 42.5v854q0 27 -12 40t-28.5 17t-30.5 4h-3v10h226v-272v-37t-1 -40h2q11 70 50 103.5t99 33.5q96 0 148 -66.5t52 -211.5q0 -146 -52 -213t-153 -67q-56 0 -94.5 35.5t-49.5 111.5h-2q1 -31 1 -67v-70v-165q0 -29 11.5 -42.5
t28 -18t31.5 -4.5h22v-10h-328zM351 15q93 0 93 269q0 239 -91 239q-105 0 -105 -239q0 -269 103 -269z" />
    <glyph glyph-name="ydieresis" unicode="&#xff;" horiz-adv-x="579" 
d="M31 -240v10q68 0 111.5 11.5t70.5 35t46 60t40 86.5l-243 515q-13 27 -23.5 37.5t-26.5 10.5h-6v10h287l1 -10h-20q-29 0 -43 -7t-14 -24t12 -45l98 -225q17 -39 25 -56.5t15 -35.5q7 21 14.5 39.5t12.5 33.5l85 230q12 32 12 51q0 22 -15.5 30.5t-50.5 8.5h-42v10h202
v-10h-2q-34 0 -53.5 -17t-35.5 -61l-166 -452q-26 -72 -50 -118t-54 -72t-74 -36t-110 -10h-3zM403 626q-19 0 -34 14t-15 48t15 48t34 14t33.5 -14t14.5 -48t-14.5 -48t-33.5 -14zM197 626q-19 0 -33.5 14t-14.5 48t14.5 48t33.5 14t34 -14t15 -48t-15 -48t-34 -14z" />
    <glyph glyph-name="Amacron" unicode="&#x100;" horiz-adv-x="753" 
d="M4 0v10h41q28 0 44.5 16t31.5 57l231 631h98l224 -632q15 -41 31.5 -56.5t44.5 -15.5h3v-10h-330v10h54q46 0 46 32q0 16 -11 51l-57 168h-258l-57 -155q-8 -20 -12 -35.5t-4 -26.5q0 -19 12 -26.5t37 -7.5h71v-10h-240zM201 271h251l-62 187q-8 24 -18.5 57.5t-20 68
t-15.5 59.5q-8 -24 -19.5 -56.5t-23.5 -65t-21 -56.5zM230 800v20h290v-20h-290z" />
    <glyph glyph-name="amacron" unicode="&#x101;" horiz-adv-x="599" 
d="M205 -10q-75 0 -117.5 42.5t-42.5 113.5q0 77 55.5 111t168.5 38l82 3v127q0 65 -13.5 89.5t-47.5 24.5q-40 0 -54 -34t-14 -125q-67 0 -101 15t-34 53q0 36 28 58t74.5 32.5t103.5 10.5q105 0 157.5 -38t52.5 -132v-298q0 -41 13 -56t47 -15h4v-10h-214v101h-2
q-19 -65 -58.5 -88t-87.5 -23zM256 18q29 0 50.5 22t33 57t11.5 74v117l-45 -2q-60 -3 -83 -34.5t-23 -102.5q0 -73 14 -102t42 -29zM144 635v20h290v-20h-290z" />
    <glyph glyph-name="Abreve" unicode="&#x102;" horiz-adv-x="753" 
d="M4 0v10h41q28 0 44.5 16t31.5 57l231 631h98l224 -632q15 -41 31.5 -56.5t44.5 -15.5h3v-10h-330v10h54q46 0 46 32q0 16 -11 51l-57 168h-258l-57 -155q-8 -20 -12 -35.5t-4 -26.5q0 -19 12 -26.5t37 -7.5h71v-10h-240zM201 271h251l-62 187q-8 24 -18.5 57.5t-20 68
t-15.5 59.5q-8 -24 -19.5 -56.5t-23.5 -65t-21 -56.5zM380 771q-52 0 -87.5 23.5t-53.5 60t-19 73.5h10q8 -36 39.5 -54.5t110.5 -18.5t110.5 18.5t39.5 54.5h10q-1 -37 -19 -73.5t-53.5 -60t-87.5 -23.5z" />
    <glyph glyph-name="abreve" unicode="&#x103;" horiz-adv-x="599" 
d="M205 -10q-75 0 -117.5 42.5t-42.5 113.5q0 77 55.5 111t168.5 38l82 3v127q0 65 -13.5 89.5t-47.5 24.5q-40 0 -54 -34t-14 -125q-67 0 -101 15t-34 53q0 36 28 58t74.5 32.5t103.5 10.5q105 0 157.5 -38t52.5 -132v-298q0 -41 13 -56t47 -15h4v-10h-214v101h-2
q-19 -65 -58.5 -88t-87.5 -23zM256 18q29 0 50.5 22t33 57t11.5 74v117l-45 -2q-60 -3 -83 -34.5t-23 -102.5q0 -73 14 -102t42 -29zM285 606q-52 0 -87.5 23.5t-53.5 60t-19 73.5h10q8 -36 39.5 -54.5t110.5 -18.5t110.5 18.5t39.5 54.5h10q-1 -37 -19 -73.5t-53.5 -60
t-87.5 -23.5z" />
    <glyph glyph-name="Aogonek" unicode="&#x104;" horiz-adv-x="753" 
d="M4 0v10h41q28 0 44.5 16t31.5 57l231 631h98l224 -632q15 -41 31.5 -56.5t44.5 -15.5h3v-10h-330v10h54q46 0 46 32q0 16 -11 51l-57 168h-258l-57 -155q-8 -20 -12 -35.5t-4 -26.5q0 -19 12 -26.5t37 -7.5h71v-10h-240zM201 271h251l-62 187q-8 24 -18.5 57.5t-20 68
t-15.5 59.5q-8 -24 -19.5 -56.5t-23.5 -65t-21 -56.5zM633 -240q-64 0 -103.5 28.5t-39.5 80.5q0 25 13 50t48 46t101 35h33q-48 -9 -75.5 -39t-27.5 -85q0 -48 21.5 -73t61.5 -25q26 0 59 9v-11q-16 -8 -41.5 -12t-49.5 -4z" />
    <glyph glyph-name="aogonek" unicode="&#x105;" horiz-adv-x="599" 
d="M205 -10q-75 0 -117.5 42.5t-42.5 113.5q0 77 55.5 111t168.5 38l82 3v127q0 65 -13.5 89.5t-47.5 24.5q-40 0 -54 -34t-14 -125q-67 0 -101 15t-34 53q0 36 28 58t74.5 32.5t103.5 10.5q105 0 157.5 -38t52.5 -132v-298q0 -41 13 -56t47 -15h4v-10h-214v101h-2
q-19 -65 -58.5 -88t-87.5 -23zM256 18q29 0 50.5 22t33 57t11.5 74v117l-45 -2q-60 -3 -83 -34.5t-23 -102.5q0 -73 14 -102t42 -29zM406 -240q-64 0 -103.5 28.5t-39.5 80.5q0 25 13 50t48 46t101 35h33q-48 -9 -75.5 -39t-27.5 -85q0 -48 21.5 -73t61.5 -25q26 0 59 9v-11
q-16 -8 -41.5 -12t-49.5 -4z" />
    <glyph glyph-name="Cacute" unicode="&#x106;" horiz-adv-x="668" 
d="M401 -10q-116 0 -193 46t-115 128.5t-38 193.5q0 108 38 190.5t115.5 129t195.5 46.5q107 0 165.5 -34t58.5 -83q0 -37 -32 -61.5t-93 -24.5q0 101 -29 147t-93 46q-83 0 -120.5 -84.5t-37.5 -271.5q0 -188 46.5 -272.5t149.5 -84.5q148 0 181 164q27 -11 27 -44
q0 -27 -21 -57.5t-70.5 -52t-134.5 -21.5zM354 771v10q22 32 45 74t39 76h130v-10q-13 -13 -37.5 -32.5t-54 -41t-59 -41.5t-53.5 -35h-10z" />
    <glyph glyph-name="cacute" unicode="&#x107;" horiz-adv-x="527" 
d="M296 -10q-74 0 -130.5 26.5t-87.5 87t-31 162.5q0 108 32 169.5t88.5 87.5t129.5 26q91 0 142 -30t51 -78q0 -19 -10.5 -38t-38.5 -31.5t-80 -12.5q0 69 -6.5 108t-21.5 55.5t-42 16.5q-33 0 -53 -25t-28.5 -84.5t-8.5 -162.5q0 -144 28.5 -205t95.5 -61q52 0 88.5 33.5
t46.5 116.5q16 -5 25 -19t9 -32q0 -25 -21 -50.5t-64.5 -42.5t-112.5 -17zM245 606v10q22 32 45 74t39 76h130v-10q-13 -13 -37.5 -32.5t-54 -41t-59 -41.5t-53.5 -35h-10z" />
    <glyph glyph-name="Ccircumflex" unicode="&#x108;" horiz-adv-x="668" 
d="M401 -10q-116 0 -193 46t-115 128.5t-38 193.5q0 108 38 190.5t115.5 129t195.5 46.5q107 0 165.5 -34t58.5 -83q0 -37 -32 -61.5t-93 -24.5q0 101 -29 147t-93 46q-83 0 -120.5 -84.5t-37.5 -271.5q0 -188 46.5 -272.5t149.5 -84.5q148 0 181 164q27 -11 27 -44
q0 -27 -21 -57.5t-70.5 -52t-134.5 -21.5zM202 771v10q18 19 41.5 45.5t46 54.5t39.5 50h101q17 -22 39.5 -50t45.5 -54.5t42 -45.5v-10h-10q-21 12 -51 28.5t-61 35t-56 36.5q-25 -18 -55.5 -36.5t-60 -35t-51.5 -28.5h-10z" />
    <glyph glyph-name="ccircumflex" unicode="&#x109;" horiz-adv-x="527" 
d="M296 -10q-74 0 -130.5 26.5t-87.5 87t-31 162.5q0 108 32 169.5t88.5 87.5t129.5 26q91 0 142 -30t51 -78q0 -19 -10.5 -38t-38.5 -31.5t-80 -12.5q0 69 -6.5 108t-21.5 55.5t-42 16.5q-33 0 -53 -25t-28.5 -84.5t-8.5 -162.5q0 -144 28.5 -205t95.5 -61q52 0 88.5 33.5
t46.5 116.5q16 -5 25 -19t9 -32q0 -25 -21 -50.5t-64.5 -42.5t-112.5 -17zM111 606v10q18 19 41.5 45.5t46 54.5t39.5 50h101q17 -22 39.5 -50t45.5 -54.5t42 -45.5v-10h-10q-21 12 -51 28.5t-61 35t-56 36.5q-25 -18 -55.5 -36.5t-60 -35t-51.5 -28.5h-10z" />
    <glyph glyph-name="Cdot" unicode="&#x10a;" horiz-adv-x="668" 
d="M401 -10q-116 0 -193 46t-115 128.5t-38 193.5q0 108 38 190.5t115.5 129t195.5 46.5q107 0 165.5 -34t58.5 -83q0 -37 -32 -61.5t-93 -24.5q0 101 -29 147t-93 46q-83 0 -120.5 -84.5t-37.5 -271.5q0 -188 46.5 -272.5t149.5 -84.5q148 0 181 164q27 -11 27 -44
q0 -27 -21 -57.5t-70.5 -52t-134.5 -21.5zM388 791q-29 0 -49.5 17.5t-20.5 54.5q0 38 20.5 55t49.5 17q28 0 49.5 -17t21.5 -55q0 -37 -21.5 -54.5t-49.5 -17.5z" />
    <glyph glyph-name="cdot" unicode="&#x10b;" horiz-adv-x="527" 
d="M296 -10q-74 0 -130.5 26.5t-87.5 87t-31 162.5q0 108 32 169.5t88.5 87.5t129.5 26q91 0 142 -30t51 -78q0 -19 -10.5 -38t-38.5 -31.5t-80 -12.5q0 69 -6.5 108t-21.5 55.5t-42 16.5q-33 0 -53 -25t-28.5 -84.5t-8.5 -162.5q0 -144 28.5 -205t95.5 -61q52 0 88.5 33.5
t46.5 116.5q16 -5 25 -19t9 -32q0 -25 -21 -50.5t-64.5 -42.5t-112.5 -17zM289 626q-29 0 -49.5 17.5t-20.5 54.5q0 38 20.5 55t49.5 17q28 0 49.5 -17t21.5 -55q0 -37 -21.5 -54.5t-49.5 -17.5z" />
    <glyph glyph-name="Ccaron" unicode="&#x10c;" horiz-adv-x="668" 
d="M401 -10q-116 0 -193 46t-115 128.5t-38 193.5q0 108 38 190.5t115.5 129t195.5 46.5q107 0 165.5 -34t58.5 -83q0 -37 -32 -61.5t-93 -24.5q0 101 -29 147t-93 46q-83 0 -120.5 -84.5t-37.5 -271.5q0 -188 46.5 -272.5t149.5 -84.5q148 0 181 164q27 -11 27 -44
q0 -27 -21 -57.5t-70.5 -52t-134.5 -21.5zM329 771q-17 22 -39.5 50t-46 54.5t-41.5 45.5v10h10q22 -12 51.5 -28.5t60 -35t55.5 -36.5q25 18 56 36.5t61 35t51 28.5h10v-10q-19 -19 -42 -45.5t-45.5 -54.5t-39.5 -50h-101z" />
    <glyph glyph-name="ccaron" unicode="&#x10d;" horiz-adv-x="527" 
d="M296 -10q-74 0 -130.5 26.5t-87.5 87t-31 162.5q0 108 32 169.5t88.5 87.5t129.5 26q91 0 142 -30t51 -78q0 -19 -10.5 -38t-38.5 -31.5t-80 -12.5q0 69 -6.5 108t-21.5 55.5t-42 16.5q-33 0 -53 -25t-28.5 -84.5t-8.5 -162.5q0 -144 28.5 -205t95.5 -61q52 0 88.5 33.5
t46.5 116.5q16 -5 25 -19t9 -32q0 -25 -21 -50.5t-64.5 -42.5t-112.5 -17zM239 606q-17 22 -39.5 50t-46 54.5t-41.5 45.5v10h10q22 -12 51.5 -28.5t60 -35t55.5 -36.5q25 18 56 36.5t61 35t51 28.5h10v-10q-19 -19 -42 -45.5t-45.5 -54.5t-39.5 -50h-101z" />
    <glyph glyph-name="Dcaron" unicode="&#x10e;" horiz-adv-x="767" 
d="M28 0v10h42q22 0 36.5 11t14.5 54v568q0 40 -15 50.5t-36 10.5h-42v10h330q166 0 260 -87t94 -257q0 -110 -40 -193t-119 -130t-195 -47h-330zM279 10h56q75 0 121 36t66.5 115.5t20.5 208.5q0 120 -20.5 193.5t-66.5 107t-120 33.5h-57v-694zM316 771q-17 22 -39.5 50
t-46 54.5t-41.5 45.5v10h10q22 -12 51.5 -28.5t60 -35t55.5 -36.5q25 18 56 36.5t61 35t51 28.5h10v-10q-19 -19 -42 -45.5t-45.5 -54.5t-39.5 -50h-101z" />
    <glyph glyph-name="dcaron" unicode="&#x10f;" horiz-adv-x="649" 
d="M251 -10q-101 0 -153 67t-52 213q0 145 52 211.5t148 66.5q60 0 99 -33.5t50 -103.5h2q-1 60 -1 106.5v71.5v100q0 27 -12 40t-28.5 17t-30.5 4h-12v10h235v-685q0 -29 11.5 -42.5t28 -18t31.5 -4.5h12v-10h-234v137h-2q-11 -76 -49.5 -111.5t-94.5 -35.5zM293 15
q103 0 103 269q0 239 -105 239q-91 0 -91 -239q0 -269 93 -269zM616 600v13q10 30 21.5 72t17.5 75h90v-10q-13 -21 -32 -48t-41 -53.5t-41 -48.5h-15z" />
    <glyph glyph-name="Dcroat" unicode="&#x110;" horiz-adv-x="767" 
d="M28 0v10h42q22 0 36.5 11t14.5 54v294h-83v10h83v264q0 40 -15 50.5t-36 10.5h-42v10h330q166 0 260 -87t94 -257q0 -110 -40 -193t-119 -130t-195 -47h-330zM279 10h56q75 0 121 36t66.5 115.5t20.5 208.5q0 120 -20.5 193.5t-66.5 107t-120 33.5h-57v-325h125v-10h-125
v-359z" />
    <glyph glyph-name="dcroat" unicode="&#x111;" horiz-adv-x="649" 
d="M251 -10q-101 0 -153 65.5t-52 199.5q0 133 52 198t148 65q60 0 99 -33.5t50 -103.5h2q-1 40 -1 80.5v68.5v29v41h-155v10h155v79q0 27 -12 40t-28.5 17t-30.5 4h-12v10h235v-150h87v-10h-87v-525q0 -29 11.5 -42.5t28 -18t31.5 -4.5h12v-10h-234v137h-2
q-11 -76 -49.5 -111.5t-94.5 -35.5zM293 15q51 0 77 66t26 188q0 107 -26.5 165.5t-78.5 58.5q-45 0 -68 -58.5t-23 -165.5q0 -122 23.5 -188t69.5 -66z" />
    <glyph glyph-name="Emacron" unicode="&#x112;" horiz-adv-x="653" 
d="M28 0v10h42q21 0 36 10t15 50v569q0 43 -14.5 54t-36.5 11h-42v10h553l6 -184h-10l-3 34q-7 76 -43.5 108t-116.5 32h-134v-326h237v-10h-237v-358h168q80 0 116.5 32t43.5 109l3 33h10l-7 -184h-586zM182 800v20h290v-20h-290z" />
    <glyph glyph-name="emacron" unicode="&#x113;" horiz-adv-x="571" 
d="M311 -10q-130 0 -197 72t-67 203q0 141 64.5 212.5t183.5 71.5q109 0 171.5 -61t62.5 -180v-24h-328q0 -152 31 -217.5t102 -65.5q52 0 89.5 34.5t47.5 116.5q20 -4 28.5 -17t8.5 -30q0 -29 -22 -55t-65.5 -43t-109.5 -17zM201 294h176q0 90 -7 144t-25 77.5t-50 23.5
q-49 0 -71 -54.5t-23 -190.5zM158 635v20h290v-20h-290z" />
    <glyph glyph-name="Ebreve" unicode="&#x114;" horiz-adv-x="653" 
d="M28 0v10h42q21 0 36 10t15 50v569q0 43 -14.5 54t-36.5 11h-42v10h553l6 -184h-10l-3 34q-7 76 -43.5 108t-116.5 32h-134v-326h237v-10h-237v-358h168q80 0 116.5 32t43.5 109l3 33h10l-7 -184h-586zM334 771q-52 0 -87.5 23.5t-53.5 60t-19 73.5h10q8 -36 39.5 -54.5
t110.5 -18.5t110.5 18.5t39.5 54.5h10q-1 -37 -19 -73.5t-53.5 -60t-87.5 -23.5z" />
    <glyph glyph-name="ebreve" unicode="&#x115;" horiz-adv-x="571" 
d="M311 -10q-130 0 -197 72t-67 203q0 141 64.5 212.5t183.5 71.5q109 0 171.5 -61t62.5 -180v-24h-328q0 -152 31 -217.5t102 -65.5q52 0 89.5 34.5t47.5 116.5q20 -4 28.5 -17t8.5 -30q0 -29 -22 -55t-65.5 -43t-109.5 -17zM201 294h176q0 90 -7 144t-25 77.5t-50 23.5
q-49 0 -71 -54.5t-23 -190.5zM295 606q-52 0 -87.5 23.5t-53.5 60t-19 73.5h10q8 -36 39.5 -54.5t110.5 -18.5t110.5 18.5t39.5 54.5h10q-1 -37 -19 -73.5t-53.5 -60t-87.5 -23.5z" />
    <glyph glyph-name="Edotaccent" unicode="&#x116;" horiz-adv-x="653" 
d="M28 0v10h42q21 0 36 10t15 50v569q0 43 -14.5 54t-36.5 11h-42v10h553l6 -184h-10l-3 34q-7 76 -43.5 108t-116.5 32h-134v-326h237v-10h-237v-358h168q80 0 116.5 32t43.5 109l3 33h10l-7 -184h-586zM331 777q-29 0 -49.5 17.5t-20.5 54.5q0 38 20.5 55t49.5 17
q28 0 49.5 -17t21.5 -55q0 -37 -21.5 -54.5t-49.5 -17.5z" />
    <glyph glyph-name="edotaccent" unicode="&#x117;" horiz-adv-x="571" 
d="M311 -10q-130 0 -197 72t-67 203q0 141 64.5 212.5t183.5 71.5q109 0 171.5 -61t62.5 -180v-24h-328q0 -152 31 -217.5t102 -65.5q52 0 89.5 34.5t47.5 116.5q20 -4 28.5 -17t8.5 -30q0 -29 -22 -55t-65.5 -43t-109.5 -17zM201 294h176q0 90 -7 144t-25 77.5t-50 23.5
q-49 0 -71 -54.5t-23 -190.5zM297 626q-29 0 -49.5 17.5t-20.5 54.5q0 38 20.5 55t49.5 17q28 0 49.5 -17t21.5 -55q0 -37 -21.5 -54.5t-49.5 -17.5z" />
    <glyph glyph-name="Eogonek" unicode="&#x118;" horiz-adv-x="653" 
d="M28 0v10h42q21 0 36 10t15 50v569q0 43 -14.5 54t-36.5 11h-42v10h553l6 -184h-10l-3 34q-7 76 -43.5 108t-116.5 32h-134v-326h237v-10h-237v-358h168q80 0 116.5 32t43.5 109l3 33h10l-7 -184h-586zM494 -240q-64 0 -103.5 28.5t-39.5 80.5q0 25 13 50t48.5 46
t100.5 35h33q-48 -9 -75.5 -39t-27.5 -85q0 -48 21.5 -73t61.5 -25q26 0 59 9v-11q-16 -8 -41.5 -12t-49.5 -4z" />
    <glyph glyph-name="eogonek" unicode="&#x119;" horiz-adv-x="571" 
d="M372 -240q-64 0 -103.5 28.5t-39.5 80.5q0 24 12 47t42.5 43.5t86.5 34.5q-14 -2 -28.5 -3t-30.5 -1q-130 0 -197 72t-67 203q0 141 64.5 212.5t183.5 71.5q109 0 171.5 -61t62.5 -180v-24h-328q0 -152 31 -217.5t102 -65.5q52 0 89.5 34.5t47.5 116.5q20 -4 28.5 -17
t8.5 -30q0 -30 -24 -57t-74 -44q-89 -32 -89 -128q0 -48 21.5 -73t61.5 -25q26 0 59 9v-11q-16 -8 -41.5 -12t-49.5 -4zM201 294h176q0 90 -7 144t-25 77.5t-50 23.5q-49 0 -71 -54.5t-23 -190.5z" />
    <glyph glyph-name="Ecaron" unicode="&#x11a;" horiz-adv-x="653" 
d="M28 0v10h42q21 0 36 10t15 50v569q0 43 -14.5 54t-36.5 11h-42v10h553l6 -184h-10l-3 34q-7 76 -43.5 108t-116.5 32h-134v-326h237v-10h-237v-358h168q80 0 116.5 32t43.5 109l3 33h10l-7 -184h-586zM279 771q-17 22 -39.5 50t-46 54.5t-41.5 45.5v10h10
q22 -12 51.5 -28.5t60 -35t55.5 -36.5q25 18 56 36.5t61 35t51 28.5h10v-10q-19 -19 -42 -45.5t-45.5 -54.5t-39.5 -50h-101z" />
    <glyph glyph-name="ecaron" unicode="&#x11b;" horiz-adv-x="571" 
d="M311 -10q-130 0 -197 72t-67 203q0 141 64.5 212.5t183.5 71.5q109 0 171.5 -61t62.5 -180v-24h-328q0 -152 31 -217.5t102 -65.5q52 0 89.5 34.5t47.5 116.5q20 -4 28.5 -17t8.5 -30q0 -29 -22 -55t-65.5 -43t-109.5 -17zM201 294h176q0 90 -7 144t-25 77.5t-50 23.5
q-49 0 -71 -54.5t-23 -190.5zM241 606q-17 22 -39.5 50t-46 54.5t-41.5 45.5v10h10q22 -12 51.5 -28.5t60 -35t55.5 -36.5q25 18 56 36.5t61 35t51 28.5h10v-10q-19 -19 -42 -45.5t-45.5 -54.5t-39.5 -50h-101z" />
    <glyph glyph-name="Gcircumflex" unicode="&#x11c;" horiz-adv-x="769" 
d="M423 -10q-124 0 -205.5 46t-122 128.5t-40.5 193.5q0 108 42 190.5t125.5 129t205.5 46.5q124 0 187 -33.5t63 -82.5q0 -35 -33 -60t-96 -25q0 101 -28.5 146t-101.5 45q-102 0 -149 -84.5t-47 -271.5q0 -188 51.5 -272.5t163.5 -84.5q19 0 37.5 1.5t35.5 5.5v247
q0 40 -18 55.5t-53 15.5h-13v10h314v-10h-13q-31 0 -45 -16t-14 -59v-207q-59 -27 -118.5 -40.5t-127.5 -13.5zM232 771v10q18 19 41.5 45.5t46 54.5t39.5 50h101q17 -22 39.5 -50t45.5 -54.5t42 -45.5v-10h-10q-21 12 -51 28.5t-61 35t-56 36.5q-25 -18 -55.5 -36.5
t-60 -35t-51.5 -28.5h-10z" />
    <glyph glyph-name="gcircumflex" unicode="&#x11d;" horiz-adv-x="560" 
d="M236 -240q-124 0 -178.5 31t-54.5 86q0 45 39 72t135 32q-54 9 -84 39t-30 71q0 40 28 67t78 44q-55 17 -86.5 58.5t-31.5 103.5q0 88 51 136.5t158 48.5q39 0 72.5 -10.5t58.5 -30.5q26 36 48 51t50 15q31 0 48.5 -16t17.5 -41q0 -20 -15 -38.5t-56 -18.5q0 28 -13 43.5
t-34 15.5q-23 0 -38 -17q30 -25 46.5 -60t16.5 -78q0 -76 -49 -125.5t-153 -49.5q-46 0 -80 10q-19 -11 -26 -21.5t-7 -24.5q0 -44 66 -44h121q100 0 146 -40.5t46 -112.5q0 -92 -71 -144t-219 -52zM257 199q37 0 52.5 36.5t15.5 128.5q0 97 -15.5 136t-53.5 39t-53.5 -39.5
t-15.5 -137.5q0 -91 15.5 -127t54.5 -36zM248 -230q75 0 121.5 28t46.5 93q0 41 -21.5 63.5t-69.5 22.5h-102q-54 0 -78.5 -26t-24.5 -73q0 -56 32.5 -82t95.5 -26zM82 606v10q18 19 41.5 45.5t46 54.5t39.5 50h101q17 -22 39.5 -50t45.5 -54.5t42 -45.5v-10h-10
q-21 12 -51 28.5t-61 35t-56 36.5q-25 -18 -55.5 -36.5t-60 -35t-51.5 -28.5h-10z" />
    <glyph glyph-name="Gbreve" unicode="&#x11e;" horiz-adv-x="769" 
d="M423 -10q-124 0 -205.5 46t-122 128.5t-40.5 193.5q0 108 42 190.5t125.5 129t205.5 46.5q124 0 187 -33.5t63 -82.5q0 -35 -33 -60t-96 -25q0 101 -28.5 146t-101.5 45q-102 0 -149 -84.5t-47 -271.5q0 -188 51.5 -272.5t163.5 -84.5q19 0 37.5 1.5t35.5 5.5v247
q0 40 -18 55.5t-53 15.5h-13v10h314v-10h-13q-31 0 -45 -16t-14 -59v-207q-59 -27 -118.5 -40.5t-127.5 -13.5zM409 771q-52 0 -87.5 23.5t-53.5 60t-19 73.5h10q8 -36 39.5 -54.5t110.5 -18.5t110.5 18.5t39.5 54.5h10q-1 -37 -19 -73.5t-53.5 -60t-87.5 -23.5z" />
    <glyph glyph-name="gbreve" unicode="&#x11f;" horiz-adv-x="560" 
d="M236 -240q-124 0 -178.5 31t-54.5 86q0 45 39 72t135 32q-54 9 -84 39t-30 71q0 40 28 67t78 44q-55 17 -86.5 58.5t-31.5 103.5q0 88 51 136.5t158 48.5q39 0 72.5 -10.5t58.5 -30.5q26 36 48 51t50 15q31 0 48.5 -16t17.5 -41q0 -20 -15 -38.5t-56 -18.5q0 28 -13 43.5
t-34 15.5q-23 0 -38 -17q30 -25 46.5 -60t16.5 -78q0 -76 -49 -125.5t-153 -49.5q-46 0 -80 10q-19 -11 -26 -21.5t-7 -24.5q0 -44 66 -44h121q100 0 146 -40.5t46 -112.5q0 -92 -71 -144t-219 -52zM257 199q37 0 52.5 36.5t15.5 128.5q0 97 -15.5 136t-53.5 39t-53.5 -39.5
t-15.5 -137.5q0 -91 15.5 -127t54.5 -36zM248 -230q75 0 121.5 28t46.5 93q0 41 -21.5 63.5t-69.5 22.5h-102q-54 0 -78.5 -26t-24.5 -73q0 -56 32.5 -82t95.5 -26zM256 606q-52 0 -87.5 23.5t-53.5 60t-19 73.5h10q8 -36 39.5 -54.5t110.5 -18.5t110.5 18.5t39.5 54.5h10
q-1 -37 -19 -73.5t-53.5 -60t-87.5 -23.5z" />
    <glyph glyph-name="Gdot" unicode="&#x120;" horiz-adv-x="769" 
d="M423 -10q-124 0 -205.5 46t-122 128.5t-40.5 193.5q0 108 42 190.5t125.5 129t205.5 46.5q124 0 187 -33.5t63 -82.5q0 -35 -33 -60t-96 -25q0 101 -28.5 146t-101.5 45q-102 0 -149 -84.5t-47 -271.5q0 -188 51.5 -272.5t163.5 -84.5q19 0 37.5 1.5t35.5 5.5v247
q0 40 -18 55.5t-53 15.5h-13v10h314v-10h-13q-31 0 -45 -16t-14 -59v-207q-59 -27 -118.5 -40.5t-127.5 -13.5zM408 791q-29 0 -49.5 17.5t-20.5 54.5q0 38 20.5 55t49.5 17q28 0 49.5 -17t21.5 -55q0 -37 -21.5 -54.5t-49.5 -17.5z" />
    <glyph glyph-name="gdot" unicode="&#x121;" horiz-adv-x="560" 
d="M236 -240q-124 0 -178.5 31t-54.5 86q0 45 39 72t135 32q-54 9 -84 39t-30 71q0 40 28 67t78 44q-55 17 -86.5 58.5t-31.5 103.5q0 88 51 136.5t158 48.5q39 0 72.5 -10.5t58.5 -30.5q26 36 48 51t50 15q31 0 48.5 -16t17.5 -41q0 -20 -15 -38.5t-56 -18.5q0 28 -13 43.5
t-34 15.5q-23 0 -38 -17q30 -25 46.5 -60t16.5 -78q0 -76 -49 -125.5t-153 -49.5q-46 0 -80 10q-19 -11 -26 -21.5t-7 -24.5q0 -44 66 -44h121q100 0 146 -40.5t46 -112.5q0 -92 -71 -144t-219 -52zM257 199q37 0 52.5 36.5t15.5 128.5q0 97 -15.5 136t-53.5 39t-53.5 -39.5
t-15.5 -137.5q0 -91 15.5 -127t54.5 -36zM248 -230q75 0 121.5 28t46.5 93q0 41 -21.5 63.5t-69.5 22.5h-102q-54 0 -78.5 -26t-24.5 -73q0 -56 32.5 -82t95.5 -26zM256 626q-29 0 -49.5 17.5t-20.5 54.5q0 38 20.5 55t49.5 17q28 0 49.5 -17t21.5 -55q0 -37 -21.5 -54.5
t-49.5 -17.5z" />
    <glyph glyph-name="uni0122" unicode="&#x122;" horiz-adv-x="769" 
d="M423 -10q-124 0 -205.5 46t-122 128.5t-40.5 193.5q0 108 42 190.5t125.5 129t205.5 46.5q124 0 187 -33.5t63 -82.5q0 -35 -33 -60t-96 -25q0 101 -28.5 146t-101.5 45q-102 0 -149 -84.5t-47 -271.5q0 -188 51.5 -272.5t163.5 -84.5q19 0 37.5 1.5t35.5 5.5v247
q0 40 -18 55.5t-53 15.5h-13v10h314v-10h-13q-31 0 -45 -16t-14 -59v-207q-59 -27 -118.5 -40.5t-127.5 -13.5zM322 -221v10q11 30 22 73.5t17 76.5h90v-10q-13 -21 -33.5 -48t-43 -54t-42.5 -48h-10z" />
    <glyph glyph-name="uni0123" unicode="&#x123;" horiz-adv-x="560" 
d="M236 -240q-124 0 -178.5 31t-54.5 86q0 45 39 72t135 32q-54 9 -84 39t-30 71q0 40 28 67t78 44q-55 17 -86.5 58.5t-31.5 103.5q0 88 51 136.5t158 48.5q39 0 72.5 -10.5t58.5 -30.5q26 36 48 51t50 15q31 0 48.5 -16t17.5 -41q0 -20 -15 -38.5t-56 -18.5q0 28 -13 43.5
t-34 15.5q-23 0 -38 -17q30 -25 46.5 -60t16.5 -78q0 -76 -49 -125.5t-153 -49.5q-46 0 -80 10q-19 -11 -26 -21.5t-7 -24.5q0 -44 66 -44h121q100 0 146 -40.5t46 -112.5q0 -92 -71 -144t-219 -52zM257 199q37 0 52.5 36.5t15.5 128.5q0 97 -15.5 136t-53.5 39t-53.5 -39.5
t-15.5 -137.5q0 -91 15.5 -127t54.5 -36zM248 -230q75 0 121.5 28t46.5 93q0 41 -21.5 63.5t-69.5 22.5h-102q-54 0 -78.5 -26t-24.5 -73q0 -56 32.5 -82t95.5 -26zM219 606v10q12 21 31.5 48t41 53.5t41.5 48.5h15v-13q-10 -30 -21 -72t-18 -75h-90z" />
    <glyph glyph-name="Hcircumflex" unicode="&#x124;" horiz-adv-x="819" 
d="M28 0v10h42q22 0 36.5 11t14.5 54v564q0 43 -14.5 54t-36.5 11h-42v10h345v-10h-42q-22 0 -36.5 -11t-14.5 -54v-261h259v261q0 43 -14.5 54t-36.5 11h-42v10h345v-10h-42q-22 0 -36.5 -11t-14.5 -54v-564q0 -43 14.5 -54t36.5 -11h42v-10h-345v10h42q22 0 36.5 11
t14.5 54v293h-259v-293q0 -43 14.5 -54t36.5 -11h42v-10h-345zM233 771v10q18 19 41.5 45.5t46 54.5t39.5 50h101q17 -22 39.5 -50t45.5 -54.5t42 -45.5v-10h-10q-21 12 -51 28.5t-61 35t-56 36.5q-25 -18 -55.5 -36.5t-60 -35t-51.5 -28.5h-10z" />
    <glyph glyph-name="hcircumflex" unicode="&#x125;" horiz-adv-x="667" 
d="M17 0v10h12q15 0 31.5 4.5t28 18t11.5 42.5v614q0 27 -12 40t-28.5 17t-30.5 4h-12v10h235v-201v-57.5t-1 -57.5h2q12 45 34.5 67.5t51.5 30t58 7.5q88 0 131 -46t43 -147v-275q0 -47 16.5 -59t50.5 -12h3v-10h-222v389q0 65 -17.5 97.5t-57.5 32.5q-53 0 -72.5 -53
t-19.5 -137v-254q0 -29 11.5 -42.5t28 -18t31.5 -4.5h12v-10h-318zM149 798v10q18 19 41.5 45.5t46 54.5t39.5 50h101q17 -22 39.5 -50t45.5 -54.5t42 -45.5v-10h-10q-21 12 -51 28.5t-61 35t-56 36.5q-25 -18 -55.5 -36.5t-60 -35t-51.5 -28.5h-10z" />
    <glyph glyph-name="Hbar" unicode="&#x126;" horiz-adv-x="819" 
d="M28 0v10h42q22 0 36.5 11t14.5 54v446h-103v10h103v108q0 43 -14.5 54t-36.5 11h-42v10h345v-10h-42q-22 0 -36.5 -11t-14.5 -54v-108h259v108q0 43 -14.5 54t-36.5 11h-42v10h345v-10h-42q-22 0 -36.5 -11t-14.5 -54v-108h103v-10h-103v-446q0 -43 14.5 -54t36.5 -11h42
v-10h-345v10h42q22 0 36.5 11t14.5 54v293h-259v-293q0 -43 14.5 -54t36.5 -11h42v-10h-345zM280 378h259v143h-259v-143z" />
    <glyph glyph-name="hbar" unicode="&#x127;" horiz-adv-x="667" 
d="M17 0v10h12q15 0 31.5 4.5t28 18t11.5 42.5v525h-87v10h87v79q0 27 -12 40t-28.5 17t-30.5 4h-12v10h235v-150h155v-10h-155v-71v-57.5t-1 -57.5h2q12 45 34.5 67.5t51.5 30t58 7.5q88 0 131 -46t43 -147v-245q0 -47 16.5 -59t50.5 -12h3v-10h-222v359q0 65 -17.5 97.5
t-57.5 32.5q-53 0 -72.5 -53t-19.5 -137v-224q0 -29 11.5 -42.5t28 -18t31.5 -4.5h12v-10h-318z" />
    <glyph glyph-name="Itilde" unicode="&#x128;" horiz-adv-x="401" 
d="M28 0v10h42q22 0 36.5 11t14.5 54v564q0 43 -14.5 54t-36.5 11h-42v10h345v-10h-42q-22 0 -36.5 -11t-14.5 -54v-564q0 -43 14.5 -54t36.5 -11h42v-10h-345zM272 771q-27 0 -51 11t-47 25.5t-46.5 25.5t-50.5 11q-37 0 -50 -20.5t-17 -42.5h-10q2 40 18.5 74t44 54
t61.5 20q27 0 51.5 -11t48 -25.5t47 -25.5t49.5 -11q34 0 48 20.5t18 42.5h10q-2 -42 -18.5 -75.5t-44 -53t-61.5 -19.5z" />
    <glyph glyph-name="itilde" unicode="&#x129;" horiz-adv-x="352" 
d="M17 0v10h12q15 0 31.5 4.5t28 18t11.5 42.5v390q0 27 -12 40t-28.5 17t-30.5 4h-12v10h235v-461q0 -29 11.5 -42.5t28 -18t31.5 -4.5h12v-10h-318zM246 606q-27 0 -51 11t-47 25.5t-46.5 25.5t-50.5 11q-37 0 -50 -20.5t-17 -42.5h-10q2 40 18.5 74t44 54t61.5 20
q27 0 51.5 -11t48 -25.5t47 -25.5t49.5 -11q34 0 48 20.5t18 42.5h10q-2 -42 -18.5 -75.5t-44 -53t-61.5 -19.5z" />
    <glyph glyph-name="Imacron" unicode="&#x12a;" horiz-adv-x="401" 
d="M28 0v10h42q22 0 36.5 11t14.5 54v564q0 43 -14.5 54t-36.5 11h-42v10h345v-10h-42q-22 0 -36.5 -11t-14.5 -54v-564q0 -43 14.5 -54t36.5 -11h42v-10h-345zM54 800v20h290v-20h-290z" />
    <glyph glyph-name="imacron" unicode="&#x12b;" horiz-adv-x="352" 
d="M17 0v10h12q15 0 31.5 4.5t28 18t11.5 42.5v390q0 27 -12 40t-28.5 17t-30.5 4h-12v10h235v-461q0 -29 11.5 -42.5t28 -18t31.5 -4.5h12v-10h-318zM14 635v20h290v-20h-290z" />
    <glyph glyph-name="Ibreve" unicode="&#x12c;" horiz-adv-x="401" 
d="M28 0v10h42q22 0 36.5 11t14.5 54v564q0 43 -14.5 54t-36.5 11h-42v10h345v-10h-42q-22 0 -36.5 -11t-14.5 -54v-564q0 -43 14.5 -54t36.5 -11h42v-10h-345zM199 771q-52 0 -87.5 23.5t-53.5 60t-19 73.5h10q8 -36 39.5 -54.5t110.5 -18.5t110.5 18.5t39.5 54.5h10
q-1 -37 -19 -73.5t-53.5 -60t-87.5 -23.5z" />
    <glyph glyph-name="ibreve" unicode="&#x12d;" horiz-adv-x="352" 
d="M17 0v10h12q15 0 31.5 4.5t28 18t11.5 42.5v390q0 27 -12 40t-28.5 17t-30.5 4h-12v10h235v-461q0 -29 11.5 -42.5t28 -18t31.5 -4.5h12v-10h-318zM168 606q-52 0 -87.5 23.5t-53.5 60t-19 73.5h10q8 -36 39.5 -54.5t110.5 -18.5t110.5 18.5t39.5 54.5h10
q-1 -37 -19 -73.5t-53.5 -60t-87.5 -23.5z" />
    <glyph glyph-name="Iogonek" unicode="&#x12e;" horiz-adv-x="401" 
d="M28 0v10h42q22 0 36.5 11t14.5 54v564q0 43 -14.5 54t-36.5 11h-42v10h345v-10h-42q-22 0 -36.5 -11t-14.5 -54v-564q0 -43 14.5 -54t36.5 -11h42v-10h-345zM247 -240q-64 0 -103.5 28.5t-39.5 80.5q0 25 13 50t48.5 46t100.5 35h33q-48 -9 -75.5 -39t-27.5 -85
q0 -48 21.5 -73t61.5 -25q26 0 59 9v-11q-16 -8 -41.5 -12t-49.5 -4z" />
    <glyph glyph-name="iogonek" unicode="&#x12f;" horiz-adv-x="352" 
d="M171 626q-29 0 -49.5 17.5t-20.5 54.5q0 38 20.5 55t49.5 17t50 -17t21 -55q0 -37 -21 -54.5t-50 -17.5zM17 0v10h12q15 0 31.5 4.5t28 18t11.5 42.5v390q0 27 -12 40t-28.5 17t-30.5 4h-12v10h235v-461q0 -29 11.5 -42.5t28 -18t31.5 -4.5h12v-10h-318zM218 -240
q-64 0 -103.5 28.5t-39.5 80.5q0 25 13 50t48.5 46t100.5 35h33q-48 -9 -75.5 -39t-27.5 -85q0 -48 21.5 -73t61.5 -25q26 0 59 9v-11q-16 -8 -41.5 -12t-49.5 -4z" />
    <glyph glyph-name="Idotaccent" unicode="&#x130;" horiz-adv-x="401" 
d="M28 0v10h42q22 0 36.5 11t14.5 54v564q0 43 -14.5 54t-36.5 11h-42v10h345v-10h-42q-22 0 -36.5 -11t-14.5 -54v-564q0 -43 14.5 -54t36.5 -11h42v-10h-345zM198 791q-29 0 -49.5 17.5t-20.5 54.5q0 38 20.5 55t49.5 17q28 0 49.5 -17t21.5 -55q0 -37 -21.5 -54.5
t-49.5 -17.5z" />
    <glyph glyph-name="IJ" unicode="&#x132;" horiz-adv-x="798" 
d="M28 0v10h42q22 0 36.5 11t14.5 54v564q0 43 -14.5 54t-36.5 11h-42v10h345v-10h-42q-22 0 -36.5 -11t-14.5 -54v-564q0 -43 14.5 -54t36.5 -11h42v-10h-345zM380 -240v10h18q32 0 61 17t47 56t18 106v694q0 40 -15 50.5t-36 10.5h-42v10h345v-10h-42q-22 0 -37 -11
t-15 -54v-641q0 -68 -22 -114t-59.5 -73t-85.5 -39t-99 -12h-36z" />
    <glyph glyph-name="ij" unicode="&#x133;" horiz-adv-x="697" 
d="M171 626q-29 0 -49.5 17.5t-20.5 54.5q0 38 20.5 55t49.5 17t50 -17t21 -55q0 -37 -21 -54.5t-50 -17.5zM17 0v10h12q15 0 31.5 4.5t28 18t11.5 42.5v390q0 27 -12 40t-28.5 17t-30.5 4h-12v10h235v-461q0 -29 11.5 -42.5t28 -18t31.5 -4.5h12v-10h-318zM524 626
q-31 0 -52 17.5t-21 54.5q0 38 21 55t52 17q30 0 52 -17t22 -55q0 -37 -22 -54.5t-52 -17.5zM332 -240v10h7q55 0 84 38t29 140v512q0 43 -24 54.5t-56 11.5h-3v10h235v-544q0 -90 -32.5 -140.5t-89 -71t-130.5 -20.5h-20z" />
    <glyph glyph-name="Jcircumflex" unicode="&#x134;" horiz-adv-x="397" 
d="M-21 -240v10h18q32 0 61 17t47 56t18 106v694q0 40 -15 50.5t-36 10.5h-42v10h345v-10h-42q-22 0 -37 -11t-15 -54v-641q0 -68 -22 -114t-59.5 -73t-85.5 -39t-99 -12h-36zM25 771v10q18 19 41.5 45.5t46 54.5t39.5 50h101q17 -22 39.5 -50t45.5 -54.5t42 -45.5v-10h-10
q-21 12 -51 28.5t-61 35t-56 36.5q-25 -18 -55.5 -36.5t-60 -35t-51.5 -28.5h-10z" />
    <glyph glyph-name="jcircumflex" unicode="&#x135;" horiz-adv-x="345" 
d="M-4 -240v10h6q47 0 72.5 38t25.5 140v512q0 43 -24 54.5t-56 11.5h-3v10h235v-544q0 -90 -30.5 -140.5t-84 -71t-122.5 -20.5h-19zM-21 606v10q18 19 41.5 45.5t46 54.5t39.5 50h101q17 -22 39.5 -50t45.5 -54.5t42 -45.5v-10h-10q-21 12 -51 28.5t-61 35t-56 36.5
q-25 -18 -55.5 -36.5t-60 -35t-51.5 -28.5h-10z" />
    <glyph glyph-name="uni0136" unicode="&#x136;" horiz-adv-x="734" 
d="M28 0v10h42q21 0 36 10t15 50v573q0 40 -15 50.5t-36 10.5h-42v10h345v-10h-42q-22 0 -37 -11t-15 -54v-312l229 247q30 33 45.5 56t15.5 39q0 20 -21.5 27.5t-78.5 7.5v10h247v-10q-27 0 -47.5 -5t-45 -23.5t-62.5 -59.5l-148 -160l203 -322q32 -50 52 -77t34.5 -37
t29.5 -10h2v-10h-54q-76 0 -117.5 9.5t-64 30t-41.5 52.5l-148 252l-30 -32v-237q0 -43 15 -54t37 -11h42v-10h-345zM324 -221v10q11 30 22 73.5t17 76.5h90v-10q-13 -21 -33.5 -48t-43 -54t-42.5 -48h-10z" />
    <glyph glyph-name="uni0137" unicode="&#x137;" horiz-adv-x="636" 
d="M17 0v10h12q15 0 31.5 4.5t28 18t11.5 42.5v614q0 27 -12 40t-28.5 17t-30.5 4h-12v10h235v-432v-44.5t-1 -45.5l193 203q16 17 23.5 30.5t7.5 22.5q0 18 -27.5 25t-89.5 7v10h242v-10q-22 0 -40.5 -5.5t-41.5 -23.5t-59 -56l-81 -85l186 -277q30 -45 43.5 -57t26.5 -12
h2v-10h-14q-55 0 -92.5 2.5t-63.5 11t-46 26.5t-39 49l-103 162l-26 -27v-149q0 -29 11.5 -42.5t28 -18t31.5 -4.5h12v-10h-318zM268 -221v10q11 30 22 73.5t17 76.5h90v-10q-13 -21 -33.5 -48t-43 -54t-42.5 -48h-10z" />
    <glyph glyph-name="kgreenlandic" unicode="&#x138;" horiz-adv-x="636" 
d="M17 0v10h12q15 0 31.5 4.5t28 18t11.5 42.5v390q0 27 -12 40t-28.5 17t-30.5 4h-12v10h235v-208v-44.5t-1 -45.5l193 203q16 17 23.5 30.5t7.5 22.5q0 18 -27.5 25t-89.5 7v10h242v-10q-22 0 -40.5 -5.5t-41.5 -23.5t-59 -56l-81 -85l186 -277q30 -45 43.5 -57t26.5 -12
h2v-10h-14q-55 0 -92.5 2.5t-63.5 11t-46 26.5t-39 49l-103 162l-26 -27v-149q0 -29 11.5 -42.5t28 -18t31.5 -4.5h12v-10h-318z" />
    <glyph glyph-name="Lacute" unicode="&#x139;" horiz-adv-x="654" 
d="M28 0v10h42q22 0 36.5 11t14.5 54v564q0 43 -14.5 54t-36.5 11h-42v10h345v-10h-42q-21 0 -36 -10.5t-15 -50.5v-633h147q91 0 132.5 37t47.5 123l4 53h10l-8 -223h-585zM195 771v10q22 32 45 74t39 76h130v-10q-13 -13 -37.5 -32.5t-54 -41t-59 -41.5t-53.5 -35h-10z
" />
    <glyph glyph-name="lacute" unicode="&#x13a;" horiz-adv-x="352" 
d="M17 0v10h12q15 0 31.5 4.5t28 18t11.5 42.5v614q0 27 -12 40t-28.5 17t-30.5 4h-12v10h235v-685q0 -29 11.5 -42.5t28 -18t31.5 -4.5h12v-10h-318zM137 799v10q22 32 45 74t39 76h130v-10q-13 -13 -37.5 -32.5t-54 -41t-59 -41.5t-53.5 -35h-10z" />
    <glyph glyph-name="uni013B" unicode="&#x13b;" horiz-adv-x="654" 
d="M28 0v10h42q22 0 36.5 11t14.5 54v564q0 43 -14.5 54t-36.5 11h-42v10h345v-10h-42q-21 0 -36 -10.5t-15 -50.5v-633h147q91 0 132.5 37t47.5 123l4 53h10l-8 -223h-585zM256 -221v10q11 30 22 73.5t17 76.5h90v-10q-13 -21 -33.5 -48t-43 -54t-42.5 -48h-10z" />
    <glyph glyph-name="uni013C" unicode="&#x13c;" horiz-adv-x="352" 
d="M17 0v10h12q15 0 31.5 4.5t28 18t11.5 42.5v614q0 27 -12 40t-28.5 17t-30.5 4h-12v10h235v-685q0 -29 11.5 -42.5t28 -18t31.5 -4.5h12v-10h-318zM94 -221v10q11 30 22 73.5t17 76.5h90v-10q-13 -21 -33.5 -48t-43 -54t-42.5 -48h-10z" />
    <glyph glyph-name="Lcaron" unicode="&#x13d;" horiz-adv-x="654" 
d="M28 0v10h42q22 0 36.5 11t14.5 54v564q0 43 -14.5 54t-36.5 11h-42v10h345v-10h-42q-21 0 -36 -10.5t-15 -50.5v-633h147q91 0 132.5 37t47.5 123l4 53h10l-8 -223h-585zM464 554v13q10 30 21.5 72t17.5 75h90v-10q-13 -21 -32 -48t-41 -53.5t-41 -48.5h-15z" />
    <glyph glyph-name="lcaron" unicode="&#x13e;" horiz-adv-x="352" 
d="M17 0v10h12q15 0 31.5 4.5t28 18t11.5 42.5v614q0 27 -12 40t-28.5 17t-30.5 4h-12v10h235v-685q0 -29 11.5 -42.5t28 -18t31.5 -4.5h12v-10h-318zM320 600v13q10 30 21.5 72t17.5 75h90v-10q-13 -21 -32 -48t-41 -53.5t-41 -48.5h-15z" />
    <glyph glyph-name="Ldot" unicode="&#x13f;" horiz-adv-x="654" 
d="M28 0v10h42q22 0 36.5 11t14.5 54v564q0 43 -14.5 54t-36.5 11h-42v10h345v-10h-42q-21 0 -36 -10.5t-15 -50.5v-633h147q91 0 132.5 37t47.5 123l4 53h10l-8 -223h-585zM519 299q-29 0 -49.5 17.5t-20.5 54.5q0 38 20.5 55t49.5 17q28 0 49.5 -17t21.5 -55
q0 -37 -21.5 -54.5t-49.5 -17.5z" />
    <glyph glyph-name="ldot" unicode="&#x140;" horiz-adv-x="468" 
d="M17 0v10h12q15 0 31.5 4.5t28 18t11.5 42.5v614q0 27 -12 40t-28.5 17t-30.5 4h-12v10h235v-685q0 -29 11.5 -42.5t28 -18t31.5 -4.5h12v-10h-318zM406 256q-29 0 -49.5 17.5t-20.5 54.5q0 38 20.5 55t49.5 17q28 0 49.5 -17t21.5 -55q0 -37 -21.5 -54.5t-49.5 -17.5z
" />
    <glyph glyph-name="Lslash" unicode="&#x141;" horiz-adv-x="654" 
d="M28 0v10h42q22 0 36.5 11t14.5 54v231l-83 -48v12l83 48v321q0 43 -14.5 54t-36.5 11h-42v10h345v-10h-42q-21 0 -36 -10.5t-15 -50.5v-234l144 83v-12l-144 -83v-387h147q91 0 132.5 37t47.5 123l4 53h10l-8 -223h-585z" />
    <glyph glyph-name="lslash" unicode="&#x142;" horiz-adv-x="352" 
d="M17 0v10h12q15 0 31.5 4.5t28 18t11.5 42.5v218l-73 -42v11l73 42v385q0 27 -12 40t-28.5 17t-30.5 4h-12v10h235v-369l80 45v-11l-80 -45v-305q0 -29 11.5 -42.5t28 -18t31.5 -4.5h12v-10h-318z" />
    <glyph glyph-name="Nacute" unicode="&#x143;" horiz-adv-x="788" 
d="M28 0v10h62q21 0 36 11t15 54v568q0 40 -15.5 50.5t-35.5 10.5h-62v10h254l354 -539v468q0 40 -15.5 50.5t-35.5 10.5h-75v10h261v-10h-74q-21 0 -36 -11t-15 -54v-639h-60l-435 662v-587q0 -43 15 -54t36 -11h87v-10h-261zM375 771v10q22 32 45 74t39 76h130v-10
q-13 -13 -37.5 -32.5t-54 -41t-59 -41.5t-53.5 -35h-10z" />
    <glyph glyph-name="nacute" unicode="&#x144;" horiz-adv-x="667" 
d="M17 0v10h12q15 0 31.5 4.5t28 18t11.5 42.5v390q0 27 -12 40t-28.5 17t-30.5 4h-12v10h235v-91h2q12 45 34 67t51 29.5t58 7.5q88 0 131 -46t43 -147v-275q0 -47 16.5 -59t50.5 -12h3v-10h-222v389q0 65 -17.5 97.5t-57.5 32.5q-53 0 -72.5 -53t-19.5 -137v-254
q0 -29 11.5 -42.5t28 -18t31.5 -4.5h12v-10h-318zM297 606v10q22 32 45 74t39 76h130v-10q-13 -13 -37.5 -32.5t-54 -41t-59 -41.5t-53.5 -35h-10z" />
    <glyph glyph-name="uni0145" unicode="&#x145;" horiz-adv-x="788" 
d="M28 0v10h62q21 0 36 11t15 54v568q0 40 -15.5 50.5t-35.5 10.5h-62v10h254l354 -539v468q0 40 -15.5 50.5t-35.5 10.5h-75v10h261v-10h-74q-21 0 -36 -11t-15 -54v-639h-60l-435 662v-587q0 -43 15 -54t36 -11h87v-10h-261zM329 -221v10q11 30 22 73.5t17 76.5h90v-10
q-13 -21 -33.5 -48t-43 -54t-42.5 -48h-10z" />
    <glyph glyph-name="uni0146" unicode="&#x146;" horiz-adv-x="667" 
d="M17 0v10h12q15 0 31.5 4.5t28 18t11.5 42.5v390q0 27 -12 40t-28.5 17t-30.5 4h-12v10h235v-91h2q12 45 34 67t51 29.5t58 7.5q88 0 131 -46t43 -147v-275q0 -47 16.5 -59t50.5 -12h3v-10h-222v389q0 65 -17.5 97.5t-57.5 32.5q-53 0 -72.5 -53t-19.5 -137v-254
q0 -29 11.5 -42.5t28 -18t31.5 -4.5h12v-10h-318zM261 -221v10q11 30 22 73.5t17 76.5h90v-10q-13 -21 -33.5 -48t-43 -54t-42.5 -48h-10z" />
    <glyph glyph-name="Ncaron" unicode="&#x147;" horiz-adv-x="788" 
d="M28 0v10h62q21 0 36 11t15 54v568q0 40 -15.5 50.5t-35.5 10.5h-62v10h254l354 -539v468q0 40 -15.5 50.5t-35.5 10.5h-75v10h261v-10h-74q-21 0 -36 -11t-15 -54v-639h-60l-435 662v-587q0 -43 15 -54t36 -11h87v-10h-261zM365 771q-17 22 -39.5 50t-46 54.5t-41.5 45.5
v10h10q22 -12 51.5 -28.5t60 -35t55.5 -36.5q25 18 56 36.5t61 35t51 28.5h10v-10q-19 -19 -42 -45.5t-45.5 -54.5t-39.5 -50h-101z" />
    <glyph glyph-name="ncaron" unicode="&#x148;" horiz-adv-x="667" 
d="M17 0v10h12q15 0 31.5 4.5t28 18t11.5 42.5v390q0 27 -12 40t-28.5 17t-30.5 4h-12v10h235v-91h2q12 45 34 67t51 29.5t58 7.5q88 0 131 -46t43 -147v-275q0 -47 16.5 -59t50.5 -12h3v-10h-222v389q0 65 -17.5 97.5t-57.5 32.5q-53 0 -72.5 -53t-19.5 -137v-254
q0 -29 11.5 -42.5t28 -18t31.5 -4.5h12v-10h-318zM286 606q-17 22 -39.5 50t-46 54.5t-41.5 45.5v10h10q22 -12 51.5 -28.5t60 -35t55.5 -36.5q25 18 56 36.5t61 35t51 28.5h10v-10q-19 -19 -42 -45.5t-45.5 -54.5t-39.5 -50h-101z" />
    <glyph glyph-name="napostrophe" unicode="&#x149;" horiz-adv-x="855" 
d="M205 0v10h12q15 0 31.5 4.5t28 18t11.5 42.5v390q0 27 -12 40t-28.5 17t-30.5 4h-12v10h235v-91h2q12 45 34 67t51 29.5t58 7.5q88 0 131 -46t43 -147v-275q0 -47 16.5 -59t50.5 -12h3v-10h-222v389q0 65 -17.5 97.5t-57.5 32.5q-53 0 -72.5 -53t-19.5 -137v-254
q0 -29 11.5 -42.5t28 -18t31.5 -4.5h12v-10h-318zM15 408v10q43 16 75.5 37t32.5 65q0 24 -9.5 35t-23.5 16.5t-27.5 12t-23 19.5t-9.5 39q0 40 22 56t51 16q44 0 67.5 -29.5t23.5 -80.5q0 -64 -41 -117t-138 -79z" />
    <glyph glyph-name="Eng" unicode="&#x14a;" horiz-adv-x="788" 
d="M471 -240v10h14q73 0 112 57t39 163v5l-485 667v-587q0 -43 15 -54t36 -11h87v-10h-261v10h62q21 0 36 11t15 54v568q0 40 -15.5 50.5t-35.5 10.5h-62v10h254l354 -485v414q0 40 -15.5 50.5t-35.5 10.5h-75v10h261v-10h-74q-21 0 -36 -11t-15 -54v-647q0 -90 -17 -140.5
t-51 -71t-84 -20.5h-23z" />
    <glyph glyph-name="eng" unicode="&#x14b;" horiz-adv-x="667" 
d="M315 -240v10h6q47 0 72.5 38t25.5 140v441q0 65 -17.5 97.5t-57.5 32.5q-53 0 -72.5 -53t-19.5 -137v-254q0 -29 11.5 -42.5t28 -18t31.5 -4.5h12v-10h-318v10h12q15 0 31.5 4.5t28 18t11.5 42.5v390q0 27 -12 40t-28.5 17t-30.5 4h-12v10h235v-91h2q12 45 34 67t51 29.5
t58 7.5q88 0 131 -46t43 -147v-364q0 -90 -30.5 -140.5t-84 -71t-122.5 -20.5h-19z" />
    <glyph glyph-name="Omacron" unicode="&#x14c;" horiz-adv-x="787" 
d="M394 -10q-114 0 -189 46t-112.5 129t-37.5 194t37.5 193t112.5 127.5t190 45.5q108 0 183.5 -45.5t114.5 -128t39 -193.5t-39.5 -193.5t-115 -128.5t-183.5 -46zM394 0q89 0 129.5 85t40.5 273t-40 272.5t-129 84.5q-90 0 -131 -84.5t-41 -272.5t40.5 -273t130.5 -85z
M247 800v20h290v-20h-290z" />
    <glyph glyph-name="omacron" unicode="&#x14d;" horiz-adv-x="613" 
d="M305 -10q-120 0 -189 69.5t-69 210.5t66 210t195 69q120 0 189 -69t69 -210t-66.5 -210.5t-194.5 -69.5zM307 0q39 0 61.5 26t32.5 85t10 159t-10 158.5t-33 84.5t-62 26q-38 0 -61 -26t-33 -84.5t-10 -158.5t10 -159t33 -85t62 -26zM158 635v20h290v-20h-290z" />
    <glyph glyph-name="Obreve" unicode="&#x14e;" horiz-adv-x="787" 
d="M394 -10q-114 0 -189 46t-112.5 129t-37.5 194t37.5 193t112.5 127.5t190 45.5q108 0 183.5 -45.5t114.5 -128t39 -193.5t-39.5 -193.5t-115 -128.5t-183.5 -46zM394 0q89 0 129.5 85t40.5 273t-40 272.5t-129 84.5q-90 0 -131 -84.5t-41 -272.5t40.5 -273t130.5 -85z
M390 771q-52 0 -87.5 23.5t-53.5 60t-19 73.5h10q8 -36 39.5 -54.5t110.5 -18.5t110.5 18.5t39.5 54.5h10q-1 -37 -19 -73.5t-53.5 -60t-87.5 -23.5z" />
    <glyph glyph-name="obreve" unicode="&#x14f;" horiz-adv-x="613" 
d="M305 -10q-120 0 -189 69.5t-69 210.5t66 210t195 69q120 0 189 -69t69 -210t-66.5 -210.5t-194.5 -69.5zM307 0q39 0 61.5 26t32.5 85t10 159t-10 158.5t-33 84.5t-62 26q-38 0 -61 -26t-33 -84.5t-10 -158.5t10 -159t33 -85t62 -26zM304 606q-52 0 -87.5 23.5t-53.5 60
t-19 73.5h10q8 -36 39.5 -54.5t110.5 -18.5t110.5 18.5t39.5 54.5h10q-1 -37 -19 -73.5t-53.5 -60t-87.5 -23.5z" />
    <glyph glyph-name="Ohungarumlaut" unicode="&#x150;" horiz-adv-x="787" 
d="M394 -10q-114 0 -189 46t-112.5 129t-37.5 194t37.5 193t112.5 127.5t190 45.5q108 0 183.5 -45.5t114.5 -128t39 -193.5t-39.5 -193.5t-115 -128.5t-183.5 -46zM394 0q89 0 129.5 85t40.5 273t-40 272.5t-129 84.5q-90 0 -131 -84.5t-41 -272.5t40.5 -273t130.5 -85z
M258 771v10q18 32 38 74t34 76h100v-10q-11 -13 -31.5 -33t-44 -42t-46.5 -41.5t-40 -33.5h-10zM448 771v10q18 32 38 74t34 76h100v-10q-11 -13 -31.5 -33t-44 -42t-46.5 -41.5t-40 -33.5h-10z" />
    <glyph glyph-name="ohungarumlaut" unicode="&#x151;" horiz-adv-x="613" 
d="M305 -10q-120 0 -189 69.5t-69 210.5t66 210t195 69q120 0 189 -69t69 -210t-66.5 -210.5t-194.5 -69.5zM307 0q39 0 61.5 26t32.5 85t10 159t-10 158.5t-33 84.5t-62 26q-38 0 -61 -26t-33 -84.5t-10 -158.5t10 -159t33 -85t62 -26zM171 606v10q18 32 38 74t34 76h100
v-10q-11 -13 -31.5 -33t-44 -42t-46.5 -41.5t-40 -33.5h-10zM361 606v10q18 32 38 74t34 76h100v-10q-11 -13 -31.5 -33t-44 -42t-46.5 -41.5t-40 -33.5h-10z" />
    <glyph glyph-name="OE" unicode="&#x152;" horiz-adv-x="1019" 
d="M394 -10q-114 0 -189 46t-112.5 129t-37.5 194t37.5 193t112.5 127.5t190 45.5q25 0 54.5 -3t51.5 -8h446l6 -184h-10l-3 34q-7 76 -43.5 108t-116.5 32h-134v-326h237v-10h-237v-358h168q80 0 116.5 32t43.5 109l3 33h10l-7 -184h-482q-22 -4 -50.5 -7t-53.5 -3zM394 0
q54 0 93 29v656q-39 30 -92 30q-94 0 -133 -86.5t-39 -270.5t39 -271t132 -87z" />
    <glyph glyph-name="oe" unicode="&#x153;" horiz-adv-x="935" 
d="M305 -10q-120 0 -189 69.5t-69 210.5t66 210t195 69q57 0 102 -20.5t75 -61.5q61 82 174 82q109 0 171.5 -61t62.5 -180v-24h-328q0 -152 31 -217.5t102 -65.5q52 0 89.5 34.5t47.5 116.5q20 -4 28.5 -17t8.5 -30q0 -29 -22 -55t-65.5 -43t-109.5 -17q-123 0 -188 82
q-58 -82 -182 -82zM307 0q39 0 61.5 26t32.5 85t10 159t-10 158.5t-33 84.5t-62 26q-38 0 -61 -26t-33 -84.5t-10 -158.5t10 -159t33 -85t62 -26zM565 294h176q0 90 -7 144t-25 77.5t-50 23.5q-49 0 -71 -54.5t-23 -190.5z" />
    <glyph glyph-name="Racute" unicode="&#x154;" horiz-adv-x="707" 
d="M28 0v10h42q20 0 35.5 10t15.5 50v573q0 40 -15.5 50.5t-35.5 10.5h-42v10h322q142 0 208 -47.5t66 -137.5q0 -53 -20.5 -90t-54 -61t-73.5 -38l111 -189q37 -64 58.5 -94t35 -38.5t28.5 -8.5h2v-10h-33q-60 0 -101 7t-70 28t-52 63l-129 236h-47v-264q0 -40 15.5 -50
t35.5 -10h43v-10h-345zM279 344h56q64 0 92.5 43t28.5 137t-29 137t-94 43h-54v-360zM295 771v10q22 32 45 74t39 76h130v-10q-13 -13 -37.5 -32.5t-54 -41t-59 -41.5t-53.5 -35h-10z" />
    <glyph glyph-name="racute" unicode="&#x155;" horiz-adv-x="523" 
d="M20 0v10h9q15 0 31.5 4.5t28 18t11.5 42.5v390q0 27 -12 40t-28.5 17t-30.5 4h-4v10h227v-86h2q16 49 49.5 73.5t89.5 24.5q55 0 85 -23t30 -64q0 -43 -34 -67t-93 -24q0 76 -15 104.5t-43 28.5q-31 0 -51 -34.5t-20 -125.5v-268q0 -29 11.5 -42.5t28 -18t31.5 -4.5h31
v-10h-334zM207 606v10q22 32 45 74t39 76h130v-10q-13 -13 -37.5 -32.5t-54 -41t-59 -41.5t-53.5 -35h-10z" />
    <glyph glyph-name="uni0156" unicode="&#x156;" horiz-adv-x="707" 
d="M28 0v10h42q20 0 35.5 10t15.5 50v573q0 40 -15.5 50.5t-35.5 10.5h-42v10h322q142 0 208 -47.5t66 -137.5q0 -53 -20.5 -90t-54 -61t-73.5 -38l111 -189q37 -64 58.5 -94t35 -38.5t28.5 -8.5h2v-10h-33q-60 0 -101 7t-70 28t-52 63l-129 236h-47v-264q0 -40 15.5 -50
t35.5 -10h43v-10h-345zM279 344h56q64 0 92.5 43t28.5 137t-29 137t-94 43h-54v-360zM281 -221v10q11 30 22 73.5t17 76.5h90v-10q-13 -21 -33.5 -48t-43 -54t-42.5 -48h-10z" />
    <glyph glyph-name="uni0157" unicode="&#x157;" horiz-adv-x="523" 
d="M20 0v10h9q15 0 31.5 4.5t28 18t11.5 42.5v390q0 27 -12 40t-28.5 17t-30.5 4h-4v10h227v-86h2q16 49 49.5 73.5t89.5 24.5q55 0 85 -23t30 -64q0 -43 -34 -67t-93 -24q0 76 -15 104.5t-43 28.5q-31 0 -51 -34.5t-20 -125.5v-268q0 -29 11.5 -42.5t28 -18t31.5 -4.5h31
v-10h-334zM104 -221v10q11 30 22 73.5t17 76.5h90v-10q-13 -21 -33.5 -48t-43 -54t-42.5 -48h-10z" />
    <glyph glyph-name="Rcaron" unicode="&#x158;" horiz-adv-x="707" 
d="M28 0v10h42q20 0 35.5 10t15.5 50v573q0 40 -15.5 50.5t-35.5 10.5h-42v10h322q142 0 208 -47.5t66 -137.5q0 -53 -20.5 -90t-54 -61t-73.5 -38l111 -189q37 -64 58.5 -94t35 -38.5t28.5 -8.5h2v-10h-33q-60 0 -101 7t-70 28t-52 63l-129 236h-47v-264q0 -40 15.5 -50
t35.5 -10h43v-10h-345zM279 344h56q64 0 92.5 43t28.5 137t-29 137t-94 43h-54v-360zM277 771q-17 22 -39.5 50t-46 54.5t-41.5 45.5v10h10q22 -12 51.5 -28.5t60 -35t55.5 -36.5q25 18 56 36.5t61 35t51 28.5h10v-10q-19 -19 -42 -45.5t-45.5 -54.5t-39.5 -50h-101z" />
    <glyph glyph-name="rcaron" unicode="&#x159;" horiz-adv-x="523" 
d="M20 0v10h9q15 0 31.5 4.5t28 18t11.5 42.5v390q0 27 -12 40t-28.5 17t-30.5 4h-4v10h227v-86h2q16 49 49.5 73.5t89.5 24.5q55 0 85 -23t30 -64q0 -43 -34 -67t-93 -24q0 76 -15 104.5t-43 28.5q-31 0 -51 -34.5t-20 -125.5v-268q0 -29 11.5 -42.5t28 -18t31.5 -4.5h31
v-10h-334zM216 606q-17 22 -39.5 50t-46 54.5t-41.5 45.5v10h10q22 -12 51.5 -28.5t60 -35t55.5 -36.5q25 18 56 36.5t61 35t51 28.5h10v-10q-19 -19 -42 -45.5t-45.5 -54.5t-39.5 -50h-101z" />
    <glyph glyph-name="Sacute" unicode="&#x15a;" horiz-adv-x="586" 
d="M255 -10q-83 0 -132 21.5t-71 54.5t-22 67q0 33 16 52.5t42 28.5t55 9q0 -92 17.5 -140t47.5 -65.5t69 -17.5q60 0 98.5 32t38.5 96q0 46 -21 77t-60.5 54t-95.5 46q-70 29 -111 60.5t-58.5 70t-17.5 87.5q0 91 68.5 146t189.5 55q95 0 147.5 -33.5t52.5 -81.5
q0 -36 -31 -60t-92 -24q0 97 -24.5 142t-83.5 45q-26 0 -52 -10t-43 -35t-17 -71q0 -38 17 -67.5t56 -55t106 -52.5q104 -42 148 -90.5t44 -121.5q0 -65 -33 -114t-95.5 -77t-152.5 -28zM272 771v10q22 32 45 74t39 76h130v-10q-13 -13 -37.5 -32.5t-54 -41t-59 -41.5
t-53.5 -35h-10z" />
    <glyph glyph-name="sacute" unicode="&#x15b;" horiz-adv-x="488" 
d="M221 -10q-97 0 -144 33.5t-47 83.5q0 33 16 49t38 21.5t39 5.5q0 -103 26 -143t84 -40q48 0 77.5 24t29.5 75q0 33 -14 52.5t-43.5 34t-75.5 31.5q-45 17 -83 37t-61 51t-23 83q0 81 58.5 120.5t157.5 39.5q94 0 134 -29.5t40 -67.5q0 -29 -23.5 -47t-78.5 -18
q0 85 -22 118.5t-66 33.5q-21 0 -42 -8t-35 -28t-14 -55q0 -32 14.5 -51t46.5 -34.5t86 -34.5q46 -17 80 -37.5t53 -51t19 -77.5q0 -79 -57.5 -125t-169.5 -46zM215 606v10q22 32 45 74t39 76h130v-10q-13 -13 -37.5 -32.5t-54 -41t-59 -41.5t-53.5 -35h-10z" />
    <glyph glyph-name="Scircumflex" unicode="&#x15c;" horiz-adv-x="586" 
d="M255 -10q-83 0 -132 21.5t-71 54.5t-22 67q0 33 16 52.5t42 28.5t55 9q0 -92 17.5 -140t47.5 -65.5t69 -17.5q60 0 98.5 32t38.5 96q0 46 -21 77t-60.5 54t-95.5 46q-70 29 -111 60.5t-58.5 70t-17.5 87.5q0 91 68.5 146t189.5 55q95 0 147.5 -33.5t52.5 -81.5
q0 -36 -31 -60t-92 -24q0 97 -24.5 142t-83.5 45q-26 0 -52 -10t-43 -35t-17 -71q0 -38 17 -67.5t56 -55t106 -52.5q104 -42 148 -90.5t44 -121.5q0 -65 -33 -114t-95.5 -77t-152.5 -28zM120 771v10q18 19 41.5 45.5t46 54.5t39.5 50h101q17 -22 39.5 -50t45.5 -54.5
t42 -45.5v-10h-10q-21 12 -51 28.5t-61 35t-56 36.5q-25 -18 -55.5 -36.5t-60 -35t-51.5 -28.5h-10z" />
    <glyph glyph-name="scircumflex" unicode="&#x15d;" horiz-adv-x="488" 
d="M221 -10q-97 0 -144 33.5t-47 83.5q0 33 16 49t38 21.5t39 5.5q0 -103 26 -143t84 -40q48 0 77.5 24t29.5 75q0 33 -14 52.5t-43.5 34t-75.5 31.5q-45 17 -83 37t-61 51t-23 83q0 81 58.5 120.5t157.5 39.5q94 0 134 -29.5t40 -67.5q0 -29 -23.5 -47t-78.5 -18
q0 85 -22 118.5t-66 33.5q-21 0 -42 -8t-35 -28t-14 -55q0 -32 14.5 -51t46.5 -34.5t86 -34.5q46 -17 80 -37.5t53 -51t19 -77.5q0 -79 -57.5 -125t-169.5 -46zM67 606v10q18 19 41.5 45.5t46 54.5t39.5 50h101q17 -22 39.5 -50t45.5 -54.5t42 -45.5v-10h-10
q-21 12 -51 28.5t-61 35t-56 36.5q-25 -18 -55.5 -36.5t-60 -35t-51.5 -28.5h-10z" />
    <glyph glyph-name="Scedilla" unicode="&#x15e;" horiz-adv-x="586" 
d="M255 -10q-83 0 -132 21.5t-71 54.5t-22 67q0 33 16 52.5t42 28.5t55 9q0 -92 17.5 -140t47.5 -65.5t69 -17.5q60 0 98.5 32t38.5 96q0 46 -21 77t-60.5 54t-95.5 46q-70 29 -111 60.5t-58.5 70t-17.5 87.5q0 91 68.5 146t189.5 55q95 0 147.5 -33.5t52.5 -81.5
q0 -36 -31 -60t-92 -24q0 97 -24.5 142t-83.5 45q-26 0 -52 -10t-43 -35t-17 -71q0 -38 17 -67.5t56 -55t106 -52.5q104 -42 148 -90.5t44 -121.5q0 -65 -33 -114t-95.5 -77t-152.5 -28zM247 -249q-16 0 -42.5 3t-44.5 8v11q30 -9 53 -9q42 0 63.5 26t21.5 71q0 30 -10 45
t-24 20t-25 7l16 67h10l-14 -60q66 0 102 -22.5t36 -64.5q0 -49 -37 -75.5t-105 -26.5z" />
    <glyph glyph-name="scedilla" unicode="&#x15f;" horiz-adv-x="488" 
d="M221 -10q-97 0 -144 33.5t-47 83.5q0 33 16 49t38 21.5t39 5.5q0 -103 26 -143t84 -40q48 0 77.5 24t29.5 75q0 33 -14 52.5t-43.5 34t-75.5 31.5q-45 17 -83 37t-61 51t-23 83q0 81 58.5 120.5t157.5 39.5q94 0 134 -29.5t40 -67.5q0 -29 -23.5 -47t-78.5 -18
q0 85 -22 118.5t-66 33.5q-21 0 -42 -8t-35 -28t-14 -55q0 -32 14.5 -51t46.5 -34.5t86 -34.5q46 -17 80 -37.5t53 -51t19 -77.5q0 -79 -57.5 -125t-169.5 -46zM202 -249q-16 0 -42.5 3t-44.5 8v11q30 -9 53 -9q42 0 63.5 26t21.5 71q0 30 -10 45t-24 20t-25 7l16 67h10
l-14 -60q66 0 102 -22.5t36 -64.5q0 -49 -37 -75.5t-105 -26.5z" />
    <glyph glyph-name="Scaron" unicode="&#x160;" horiz-adv-x="586" 
d="M255 -10q-83 0 -132 21.5t-71 54.5t-22 67q0 33 16 52.5t42 28.5t55 9q0 -92 17.5 -140t47.5 -65.5t69 -17.5q60 0 98.5 32t38.5 96q0 46 -21 77t-60.5 54t-95.5 46q-70 29 -111 60.5t-58.5 70t-17.5 87.5q0 91 68.5 146t189.5 55q95 0 147.5 -33.5t52.5 -81.5
q0 -36 -31 -60t-92 -24q0 97 -24.5 142t-83.5 45q-26 0 -52 -10t-43 -35t-17 -71q0 -38 17 -67.5t56 -55t106 -52.5q104 -42 148 -90.5t44 -121.5q0 -65 -33 -114t-95.5 -77t-152.5 -28zM247 771q-17 22 -39.5 50t-46 54.5t-41.5 45.5v10h10q22 -12 51.5 -28.5t60 -35
t55.5 -36.5q25 18 56 36.5t61 35t51 28.5h10v-10q-19 -19 -42 -45.5t-45.5 -54.5t-39.5 -50h-101z" />
    <glyph glyph-name="scaron" unicode="&#x161;" horiz-adv-x="488" 
d="M221 -10q-97 0 -144 33.5t-47 83.5q0 33 16 49t38 21.5t39 5.5q0 -103 26 -143t84 -40q48 0 77.5 24t29.5 75q0 33 -14 52.5t-43.5 34t-75.5 31.5q-45 17 -83 37t-61 51t-23 83q0 81 58.5 120.5t157.5 39.5q94 0 134 -29.5t40 -67.5q0 -29 -23.5 -47t-78.5 -18
q0 85 -22 118.5t-66 33.5q-21 0 -42 -8t-35 -28t-14 -55q0 -32 14.5 -51t46.5 -34.5t86 -34.5q46 -17 80 -37.5t53 -51t19 -77.5q0 -79 -57.5 -125t-169.5 -46zM193 606q-17 22 -39.5 50t-46 54.5t-41.5 45.5v10h10q22 -12 51.5 -28.5t60 -35t55.5 -36.5q25 18 56 36.5
t61 35t51 28.5h10v-10q-19 -19 -42 -45.5t-45.5 -54.5t-39.5 -50h-101z" />
    <glyph glyph-name="uni021A" unicode="&#x21a;" horiz-adv-x="653" 
d="M154 0v10h42q22 0 36.5 11t14.5 54v629h-64q-81 0 -118 -32t-42 -108l-3 -44h-10l7 194h619l7 -194h-10l-3 44q-5 76 -42 108t-118 32h-64v-629q0 -43 14.5 -54t36.5 -11h42v-10h-345zM249 -221v10q11 30 22 73.5t17 76.5h90v-10q-13 -21 -33.5 -48t-43 -54t-42.5 -48
h-10z" />
    <glyph glyph-name="uni021B" unicode="&#x21b;" horiz-adv-x="405" 
d="M243 -10q-67 0 -107 35t-40 123v378h-75v10q98 0 150 42q49 40 67 122h10v-164h128v-10h-128v-423q0 -47 18 -69t53 -22q28 0 66 13v-10q-16 -7 -52.5 -16t-89.5 -9zM142 -221v10q11 30 22 73.5t17 76.5h90v-10q-13 -21 -33.5 -48t-43 -54t-42.5 -48h-10z" />
    <glyph glyph-name="Tcaron" unicode="&#x164;" horiz-adv-x="653" 
d="M154 0v10h42q22 0 36.5 11t14.5 54v629h-64q-81 0 -118 -32t-42 -108l-3 -44h-10l7 194h619l7 -194h-10l-3 44q-5 76 -42 108t-118 32h-64v-629q0 -43 14.5 -54t36.5 -11h42v-10h-345zM276 771q-17 22 -39.5 50t-46 54.5t-41.5 45.5v10h10q22 -12 51.5 -28.5t60 -35
t55.5 -36.5q25 18 56 36.5t61 35t51 28.5h10v-10q-19 -19 -42 -45.5t-45.5 -54.5t-39.5 -50h-101z" />
    <glyph glyph-name="tcaron" unicode="&#x165;" horiz-adv-x="405" 
d="M243 -10q-67 0 -107 35t-40 123v378h-75v10q98 0 150 42q49 40 67 122h10v-164h128v-10h-128v-423q0 -47 18 -69t53 -22q28 0 66 13v-10q-16 -7 -52.5 -16t-89.5 -9zM320 600v13q10 30 21.5 72t17.5 75h90v-10q-13 -21 -32 -48t-41 -53.5t-41 -48.5h-15z" />
    <glyph glyph-name="Tbar" unicode="&#x166;" horiz-adv-x="653" 
d="M154 0v10h42q22 0 36.5 11t14.5 54v276h-144v10h144v343h-64q-81 0 -118 -32t-42 -108l-3 -44h-10l7 194h619l7 -194h-10l-3 44q-5 76 -42 108t-118 32h-64v-343h144v-10h-144v-276q0 -43 14.5 -54t36.5 -11h42v-10h-345z" />
    <glyph glyph-name="tbar" unicode="&#x167;" horiz-adv-x="405" 
d="M243 -10q-67 0 -107 35t-40 123v155h-69v10h69v213h-75v10q98 0 150 42q49 40 67 122h10v-164h128v-10h-128v-213h112v-10h-112v-200q0 -47 18 -69t53 -22q28 0 66 13v-10q-16 -7 -52.5 -16t-89.5 -9z" />
    <glyph glyph-name="Utilde" unicode="&#x168;" horiz-adv-x="747" 
d="M387 -10q-131 0 -204 52.5t-73 175.5v425q0 40 -15.5 50.5t-35.5 10.5h-43v10h345v-10h-42q-21 0 -36 -11t-15 -54v-485q0 -84 40.5 -116.5t108.5 -32.5q95 0 147.5 53.5t52.5 147.5v437q0 40 -15 50.5t-36 10.5h-62v10h227v-10h-53q-21 0 -36 -11t-15 -54v-433
q0 -107 -62 -161.5t-178 -54.5zM474 771q-27 0 -51 11t-47 25.5t-46.5 25.5t-50.5 11q-37 0 -50 -20.5t-17 -42.5h-10q2 40 18.5 74t44 54t61.5 20q27 0 51.5 -11t48 -25.5t47 -25.5t49.5 -11q34 0 48 20.5t18 42.5h10q-2 -42 -18.5 -75.5t-44 -53t-61.5 -19.5z" />
    <glyph glyph-name="utilde" unicode="&#x169;" horiz-adv-x="667" 
d="M270 -10q-88 0 -131 46t-43 147v272q0 47 -16.5 59t-50.5 12h-3v10h222v-386q0 -64 17 -97t58 -33q53 0 72.5 53t19.5 137v251q0 29 -11.5 42.5t-28.5 18t-31 4.5h-4v10h227v-465q0 -27 12 -40t28.5 -17t30.5 -4h4v-10h-227v94h-2q-11 -45 -34 -67t-51 -29.5t-58 -7.5z
M403 606q-27 0 -51 11t-47 25.5t-46.5 25.5t-50.5 11q-37 0 -50 -20.5t-17 -42.5h-10q2 40 18.5 74t44 54t61.5 20q27 0 51.5 -11t48 -25.5t47 -25.5t49.5 -11q34 0 48 20.5t18 42.5h10q-2 -42 -18.5 -75.5t-44 -53t-61.5 -19.5z" />
    <glyph glyph-name="Umacron" unicode="&#x16a;" horiz-adv-x="747" 
d="M387 -10q-131 0 -204 52.5t-73 175.5v425q0 40 -15.5 50.5t-35.5 10.5h-43v10h345v-10h-42q-21 0 -36 -11t-15 -54v-485q0 -84 40.5 -116.5t108.5 -32.5q95 0 147.5 53.5t52.5 147.5v437q0 40 -15 50.5t-36 10.5h-62v10h227v-10h-53q-21 0 -36 -11t-15 -54v-433
q0 -107 -62 -161.5t-178 -54.5zM257 800v20h290v-20h-290z" />
    <glyph glyph-name="umacron" unicode="&#x16b;" horiz-adv-x="667" 
d="M270 -10q-88 0 -131 46t-43 147v272q0 47 -16.5 59t-50.5 12h-3v10h222v-386q0 -64 17 -97t58 -33q53 0 72.5 53t19.5 137v251q0 29 -11.5 42.5t-28.5 18t-31 4.5h-4v10h227v-465q0 -27 12 -40t28.5 -17t30.5 -4h4v-10h-227v94h-2q-11 -45 -34 -67t-51 -29.5t-58 -7.5z
M176 635v20h290v-20h-290z" />
    <glyph glyph-name="Ubreve" unicode="&#x16c;" horiz-adv-x="747" 
d="M387 -10q-131 0 -204 52.5t-73 175.5v425q0 40 -15.5 50.5t-35.5 10.5h-43v10h345v-10h-42q-21 0 -36 -11t-15 -54v-485q0 -84 40.5 -116.5t108.5 -32.5q95 0 147.5 53.5t52.5 147.5v437q0 40 -15 50.5t-36 10.5h-62v10h227v-10h-53q-21 0 -36 -11t-15 -54v-433
q0 -107 -62 -161.5t-178 -54.5zM394 771q-52 0 -87.5 23.5t-53.5 60t-19 73.5h10q8 -36 39.5 -54.5t110.5 -18.5t110.5 18.5t39.5 54.5h10q-1 -37 -19 -73.5t-53.5 -60t-87.5 -23.5z" />
    <glyph glyph-name="ubreve" unicode="&#x16d;" horiz-adv-x="667" 
d="M270 -10q-88 0 -131 46t-43 147v272q0 47 -16.5 59t-50.5 12h-3v10h222v-386q0 -64 17 -97t58 -33q53 0 72.5 53t19.5 137v251q0 29 -11.5 42.5t-28.5 18t-31 4.5h-4v10h227v-465q0 -27 12 -40t28.5 -17t30.5 -4h4v-10h-227v94h-2q-11 -45 -34 -67t-51 -29.5t-58 -7.5z
M327 606q-52 0 -87.5 23.5t-53.5 60t-19 73.5h10q8 -36 39.5 -54.5t110.5 -18.5t110.5 18.5t39.5 54.5h10q-1 -37 -19 -73.5t-53.5 -60t-87.5 -23.5z" />
    <glyph glyph-name="Uring" unicode="&#x16e;" horiz-adv-x="747" 
d="M387 -10q-131 0 -204 52.5t-73 175.5v425q0 40 -15.5 50.5t-35.5 10.5h-43v10h345v-10h-42q-21 0 -36 -11t-15 -54v-485q0 -84 40.5 -116.5t108.5 -32.5q95 0 147.5 53.5t52.5 147.5v437q0 40 -15 50.5t-36 10.5h-62v10h227v-10h-53q-21 0 -36 -11t-15 -54v-433
q0 -107 -62 -161.5t-178 -54.5zM381 761q-50 0 -85 28t-35 81t35 81t85 28t85 -28t35 -81t-35 -81t-85 -28zM381 771q48 0 78 25t30 74t-30 74t-78 25t-78 -25t-30 -74t30 -74t78 -25z" />
    <glyph glyph-name="uring" unicode="&#x16f;" horiz-adv-x="667" 
d="M270 -10q-88 0 -131 46t-43 147v272q0 47 -16.5 59t-50.5 12h-3v10h222v-386q0 -64 17 -97t58 -33q53 0 72.5 53t19.5 137v251q0 29 -11.5 42.5t-28.5 18t-31 4.5h-4v10h227v-465q0 -27 12 -40t28.5 -17t30.5 -4h4v-10h-227v94h-2q-11 -45 -34 -67t-51 -29.5t-58 -7.5z
M319 596q-50 0 -85 28t-35 81t35 81t85 28t85 -28t35 -81t-35 -81t-85 -28zM319 606q48 0 78 25t30 74t-30 74t-78 25t-78 -25t-30 -74t30 -74t78 -25z" />
    <glyph glyph-name="Uhungarumlaut" unicode="&#x170;" horiz-adv-x="747" 
d="M387 -10q-131 0 -204 52.5t-73 175.5v425q0 40 -15.5 50.5t-35.5 10.5h-43v10h345v-10h-42q-21 0 -36 -11t-15 -54v-485q0 -84 40.5 -116.5t108.5 -32.5q95 0 147.5 53.5t52.5 147.5v437q0 40 -15 50.5t-36 10.5h-62v10h227v-10h-53q-21 0 -36 -11t-15 -54v-433
q0 -107 -62 -161.5t-178 -54.5zM270 771v10q18 32 38 74t34 76h100v-10q-11 -13 -31.5 -33t-44 -42t-46.5 -41.5t-40 -33.5h-10zM460 771v10q18 32 38 74t34 76h100v-10q-11 -13 -31.5 -33t-44 -42t-46.5 -41.5t-40 -33.5h-10z" />
    <glyph glyph-name="uhungarumlaut" unicode="&#x171;" horiz-adv-x="667" 
d="M270 -10q-88 0 -131 46t-43 147v272q0 47 -16.5 59t-50.5 12h-3v10h222v-386q0 -64 17 -97t58 -33q53 0 72.5 53t19.5 137v251q0 29 -11.5 42.5t-28.5 18t-31 4.5h-4v10h227v-465q0 -27 12 -40t28.5 -17t30.5 -4h4v-10h-227v94h-2q-11 -45 -34 -67t-51 -29.5t-58 -7.5z
M194 606v10q18 32 38 74t34 76h100v-10q-11 -13 -31.5 -33t-44 -42t-46.5 -41.5t-40 -33.5h-10zM384 606v10q18 32 38 74t34 76h100v-10q-11 -13 -31.5 -33t-44 -42t-46.5 -41.5t-40 -33.5h-10z" />
    <glyph glyph-name="Uogonek" unicode="&#x172;" horiz-adv-x="757" 
d="M397 -10q-131 0 -204 52.5t-73 175.5v425q0 40 -15.5 50.5t-35.5 10.5h-43v10h345v-10h-42q-21 0 -36 -11t-15 -54v-485q0 -84 40.5 -116.5t108.5 -32.5q95 0 147.5 53.5t52.5 147.5v437q0 40 -15 50.5t-36 10.5h-62v10h227v-10h-53q-21 0 -36 -11t-15 -54v-433
q0 -107 -62 -161.5t-178 -54.5zM427 -240q-64 0 -103.5 28.5t-39.5 80.5q0 25 13 50t48.5 46t100.5 35h33q-48 -9 -75.5 -39t-27.5 -85q0 -48 21.5 -73t61.5 -25q26 0 59 9v-11q-16 -8 -41.5 -12t-49.5 -4z" />
    <glyph glyph-name="uogonek" unicode="&#x173;" horiz-adv-x="667" 
d="M270 -10q-88 0 -131 46t-43 147v272q0 47 -16.5 59t-50.5 12h-3v10h222v-386q0 -64 17 -97t58 -33q53 0 72.5 53t19.5 137v251q0 29 -11.5 42.5t-28.5 18t-31 4.5h-4v10h227v-465q0 -27 12 -40t28.5 -17t30.5 -4h4v-10h-227v94h-2q-11 -45 -34 -67t-51 -29.5t-58 -7.5z
M468 -240q-64 0 -103.5 28.5t-39.5 80.5q0 25 13 50t48 46t101 35h33q-48 -9 -75.5 -39t-27.5 -85q0 -48 21.5 -73t61.5 -25q26 0 59 9v-11q-16 -8 -41.5 -12t-49.5 -4z" />
    <glyph glyph-name="Wcircumflex" unicode="&#x174;" horiz-adv-x="1067" 
d="M267 0l-196 651q-10 31 -25.5 42t-43.5 11h-2v10h334v-10h-36q-60 0 -60 -48q0 -8 3 -24t7 -30l80 -274q18 -62 33.5 -123t34.5 -141q5 25 12 53t15 61l129 529h72l128 -382q12 -35 25.5 -82t26.5 -93t21 -75q8 39 18.5 85.5t20.5 89.5t17 70l66 283q4 16 6 28.5t2 23.5
q0 27 -15.5 38t-49.5 11h-54v10h231v-10h-28q-33 0 -50 -17t-27 -62l-145 -625h-114l-178 553l-135 -553h-123zM387 771v10q18 19 41.5 45.5t46 54.5t39.5 50h101q17 -22 39.5 -50t45.5 -54.5t42 -45.5v-10h-10q-21 12 -51 28.5t-61 35t-56 36.5q-25 -18 -55.5 -36.5
t-60 -35t-51.5 -28.5h-10z" />
    <glyph glyph-name="wcircumflex" unicode="&#x175;" horiz-adv-x="856" 
d="M199 0l-141 473q-10 32 -24 42.5t-34 10.5h-3v10h293v-10h-26q-30 0 -45 -8.5t-15 -33.5q0 -8 2.5 -20t5.5 -23l50 -173q8 -26 18 -62.5t20 -71.5t16 -58h2q4 17 8 30t8 28l111 397h64l98 -295q12 -35 24 -74.5t22 -75.5h3q4 16 11 42.5t15.5 56t15.5 54.5l53 188
q4 13 6.5 27.5t2.5 22.5q0 49 -66 49h-34v10h197v-10h-17q-27 0 -43.5 -15t-29.5 -64l-126 -447h-94l-129 396l-111 -396h-108zM281 606v10q18 19 41.5 45.5t46 54.5t39.5 50h101q17 -22 39.5 -50t45.5 -54.5t42 -45.5v-10h-10q-21 12 -51 28.5t-61 35t-56 36.5
q-25 -18 -55.5 -36.5t-60 -35t-51.5 -28.5h-10z" />
    <glyph glyph-name="Ycircumflex" unicode="&#x176;" horiz-adv-x="693" 
d="M164 0v10h47q24 0 41 9t17 52v204l-198 376q-16 30 -28.5 41.5t-30.5 11.5h-12v10h335v-10h-30q-34 0 -50 -8t-16 -27q0 -23 21 -65l102 -200q17 -33 31 -59.5t29 -58.5q16 38 32.5 74.5t32.5 70.5l75 163q10 23 16 40t6 30q0 22 -17.5 31t-54.5 9h-71v10h252v-10h-29
q-22 0 -38.5 -17t-37.5 -62l-160 -347v-206q0 -44 16.5 -53t39.5 -9h49v-10h-369zM174 771v10q18 19 41.5 45.5t46 54.5t39.5 50h101q17 -22 39.5 -50t45.5 -54.5t42 -45.5v-10h-10q-21 12 -51 28.5t-61 35t-56 36.5q-25 -18 -55.5 -36.5t-60 -35t-51.5 -28.5h-10z" />
    <glyph glyph-name="ycircumflex" unicode="&#x177;" horiz-adv-x="579" 
d="M31 -240v10q68 0 111.5 11.5t70.5 35t46 60t40 86.5l-243 515q-13 27 -23.5 37.5t-26.5 10.5h-6v10h287l1 -10h-20q-29 0 -43 -7t-14 -24t12 -45l98 -225q17 -39 25 -56.5t15 -35.5q7 21 14.5 39.5t12.5 33.5l85 230q12 32 12 51q0 22 -15.5 30.5t-50.5 8.5h-42v10h202
v-10h-2q-34 0 -53.5 -17t-35.5 -61l-166 -452q-26 -72 -50 -118t-54 -72t-74 -36t-110 -10h-3zM118 606v10q18 19 41.5 45.5t46 54.5t39.5 50h101q17 -22 39.5 -50t45.5 -54.5t42 -45.5v-10h-10q-21 12 -51 28.5t-61 35t-56 36.5q-25 -18 -55.5 -36.5t-60 -35t-51.5 -28.5
h-10z" />
    <glyph glyph-name="Ydieresis" unicode="&#x178;" horiz-adv-x="693" 
d="M164 0v10h47q24 0 41 9t17 52v204l-198 376q-16 30 -28.5 41.5t-30.5 11.5h-12v10h335v-10h-30q-34 0 -50 -8t-16 -27q0 -23 21 -65l102 -200q17 -33 31 -59.5t29 -58.5q16 38 32.5 74.5t32.5 70.5l75 163q10 23 16 40t6 30q0 22 -17.5 31t-54.5 9h-71v10h252v-10h-29
q-22 0 -38.5 -17t-37.5 -62l-160 -347v-206q0 -44 16.5 -53t39.5 -9h49v-10h-369zM461 791q-19 0 -34 14t-15 48t15 48t34 14t33.5 -14t14.5 -48t-14.5 -48t-33.5 -14zM255 791q-19 0 -33.5 14t-14.5 48t14.5 48t33.5 14t34 -14t15 -48t-15 -48t-34 -14z" />
    <glyph glyph-name="Zacute" unicode="&#x179;" horiz-adv-x="666" 
d="M42 0v10l387 694h-194q-83 0 -119.5 -32t-40.5 -108l-3 -56h-11l7 206h532v-10l-387 -694h235q81 0 117.5 32t42.5 108l4 56h10l-7 -206h-573zM289 771v10q22 32 45 74t39 76h130v-10q-13 -13 -37.5 -32.5t-54 -41t-59 -41.5t-53.5 -35h-10z" />
    <glyph glyph-name="zacute" unicode="&#x17a;" horiz-adv-x="529" 
d="M18 0v10l320 516h-132q-70 0 -104.5 -30t-44.5 -100l-3 -22h-10l12 162h432v-10l-320 -516h168q77 0 111 30t39 101l3 40h10l-6 -181h-475zM230 606v10q22 32 45 74t39 76h130v-10q-13 -13 -37.5 -32.5t-54 -41t-59 -41.5t-53.5 -35h-10z" />
    <glyph glyph-name="Zdotaccent" unicode="&#x17b;" horiz-adv-x="666" 
d="M42 0v10l387 694h-194q-83 0 -119.5 -32t-40.5 -108l-3 -56h-11l7 206h532v-10l-387 -694h235q81 0 117.5 32t42.5 108l4 56h10l-7 -206h-573zM350 791q-29 0 -49.5 17.5t-20.5 54.5q0 38 20.5 55t49.5 17q28 0 49.5 -17t21.5 -55q0 -37 -21.5 -54.5t-49.5 -17.5z" />
    <glyph glyph-name="zdotaccent" unicode="&#x17c;" horiz-adv-x="529" 
d="M18 0v10l320 516h-132q-70 0 -104.5 -30t-44.5 -100l-3 -22h-10l12 162h432v-10l-320 -516h168q77 0 111 30t39 101l3 40h10l-6 -181h-475zM284 626q-29 0 -49.5 17.5t-20.5 54.5q0 38 20.5 55t49.5 17q28 0 49.5 -17t21.5 -55q0 -37 -21.5 -54.5t-49.5 -17.5z" />
    <glyph glyph-name="Zcaron" unicode="&#x17d;" horiz-adv-x="666" 
d="M42 0v10l387 694h-194q-83 0 -119.5 -32t-40.5 -108l-3 -56h-11l7 206h532v-10l-387 -694h235q81 0 117.5 32t42.5 108l4 56h10l-7 -206h-573zM292 771q-17 22 -39.5 50t-46 54.5t-41.5 45.5v10h10q22 -12 51.5 -28.5t60 -35t55.5 -36.5q25 18 56 36.5t61 35t51 28.5h10
v-10q-19 -19 -42 -45.5t-45.5 -54.5t-39.5 -50h-101z" />
    <glyph glyph-name="zcaron" unicode="&#x17e;" horiz-adv-x="529" 
d="M18 0v10l320 516h-132q-70 0 -104.5 -30t-44.5 -100l-3 -22h-10l12 162h432v-10l-320 -516h168q77 0 111 30t39 101l3 40h10l-6 -181h-475zM228 606q-17 22 -39.5 50t-46 54.5t-41.5 45.5v10h10q22 -12 51.5 -28.5t60 -35t55.5 -36.5q25 18 56 36.5t61 35t51 28.5h10v-10
q-19 -19 -42 -45.5t-45.5 -54.5t-39.5 -50h-101z" />
    <glyph glyph-name="longs" unicode="&#x17f;" horiz-adv-x="392" 
d="M7 0v10h22q15 0 31.5 4.5t28 18t11.5 42.5v498q0 93 49 144.5t155 51.5q64 0 100.5 -9.5t51.5 -26.5t15 -37q0 -65 -123 -65q0 73 -10.5 100.5t-36.5 27.5q-29 0 -39 -26t-10 -95v-563q0 -29 11.5 -42.5t28 -18t31.5 -4.5h47v-10h-363z" />
    <glyph glyph-name="florin" unicode="&#x192;" horiz-adv-x="559" 
d="M142 -240q-24 0 -49.5 4t-44.5 9v10q38 -11 60 -11q49 0 63 42t14 128v468h-99v10h99v113q0 86 46.5 138.5t142.5 52.5q86 0 123 -28t37 -66q0 -28 -23 -47.5t-79 -19.5q0 86 -10.5 118.5t-36.5 32.5q-28 0 -38 -25t-10 -92v-177h126v-10h-126v-417q0 -90 -23 -140.5
t-66.5 -71.5t-105.5 -21z" />
    <glyph glyph-name="Aringacute" unicode="&#x1fa;" horiz-adv-x="753" 
d="M327 830v15q22 22 44.5 52.5t39.5 60.5h130v-10q-17 -16 -52.5 -37.5t-75 -43.5t-71.5 -37h-15zM4 0v10h41q25 0 41.5 16.5t34.5 60.5l207 507q-32 11 -50 37.5t-18 63.5q0 51 32.5 80.5t88.5 29.5q55 0 87 -29.5t32 -80.5q0 -56 -37 -84l208 -520q19 -47 36 -64t43 -17
h3v-10h-330v10h52q47 0 47 33q0 20 -13 55l-52 141h-264l-52 -129q-17 -43 -17 -65q0 -19 12 -27t38 -8h70v-10h-240zM381 596q50 0 78.5 26t28.5 73t-28.5 73.5t-78.5 26.5q-51 0 -80 -26.5t-29 -73.5t29 -73t80 -26zM198 249h255l-63 168q-8 21 -18.5 49.5t-21 59
t-18.5 55.5q-12 -31 -29.5 -74.5t-30.5 -74.5z" />
    <glyph glyph-name="aringacute" unicode="&#x1fb;" horiz-adv-x="599" 
d="M226 830v15q22 22 45 52.5t39 60.5h130v-10q-18 -16 -53 -37.5t-75 -43.5t-71 -37h-15zM302 584q-50 0 -85 28t-35 81t35 81t85 28t85 -28t35 -81t-35 -81t-85 -28zM302 594q45 0 76.5 25.5t31.5 73.5t-31.5 73.5t-76.5 25.5t-76.5 -25.5t-31.5 -73.5t31.5 -73.5
t76.5 -25.5zM205 -10q-75 0 -117.5 42.5t-42.5 113.5q0 77 55.5 111t168.5 38l82 3v127q0 65 -13.5 89.5t-47.5 24.5q-40 0 -54 -34t-14 -125q-67 0 -101 15t-34 53q0 36 28 58t74.5 32.5t103.5 10.5q105 0 157.5 -38t52.5 -132v-298q0 -41 13 -56t47 -15h4v-10h-214v101h-2
q-19 -65 -58.5 -88t-87.5 -23zM256 18q29 0 50.5 22t33 57t11.5 74v117l-45 -2q-60 -3 -83 -34.5t-23 -102.5q0 -73 14 -102t42 -29z" />
    <glyph glyph-name="AEacute" unicode="&#x1fc;" horiz-adv-x="997" 
d="M4 0v10h28q26 0 46.5 19t42.5 59l330 616h-131v10h605l6 -184h-10l-3 34q-7 76 -43.5 108t-116.5 32h-134v-326h237v-10h-237v-358h168q80 0 116.5 32t43.5 109l3 33h10l-7 -184h-586v10h42q21 0 36 10t15 50v184h-243l-82 -152q-8 -16 -12 -30t-4 -23q0 -39 60 -39h40
v-10h-220zM227 264h238v440h-2zM572 771v10q22 32 45 74t39 76h130v-10q-13 -13 -37.5 -32.5t-54 -41t-59 -41.5t-53.5 -35h-10z" />
    <glyph glyph-name="aeacute" unicode="&#x1fd;" horiz-adv-x="875" 
d="M219 -10q-87 0 -130.5 42.5t-43.5 113.5q0 77 55.5 111t168.5 38l82 3v127q0 65 -13.5 89.5t-47.5 24.5q-40 0 -54 -34t-14 -125q-67 0 -101 15t-34 53q0 36 28 58t74.5 32.5t103.5 10.5q103 0 156 -47q55 47 150 47q109 0 171.5 -61t62.5 -180v-24h-328
q0 -152 31 -217.5t102 -65.5q52 0 89.5 34.5t47.5 116.5q20 -4 28.5 -17t8.5 -30q0 -29 -22 -55t-65.5 -43t-109.5 -17q-93 0 -148 38t-78 108q-19 -81 -60.5 -113.5t-109.5 -32.5zM505 294h176q0 90 -7 144t-25 77.5t-50 23.5q-49 0 -71 -54.5t-23 -190.5zM267 10
q84 0 84 121v157l-45 -2q-60 -3 -83 -34.5t-23 -102.5q0 -77 15 -108t52 -31zM425 606v10q22 32 45 74t39 76h130v-10q-13 -13 -37.5 -32.5t-54 -41t-59 -41.5t-53.5 -35h-10z" />
    <glyph glyph-name="Oslashacute" unicode="&#x1fe;" horiz-adv-x="787" 
d="M352 771v10q22 32 45 74t39 76h130v-10q-13 -13 -37.5 -32.5t-54 -41t-59 -41.5t-53.5 -35h-10zM175 -40l38 71q-79 44 -118.5 129t-39.5 199q0 111 37.5 193t112.5 127.5t190 45.5q49 0 92 -10t79 -29l37 69h11l-40 -74q77 -43 117.5 -127t40.5 -196
q0 -111 -39.5 -193.5t-115 -128.5t-183.5 -46q-51 0 -94 9.5t-78 27.5l-36 -67h-11zM254 107l275 511q-40 97 -134 97q-90 0 -131 -84.5t-41 -272.5q0 -165 31 -251zM394 0q89 0 129.5 85t40.5 273q0 161 -30 248l-275 -511q39 -95 135 -95z" />
    <glyph glyph-name="oslashacute" unicode="&#x1ff;" horiz-adv-x="613" 
d="M273 606v10q22 32 45 74t39 76h130v-10q-13 -13 -37.5 -32.5t-54 -41t-59 -41.5t-53.5 -35h-10zM114 -40l42 67q-52 33 -80.5 93.5t-28.5 149.5q0 141 66 210t195 69q87 0 147 -36l39 63h12l-42 -68q49 -33 75.5 -92.5t26.5 -145.5q0 -141 -66.5 -210.5t-194.5 -69.5
q-82 0 -141 32l-38 -62h-12zM211 117l190 309q-10 61 -33 87t-62 26q-38 0 -61 -26t-33 -84.5t-10 -158.5q0 -94 9 -153zM307 0q39 0 61.5 26t32.5 85t10 159q0 43 -1.5 77.5t-5.5 62.5l-190 -308q10 -55 33 -78.5t60 -23.5z" />
    <glyph glyph-name="uni0218" unicode="&#x218;" horiz-adv-x="586" 
d="M255 -10q-83 0 -132 21.5t-71 54.5t-22 67q0 33 16 52.5t42 28.5t55 9q0 -92 17.5 -140t47.5 -65.5t69 -17.5q60 0 98.5 32t38.5 96q0 46 -21 77t-60.5 54t-95.5 46q-70 29 -111 60.5t-58.5 70t-17.5 87.5q0 91 68.5 146t189.5 55q95 0 147.5 -33.5t52.5 -81.5
q0 -36 -31 -60t-92 -24q0 97 -24.5 142t-83.5 45q-26 0 -52 -10t-43 -35t-17 -71q0 -38 17 -67.5t56 -55t106 -52.5q104 -42 148 -90.5t44 -121.5q0 -65 -33 -114t-95.5 -77t-152.5 -28zM189 -221v10q11 30 22 73.5t17 76.5h90v-10q-13 -21 -33.5 -48t-43 -54t-42.5 -48h-10
z" />
    <glyph glyph-name="uni0219" unicode="&#x219;" horiz-adv-x="488" 
d="M221 -10q-97 0 -144 33.5t-47 83.5q0 33 16 49t38 21.5t39 5.5q0 -103 26 -143t84 -40q48 0 77.5 24t29.5 75q0 33 -14 52.5t-43.5 34t-75.5 31.5q-45 17 -83 37t-61 51t-23 83q0 81 58.5 120.5t157.5 39.5q94 0 134 -29.5t40 -67.5q0 -29 -23.5 -47t-78.5 -18
q0 85 -22 118.5t-66 33.5q-21 0 -42 -8t-35 -28t-14 -55q0 -32 14.5 -51t46.5 -34.5t86 -34.5q46 -17 80 -37.5t53 -51t19 -77.5q0 -79 -57.5 -125t-169.5 -46zM156 -221v10q11 30 22 73.5t17 76.5h90v-10q-13 -21 -33.5 -48t-43 -54t-42.5 -48h-10z" />
    <glyph glyph-name="circumflex" unicode="&#x2c6;" horiz-adv-x="435" 
d="M40 606v10q18 19 41.5 45.5t46 54.5t39.5 50h101q17 -22 39.5 -50t45.5 -54.5t42 -45.5v-10h-10q-21 12 -51 28.5t-61 35t-56 36.5q-25 -18 -55.5 -36.5t-60 -35t-51.5 -28.5h-10z" />
    <glyph glyph-name="caron" unicode="&#x2c7;" horiz-adv-x="435" 
d="M167 606q-17 22 -39.5 50t-46 54.5t-41.5 45.5v10h10q22 -12 51.5 -28.5t60 -35t55.5 -36.5q25 18 56 36.5t61 35t51 28.5h10v-10q-19 -19 -42 -45.5t-45.5 -54.5t-39.5 -50h-101z" />
    <glyph glyph-name="macron" unicode="&#x2c9;" horiz-adv-x="370" 
d="M40 635v20h290v-20h-290z" />
    <glyph glyph-name="breve" unicode="&#x2d8;" horiz-adv-x="400" 
d="M200 606q-52 0 -87.5 23.5t-53.5 60t-19 73.5h10q8 -36 39.5 -54.5t110.5 -18.5t110.5 18.5t39.5 54.5h10q-1 -37 -19 -73.5t-53.5 -60t-87.5 -23.5z" />
    <glyph glyph-name="dotaccent" unicode="&#x2d9;" horiz-adv-x="221" 
d="M110 626q-29 0 -49.5 17.5t-20.5 54.5q0 38 20.5 55t49.5 17q28 0 49.5 -17t21.5 -55q0 -37 -21.5 -54.5t-49.5 -17.5z" />
    <glyph glyph-name="ring" unicode="&#x2da;" horiz-adv-x="333" 
d="M166 596q-50 0 -85 28t-35 81t35 81t85 28t85 -28t35 -81t-35 -81t-85 -28zM166 606q48 0 78 25t30 74t-30 74t-78 25t-78 -25t-30 -74t30 -74t78 -25z" />
    <glyph glyph-name="ogonek" unicode="&#x2db;" horiz-adv-x="314" 
d="M183 -240q-64 0 -103.5 28.5t-39.5 80.5q0 25 13 50t48 46t101 35h33q-48 -9 -75.5 -39t-27.5 -85q0 -48 21.5 -73t61.5 -25q26 0 59 9v-11q-16 -8 -41.5 -12t-49.5 -4z" />
    <glyph glyph-name="tilde" unicode="&#x2dc;" horiz-adv-x="476" 
d="M312 606q-27 0 -51 11t-47 25.5t-46.5 25.5t-50.5 11q-37 0 -50 -20.5t-17 -42.5h-10q2 40 18.5 74t44 54t61.5 20q27 0 51.5 -11t48 -25.5t47 -25.5t49.5 -11q34 0 48 20.5t18 42.5h10q-2 -42 -18.5 -75.5t-44 -53t-61.5 -19.5z" />
    <glyph glyph-name="hungarumlaut" unicode="&#x2dd;" horiz-adv-x="442" 
d="M40 606v10q18 32 38 74t34 76h100v-10q-11 -13 -31.5 -33t-44 -42t-46.5 -41.5t-40 -33.5h-10zM230 606v10q18 32 38 74t34 76h100v-10q-11 -13 -31.5 -33t-44 -42t-46.5 -41.5t-40 -33.5h-10z" />
    <glyph glyph-name="tonos" unicode="&#x384;" horiz-adv-x="577" 
d="M248 606v8q6 24 13.5 56.5t14 66t11.5 59.5h100v-12q-15 -25 -37 -56.5t-46.5 -63.5t-45.5 -58h-10z" />
    <glyph glyph-name="dieresistonos" unicode="&#x385;" horiz-adv-x="577" 
d="M257 688v15q10 30 20 71t16 74h90v-10q-13 -21 -31.5 -48t-39.5 -53.5t-40 -48.5h-15zM161 626q-20 0 -35.5 14t-15.5 48t15.5 48t35.5 14t36 -14t16 -48t-16 -48t-36 -14zM407 626q-21 0 -36.5 14t-15.5 48t15.5 48t36.5 14q19 0 35 -14t16 -48t-16 -48t-35 -14z" />
    <glyph glyph-name="Alphatonos" unicode="&#x386;" horiz-adv-x="753" 
d="M4 0v10h41q28 0 44.5 16t31.5 57l231 631h98l224 -632q15 -41 31.5 -56.5t44.5 -15.5h3v-10h-330v10h54q46 0 46 32q0 16 -11 51l-57 168h-258l-57 -155q-8 -20 -12 -35.5t-4 -26.5q0 -19 12 -26.5t37 -7.5h71v-10h-240zM201 271h251l-62 187q-8 24 -18.5 57.5t-20 68
t-15.5 59.5q-8 -24 -19.5 -56.5t-23.5 -65t-21 -56.5zM63 524v8q6 24 13.5 56.5t14 66t11.5 59.5h100v-12q-15 -25 -37 -56.5t-46.5 -63.5t-45.5 -58h-10z" />
    <glyph glyph-name="anoteleia" unicode="&#x387;" horiz-adv-x="294" 
d="M147 385q-30 0 -50.5 17.5t-20.5 62.5q0 46 20.5 63t50.5 17q29 0 50 -17t21 -63q0 -45 -21 -62.5t-50 -17.5z" />
    <glyph glyph-name="Epsilontonos" unicode="&#x388;" horiz-adv-x="775" 
d="M150 0v10h42q21 0 36 10t15 50v569q0 43 -14.5 54t-36.5 11h-42v10h553l6 -184h-10l-3 34q-7 76 -43.5 108t-116.5 32h-134v-326h237v-10h-237v-358h168q80 0 116.5 32t43.5 109l3 33h10l-7 -184h-586zM-20 524v8q6 24 13.5 56.5t14 66t11.5 59.5h100v-12
q-15 -25 -37 -56.5t-46.5 -63.5t-45.5 -58h-10z" />
    <glyph glyph-name="Etatonos" unicode="&#x389;" horiz-adv-x="941" 
d="M150 0v10h42q22 0 36.5 11t14.5 54v564q0 43 -14.5 54t-36.5 11h-42v10h345v-10h-42q-22 0 -36.5 -11t-14.5 -54v-261h259v261q0 43 -14.5 54t-36.5 11h-42v10h345v-10h-42q-22 0 -36.5 -11t-14.5 -54v-564q0 -43 14.5 -54t36.5 -11h42v-10h-345v10h42q22 0 36.5 11
t14.5 54v293h-259v-293q0 -43 14.5 -54t36.5 -11h42v-10h-345zM-20 524v8q6 24 13.5 56.5t14 66t11.5 59.5h100v-12q-15 -25 -37 -56.5t-46.5 -63.5t-45.5 -58h-10z" />
    <glyph glyph-name="Iotatonos" unicode="&#x38a;" horiz-adv-x="523" 
d="M150 0v10h42q22 0 36.5 11t14.5 54v564q0 43 -14.5 54t-36.5 11h-42v10h345v-10h-42q-22 0 -36.5 -11t-14.5 -54v-564q0 -43 14.5 -54t36.5 -11h42v-10h-345zM-20 524v8q6 24 13.5 56.5t14 66t11.5 59.5h100v-12q-15 -25 -37 -56.5t-46.5 -63.5t-45.5 -58h-10z" />
    <glyph glyph-name="Omicrontonos" unicode="&#x38c;" horiz-adv-x="794" 
d="M401 -10q-114 0 -189 46t-112.5 129t-37.5 194t37.5 193t112.5 127.5t190 45.5q108 0 183.5 -45.5t114.5 -128t39 -193.5t-39.5 -193.5t-115 -128.5t-183.5 -46zM401 0q89 0 129.5 85t40.5 273t-40 272.5t-129 84.5q-90 0 -131 -84.5t-41 -272.5t40.5 -273t130.5 -85z
M-31 524v8q6 24 13.5 56.5t14 66t11.5 59.5h100v-12q-15 -25 -37 -56.5t-46.5 -63.5t-45.5 -58h-10z" />
    <glyph glyph-name="Upsilontonos" unicode="&#x38e;" horiz-adv-x="840" 
d="M311 0v10h47q24 0 41 9t17 52v204l-198 376q-16 30 -28.5 41.5t-30.5 11.5h-12v10h335v-10h-30q-34 0 -50 -8t-16 -27q0 -23 21 -65l102 -200q17 -33 31 -59.5t29 -58.5q16 38 32.5 74.5t32.5 70.5l75 163q10 23 16 40t6 30q0 22 -17.5 31t-54.5 9h-71v10h252v-10h-29
q-22 0 -38.5 -17t-37.5 -62l-160 -347v-206q0 -44 16.5 -53t39.5 -9h49v-10h-369zM-20 524v8q6 24 13.5 56.5t14 66t11.5 59.5h100v-12q-15 -25 -37 -56.5t-46.5 -63.5t-45.5 -58h-10z" />
    <glyph glyph-name="Omegatonos" unicode="&#x38f;" horiz-adv-x="839" 
d="M-20 524v8q6 24 13.5 56.5t14 66t11.5 59.5h100v-12q-15 -25 -37 -56.5t-46.5 -63.5t-45.5 -58h-10zM82 0l-7 200h10l1 -13q3 -47 24.5 -64.5t75.5 -17.5h204l-3 87q-136 10 -214 75.5t-78 182.5q0 78 37.5 140t113 98.5t191.5 36.5q108 0 183.5 -35.5t115 -97.5
t39.5 -142q0 -115 -78 -181.5t-215 -77.5l-3 -84h199q54 0 76.5 17t28.5 63l2 15h10l-7 -202h-324l7 199q70 9 100.5 67t30.5 184q0 143 -38 204t-128 61q-91 0 -130 -61t-39 -204q0 -126 30 -183.5t100 -65.5l7 -201h-322z" />
    <glyph glyph-name="iotadieresistonos" unicode="&#x390;" horiz-adv-x="393" 
d="M259 -10q-78 0 -122 34.5t-44 120.5v391h151v-429q0 -51 17.5 -75t55.5 -24q28 0 67 12v-9q-13 -6 -47 -13.5t-78 -7.5zM164 688v15q10 30 20 71t16 74h90v-10q-13 -21 -31.5 -48t-39.5 -53.5t-40 -48.5h-15zM68 626q-20 0 -35.5 14t-15.5 48t15.5 48t35.5 14t36 -14
t16 -48t-16 -48t-36 -14zM314 626q-21 0 -36.5 14t-15.5 48t15.5 48t36.5 14q19 0 35 -14t16 -48t-16 -48t-35 -14z" />
    <glyph glyph-name="Alpha" unicode="&#x391;" horiz-adv-x="753" 
d="M4 0v10h41q28 0 44.5 16t31.5 57l231 631h98l224 -632q15 -41 31.5 -56.5t44.5 -15.5h3v-10h-330v10h54q46 0 46 32q0 16 -11 51l-57 168h-258l-57 -155q-8 -20 -12 -35.5t-4 -26.5q0 -19 12 -26.5t37 -7.5h71v-10h-240zM201 271h251l-62 187q-8 24 -18.5 57.5t-20 68
t-15.5 59.5q-8 -24 -19.5 -56.5t-23.5 -65t-21 -56.5z" />
    <glyph glyph-name="Beta" unicode="&#x392;" horiz-adv-x="672" 
d="M28 0v10h41q22 0 37 11t15 54v565q0 40 -15.5 52t-36.5 12h-41v10h292q142 0 214 -45t72 -131q0 -77 -55.5 -115t-160.5 -44v-2q118 -2 182 -48t64 -137q0 -192 -286 -192h-322zM279 379h38q65 0 93 37.5t28 125.5t-28 125t-95 37h-36v-325zM279 10h66q67 0 95 41t28 139
q0 97 -28 138t-93 41h-68v-359z" />
    <glyph glyph-name="Gamma" unicode="&#x393;" horiz-adv-x="591" 
d="M28 0v10h42q21 0 36 10t15 50v569q0 43 -14.5 54t-36.5 11h-42v10h546l7 -196h-10l-3 34q-5 58 -21.5 91t-50.5 47t-90 14h-126v-629q0 -43 14.5 -54t36.5 -11h62v-10h-365z" />
    <glyph glyph-name="uni0394" unicode="&#x394;" horiz-adv-x="700" 
d="M49 0v20l255 694h109l255 -687v-27h-619zM60 20h460l-185 513q-9 24 -15 42t-12 36.5t-15 43.5q-11 -30 -22 -61t-25 -67z" />
    <glyph glyph-name="Epsilon" unicode="&#x395;" horiz-adv-x="653" 
d="M28 0v10h42q21 0 36 10t15 50v569q0 43 -14.5 54t-36.5 11h-42v10h553l6 -184h-10l-3 34q-7 76 -43.5 108t-116.5 32h-134v-326h237v-10h-237v-358h168q80 0 116.5 32t43.5 109l3 33h10l-7 -184h-586z" />
    <glyph glyph-name="Zeta" unicode="&#x396;" horiz-adv-x="666" 
d="M42 0v10l387 694h-194q-83 0 -119.5 -32t-40.5 -108l-3 -56h-11l7 206h532v-10l-387 -694h235q81 0 117.5 32t42.5 108l4 56h10l-7 -206h-573z" />
    <glyph glyph-name="Eta" unicode="&#x397;" horiz-adv-x="819" 
d="M28 0v10h42q22 0 36.5 11t14.5 54v564q0 43 -14.5 54t-36.5 11h-42v10h345v-10h-42q-22 0 -36.5 -11t-14.5 -54v-261h259v261q0 43 -14.5 54t-36.5 11h-42v10h345v-10h-42q-22 0 -36.5 -11t-14.5 -54v-564q0 -43 14.5 -54t36.5 -11h42v-10h-345v10h42q22 0 36.5 11
t14.5 54v293h-259v-293q0 -43 14.5 -54t36.5 -11h42v-10h-345z" />
    <glyph glyph-name="Theta" unicode="&#x398;" horiz-adv-x="787" 
d="M394 -10q-114 0 -189 46t-112.5 129t-37.5 194t37.5 193t112.5 127.5t190 45.5q108 0 183.5 -45.5t114.5 -128t39 -193.5t-39.5 -193.5t-115 -128.5t-183.5 -46zM394 0q89 0 129.5 85t40.5 273t-40 272.5t-129 84.5q-90 0 -131 -84.5t-41 -272.5t40.5 -273t130.5 -85z
M270 269v191h10l2 -19q3 -26 15 -36t41 -10h111q29 0 41 10t15 36l2 19h10v-191h-10l-2 19q-3 26 -15 36t-41 10h-111q-29 0 -41 -10t-15 -36l-2 -19h-10z" />
    <glyph glyph-name="Iota" unicode="&#x399;" horiz-adv-x="401" 
d="M28 0v10h42q22 0 36.5 11t14.5 54v564q0 43 -14.5 54t-36.5 11h-42v10h345v-10h-42q-22 0 -36.5 -11t-14.5 -54v-564q0 -43 14.5 -54t36.5 -11h42v-10h-345z" />
    <glyph glyph-name="Kappa" unicode="&#x39a;" horiz-adv-x="734" 
d="M28 0v10h42q21 0 36 10t15 50v573q0 40 -15 50.5t-36 10.5h-42v10h345v-10h-42q-22 0 -37 -11t-15 -54v-312l229 247q30 33 45.5 56t15.5 39q0 20 -21.5 27.5t-78.5 7.5v10h247v-10q-27 0 -47.5 -5t-45 -23.5t-62.5 -59.5l-148 -160l203 -322q32 -50 52 -77t34.5 -37
t29.5 -10h2v-10h-54q-76 0 -117.5 9.5t-64 30t-41.5 52.5l-148 252l-30 -32v-237q0 -43 15 -54t37 -11h42v-10h-345z" />
    <glyph glyph-name="Lambda" unicode="&#x39b;" horiz-adv-x="698" 
d="M0 0v10h35q28 0 45.5 16t30.5 57l207 631h78l224 -632q15 -41 31 -56.5t44 -15.5h3v-10h-329v10h52q46 0 46 32q0 16 -11 51l-120 365q-9 28 -21.5 69t-22.5 78q-11 -35 -22.5 -70t-22.5 -70l-117 -359q-7 -20 -11.5 -35.5t-4.5 -26.5q0 -19 12 -26.5t37 -7.5h61v-10
h-224z" />
    <glyph glyph-name="Mu" unicode="&#x39c;" horiz-adv-x="952" 
d="M28 0v10h73q21 0 36 10t15 50v573q0 40 -15 50.5t-36 10.5h-73v10h273l207 -545l170 545h246v-10h-42q-22 0 -36.5 -11t-14.5 -54v-564q0 -43 14.5 -54t36.5 -11h42v-10h-320v10h10q32 0 47.5 9.5t15.5 46.5v611l-212 -677h-48l-255 672v-597q0 -43 19.5 -54t54.5 -11h40
v-10h-248z" />
    <glyph glyph-name="Nu" unicode="&#x39d;" horiz-adv-x="788" 
d="M28 0v10h62q21 0 36 11t15 54v568q0 40 -15.5 50.5t-35.5 10.5h-62v10h254l354 -539v468q0 40 -15.5 50.5t-35.5 10.5h-75v10h261v-10h-74q-21 0 -36 -11t-15 -54v-639h-60l-435 662v-587q0 -43 15 -54t36 -11h87v-10h-261z" />
    <glyph glyph-name="Xi" unicode="&#x39e;" horiz-adv-x="631" 
d="M62 499l7 215h493l7 -215h-10l-4 30q-5 43 -23 59t-61 16h-311q-43 0 -61 -16t-23 -59l-4 -30h-10zM168 269v194h10l2 -22q2 -26 14.5 -36t41.5 -10h161q29 0 41.5 10t14.5 36l2 22h10v-194h-10l-2 19q-3 26 -15 36t-41 10h-161q-29 0 -41 -10t-15 -36l-2 -19h-10zM40 0
l-8 227h10l4 -30q5 -43 23 -59t61 -16h371q43 0 61 16t23 59l4 30h10l-8 -227h-551z" />
    <glyph glyph-name="Omicron" unicode="&#x39f;" horiz-adv-x="787" 
d="M394 -10q-114 0 -189 46t-112.5 129t-37.5 194t37.5 193t112.5 127.5t190 45.5q108 0 183.5 -45.5t114.5 -128t39 -193.5t-39.5 -193.5t-115 -128.5t-183.5 -46zM394 0q89 0 129.5 85t40.5 273t-40 272.5t-129 84.5q-90 0 -131 -84.5t-41 -272.5t40.5 -273t130.5 -85z
" />
    <glyph glyph-name="Pi" unicode="&#x3a0;" horiz-adv-x="809" 
d="M28 0v10h42q21 0 36 11t15 54v568q0 40 -15.5 50.5t-35.5 10.5h-42v10h753v-10h-42q-21 0 -36 -11t-15 -54v-569q0 -40 15.5 -50t35.5 -10h42v-10h-345v10h43q21 0 36 11t15 54v629h-251v-629q0 -43 15 -54t36 -11h43v-10h-345z" />
    <glyph glyph-name="Rho" unicode="&#x3a1;" horiz-adv-x="638" 
d="M28 0v10h42q22 0 36.5 11t14.5 54v568q0 40 -15 50.5t-36 10.5h-42v10h307q139 0 206 -57t67 -155q0 -60 -29 -112t-93.5 -84.5t-172.5 -32.5h-34v-203q0 -40 16 -50t37 -10h61v-10h-365zM279 283h24q74 0 105.5 48.5t31.5 162.5q0 113 -28 161.5t-94 48.5h-39v-421z" />
    <glyph glyph-name="Sigma" unicode="&#x3a3;" horiz-adv-x="635" 
d="M23 0v41l229 268l-225 395v10h516l6 -175h-10l-3 43q-5 70 -30.5 96t-89.5 26h-244l168 -299v-10l-235 -273h369q57 0 80 20.5t27 74.5l2 30h10l-8 -247h-562z" />
    <glyph glyph-name="Tau" unicode="&#x3a4;" horiz-adv-x="653" 
d="M154 0v10h42q22 0 36.5 11t14.5 54v629h-64q-81 0 -118 -32t-42 -108l-3 -44h-10l7 194h619l7 -194h-10l-3 44q-5 76 -42 108t-118 32h-64v-629q0 -43 14.5 -54t36.5 -11h42v-10h-345z" />
    <glyph glyph-name="Upsilon" unicode="&#x3a5;" horiz-adv-x="693" 
d="M164 0v10h47q24 0 41 9t17 52v204l-198 376q-16 30 -28.5 41.5t-30.5 11.5h-12v10h335v-10h-30q-34 0 -50 -8t-16 -27q0 -23 21 -65l102 -200q17 -33 31 -59.5t29 -58.5q16 38 32.5 74.5t32.5 70.5l75 163q10 23 16 40t6 30q0 22 -17.5 31t-54.5 9h-71v10h252v-10h-29
q-22 0 -38.5 -17t-37.5 -62l-160 -347v-206q0 -44 16.5 -53t39.5 -9h49v-10h-369z" />
    <glyph glyph-name="Phi" unicode="&#x3a6;" horiz-adv-x="850" 
d="M257 0v10h13q34 0 58 10.5t24 50.5v63h-31q-81 0 -136.5 20t-89.5 54t-49.5 76t-15.5 87q0 97 65 158t202 61h55v53q0 40 -24 50.5t-58 10.5h-13v10h336v-10h-13q-34 0 -58 -10.5t-24 -50.5v-53h55q137 0 202 -61t65 -158q0 -45 -15.5 -87t-49.5 -76t-89.5 -54
t-136.5 -20h-31v-63q0 -40 24 -50.5t58 -10.5h13v-10h-336zM323 144h29v436h-42q-66 0 -97.5 -52t-31.5 -161q0 -114 34.5 -168.5t107.5 -54.5zM498 144h29q73 0 107.5 54.5t34.5 168.5q0 109 -31.5 161t-97.5 52h-42v-436z" />
    <glyph glyph-name="Chi" unicode="&#x3a7;" horiz-adv-x="732" 
d="M10 0v10h21q33 0 56.5 15.5t52.5 56.5l174 242l-198 327q-18 30 -36 41.5t-47 11.5h-2v10h331v-10h-21q-35 0 -47 -8.5t-12 -20.5q0 -11 8 -26.5t18 -32.5l113 -188l134 186q29 41 29 61q0 29 -68 29h-37v10h224v-10h-13q-33 0 -56.5 -15t-52.5 -56l-154 -214l184 -304
q27 -44 44 -66.5t32 -30.5t33 -8h2v-10h-330v10h23q60 0 60 33q0 11 -6.5 24t-26.5 45l-122 202l-154 -214q-29 -41 -29 -61q0 -29 68 -29h44v-10h-239z" />
    <glyph glyph-name="Psi" unicode="&#x3a8;" horiz-adv-x="976" 
d="M319 0v10h13q34 0 58 10.5t24 50.5v191h-38q-84 0 -137.5 18.5t-83 50.5t-40.5 72.5t-11 85.5v143q0 47 -24 59.5t-58 12.5v10h228v-260q0 -64 11.5 -104t42 -59t88.5 -19h22v370q0 40 -24 51t-58 11h-13v10h336v-10h-13q-34 0 -58 -11t-24 -51v-370h22q58 0 88.5 19
t42 59t11.5 104v260h228v-10q-34 0 -58 -12.5t-24 -59.5v-143q0 -45 -11 -85.5t-40.5 -72.5t-83 -50.5t-137.5 -18.5h-38v-191q0 -40 24 -50.5t58 -10.5h13v-10h-336z" />
    <glyph glyph-name="uni03A9" unicode="&#x3a9;" horiz-adv-x="808" 
d="M51 0l-7 200h10l1 -13q3 -47 24.5 -64.5t75.5 -17.5h204l-3 87q-136 10 -214 75.5t-78 182.5q0 78 37.5 140t113 98.5t191.5 36.5q108 0 183.5 -35.5t115 -97.5t39.5 -142q0 -115 -78 -181.5t-215 -77.5l-3 -84h199q54 0 76.5 17t28.5 63l2 15h10l-7 -202h-324l7 199
q70 9 100.5 67t30.5 184q0 143 -38 204t-128 61q-91 0 -130 -61t-39 -204q0 -126 30 -183.5t100 -65.5l7 -201h-322z" />
    <glyph glyph-name="Iotadieresis" unicode="&#x3aa;" horiz-adv-x="401" 
d="M28 0v10h42q22 0 36.5 11t14.5 54v564q0 43 -14.5 54t-36.5 11h-42v10h345v-10h-42q-22 0 -36.5 -11t-14.5 -54v-564q0 -43 14.5 -54t36.5 -11h42v-10h-345zM303 791q-19 0 -34 14t-15 48t15 48t34 14t33.5 -14t14.5 -48t-14.5 -48t-33.5 -14zM97 791q-19 0 -33.5 14
t-14.5 48t14.5 48t33.5 14t34 -14t15 -48t-15 -48t-34 -14z" />
    <glyph glyph-name="Upsilondieresis" unicode="&#x3ab;" horiz-adv-x="693" 
d="M164 0v10h47q24 0 41 9t17 52v204l-198 376q-16 30 -28.5 41.5t-30.5 11.5h-12v10h335v-10h-30q-34 0 -50 -8t-16 -27q0 -23 21 -65l102 -200q17 -33 31 -59.5t29 -58.5q16 38 32.5 74.5t32.5 70.5l75 163q10 23 16 40t6 30q0 22 -17.5 31t-54.5 9h-71v10h252v-10h-29
q-22 0 -38.5 -17t-37.5 -62l-160 -347v-206q0 -44 16.5 -53t39.5 -9h49v-10h-369zM461 791q-19 0 -34 14t-15 48t15 48t34 14t33.5 -14t14.5 -48t-14.5 -48t-33.5 -14zM255 791q-19 0 -33.5 14t-14.5 48t14.5 48t33.5 14t34 -14t15 -48t-15 -48t-34 -14z" />
    <glyph glyph-name="alphatonos" unicode="&#x3ac;" horiz-adv-x="649" 
d="M250 -10q-98 0 -150.5 66.5t-52.5 210.5q0 145 60.5 212t160.5 67q59 0 96 -30.5t51 -98.5h2q12 45 27.5 71t34.5 48h96q-6 -19 -12 -53t-10 -73.5t-4 -75.5v-237q0 -87 82 -87h8v-10h-84q-74 0 -108 29t-42 79h-2q-23 -70 -59 -94t-94 -24zM294 8q40 0 62 30.5
t31.5 76.5t9.5 93v197q-6 67 -35 97t-65 30q-49 0 -72.5 -60t-23.5 -205q0 -96 9.5 -152.5t29.5 -81.5t54 -25zM293 606v8q6 24 13.5 56.5t14 66t11.5 59.5h100v-12q-15 -25 -37 -56.5t-46.5 -63.5t-45.5 -58h-10z" />
    <glyph glyph-name="epsilontonos" unicode="&#x3ad;" horiz-adv-x="535" 
d="M252 606v8q6 24 13.5 56.5t14 66t11.5 59.5h100v-12q-15 -25 -37 -56.5t-46.5 -63.5t-45.5 -58h-10zM289 -10q-127 0 -189.5 45.5t-62.5 112.5q0 60 44.5 92t118.5 39v2q-55 7 -87.5 28t-46.5 48.5t-14 55.5q0 65 60.5 100t161.5 35q72 0 117.5 -16t66.5 -40t21 -49
q0 -60 -137 -60q0 87 -17.5 121t-52.5 34q-36 0 -51.5 -30.5t-15.5 -95.5q0 -56 12 -84t41 -36q22 6 51 12.5t55 6.5q20 0 32.5 -6t12.5 -22t-12.5 -24t-34.5 -8q-25 0 -58 8.5t-58 15.5q-29 -5 -42 -32t-13 -85q0 -85 28 -121t93 -36q64 0 101.5 33.5t56.5 109.5
q13 -3 21.5 -14t8.5 -30q0 -27 -21 -52.5t-67.5 -41.5t-122.5 -16z" />
    <glyph glyph-name="etatonos" unicode="&#x3ae;" horiz-adv-x="657" 
d="M439 -240q-9 12 -15 43t-9 68t-3 66v452q0 65 -17 97.5t-58 32.5q-53 0 -72.5 -53t-19.5 -137v-329h-152v342q0 46 -6 94.5t-20 99.5h132q14 -23 25 -54t16 -67h2q7 59 31 88t55.5 37.5t61.5 8.5q88 0 131 -46t43 -147v-425q0 -25 2.5 -60t7 -66.5t9.5 -44.5h-144z
M309 606v8q6 24 13.5 56.5t14 66t11.5 59.5h100v-12q-15 -25 -37 -56.5t-46.5 -63.5t-45.5 -58h-10z" />
    <glyph glyph-name="iotatonos" unicode="&#x3af;" horiz-adv-x="393" 
d="M259 -10q-78 0 -122 34.5t-44 120.5v391h151v-429q0 -51 17.5 -75t55.5 -24q28 0 67 12v-9q-13 -6 -47 -13.5t-78 -7.5zM156 606v8q6 24 13.5 56.5t14 66t11.5 59.5h100v-12q-15 -25 -37 -56.5t-46.5 -63.5t-45.5 -58h-10z" />
    <glyph glyph-name="upsilondieresistonos" unicode="&#x3b0;" horiz-adv-x="633" 
d="M330 -10q-112 0 -173 57t-61 163v255q0 38 -16 49.5t-47 11.5h-6v10h220v-387q0 -78 31.5 -111.5t85.5 -33.5q81 0 125.5 67t44.5 193q0 104 -34.5 150t-98.5 54q0 35 19 55.5t50 20.5q55 0 86 -63.5t31 -174.5q0 -152 -65 -234t-192 -82zM312 688v15q10 30 20 71t16 74
h90v-10q-13 -21 -31.5 -48t-39.5 -53.5t-40 -48.5h-15zM216 626q-20 0 -35.5 14t-15.5 48t15.5 48t35.5 14t36 -14t16 -48t-16 -48t-36 -14zM462 626q-21 0 -36.5 14t-15.5 48t15.5 48t36.5 14q19 0 35 -14t16 -48t-16 -48t-35 -14z" />
    <glyph glyph-name="alpha" unicode="&#x3b1;" horiz-adv-x="649" 
d="M250 -10q-98 0 -150.5 66.5t-52.5 210.5q0 145 60.5 212t160.5 67q59 0 96 -30.5t51 -98.5h2q12 45 27.5 71t34.5 48h96q-6 -19 -12 -53t-10 -73.5t-4 -75.5v-237q0 -87 82 -87h8v-10h-84q-74 0 -108 29t-42 79h-2q-23 -70 -59 -94t-94 -24zM294 8q40 0 62 30.5
t31.5 76.5t9.5 93v197q-6 67 -35 97t-65 30q-49 0 -72.5 -60t-23.5 -205q0 -96 9.5 -152.5t29.5 -81.5t54 -25z" />
    <glyph glyph-name="beta" unicode="&#x3b2;" horiz-adv-x="663" 
d="M93 -240v811q0 75 33 118.5t89.5 62t126.5 18.5q120 0 180 -44t60 -124q0 -138 -175 -180v-2q107 -17 158 -65.5t51 -140.5q0 -105 -61 -164.5t-168 -59.5q-50 0 -85.5 12.5t-57.5 32.5v-275h-151zM357 2q58 0 82.5 52t24.5 167q0 89 -20 130t-57 57q-14 -8 -34.5 -14.5
t-40.5 -6.5q-22 0 -34.5 8.5t-12.5 21.5q0 29 46 29q18 0 40.5 -5t37.5 -9q25 14 37.5 51t12.5 106q0 90 -23.5 130.5t-77.5 40.5q-48 0 -71 -32.5t-23 -103.5v-575q18 -18 48 -32.5t65 -14.5z" />
    <glyph glyph-name="gamma" unicode="&#x3b3;" horiz-adv-x="574" 
d="M221 -240q-35 0 -50.5 20t-15.5 51q0 43 18 92t40 85q-24 96 -49 184.5t-51 158t-51 109.5t-48 40q-10 0 -20.5 -4t-19.5 -9l-5 9q25 17 66 33.5t84 16.5q42 0 74 -44t56.5 -117.5t44.5 -165t40 -186.5q35 43 64 100t46 117.5t17 112.5q0 43 -11 67t-27.5 34t-34.5 12
q0 33 18 51.5t50 18.5q42 0 57.5 -29.5t15.5 -70.5q0 -52 -18 -113t-47 -121.5t-62.5 -110.5t-65.5 -79q2 -21 3.5 -36t1.5 -22q0 -94 -34.5 -149t-85.5 -55z" />
    <glyph glyph-name="delta" unicode="&#x3b4;" horiz-adv-x="613" 
d="M305 -10q-75 0 -133 26t-91.5 76t-33.5 122q0 69 26 113.5t71.5 72t103.5 44.5q-49 35 -83 78.5t-34 101.5q0 47 26.5 78.5t72.5 47t104 15.5q69 0 111 -15.5t61 -38.5t19 -45q0 -35 -27 -53.5t-72 -18.5q0 85 -24 123t-70 38q-41 0 -68 -25t-27 -73q0 -39 16.5 -64
t49 -47t79.5 -51q83 -51 133.5 -111.5t50.5 -146.5q0 -124 -71.5 -185.5t-189.5 -61.5zM309 0q59 0 86 46t27 140q0 56 -15.5 98.5t-51 78.5t-96.5 73q-31 -26 -44 -76t-13 -150q0 -110 26 -160t81 -50z" />
    <glyph glyph-name="epsilon" unicode="&#x3b5;" horiz-adv-x="535" 
d="M289 -10q-127 0 -189.5 45.5t-62.5 112.5q0 60 44.5 92t118.5 39v2q-55 7 -87.5 28t-46.5 48.5t-14 55.5q0 65 60.5 100t161.5 35q72 0 117.5 -16t66.5 -40t21 -49q0 -60 -137 -60q0 87 -17.5 121t-52.5 34q-36 0 -51.5 -30.5t-15.5 -95.5q0 -56 12 -84t41 -36
q22 6 51 12.5t55 6.5q20 0 32.5 -6t12.5 -22t-12.5 -24t-34.5 -8q-25 0 -58 8.5t-58 15.5q-29 -5 -42 -32t-13 -85q0 -85 28 -121t93 -36q64 0 101.5 33.5t56.5 109.5q13 -3 21.5 -14t8.5 -30q0 -27 -21 -52.5t-67.5 -41.5t-122.5 -16z" />
    <glyph glyph-name="zeta" unicode="&#x3b6;" horiz-adv-x="498" 
d="M263 -203v10q48 11 77.5 32.5t29.5 63.5q0 30 -15 46.5t-43 25.5t-67 18q-40 9 -75.5 20.5t-63 32.5t-43.5 58t-16 98q0 124 69 247t193 233q-51 13 -114 34.5t-112 55.5l6 8q44 -30 106.5 -53.5t121.5 -36.5q43 37 78 56.5t71 19.5q51 0 51 -44q0 -26 -24.5 -41.5
t-68.5 -15.5q-21 0 -45 3.5t-59 10.5q-28 -25 -52.5 -72t-43.5 -106t-30 -121.5t-11 -118.5q0 -58 13.5 -89t44 -47.5t81.5 -30.5q42 -12 76 -25t54.5 -36.5t20.5 -65.5q0 -37 -19.5 -72t-65.5 -62t-125 -36z" />
    <glyph glyph-name="eta" unicode="&#x3b7;" horiz-adv-x="657" 
d="M439 -240q-9 12 -15 43t-9 68t-3 66v452q0 65 -17 97.5t-58 32.5q-53 0 -72.5 -53t-19.5 -137v-329h-152v342q0 46 -6 94.5t-20 99.5h132q14 -23 25 -54t16 -67h2q7 59 31 88t55.5 37.5t61.5 8.5q88 0 131 -46t43 -147v-425q0 -25 2.5 -60t7 -66.5t9.5 -44.5h-144z" />
    <glyph glyph-name="theta" unicode="&#x3b8;" horiz-adv-x="613" 
d="M307 -10q-91 0 -148.5 47t-84.5 134t-27 208t27 207t84.5 132t149.5 46q130 0 194 -102t64 -284q0 -181 -64 -284.5t-195 -103.5zM202 391h209q0 107 -5 177.5t-17 111t-32 57.5t-49 17q-30 0 -50.5 -17t-32.5 -57.5t-17.5 -111t-5.5 -177.5zM307 0q30 0 50 17.5t32 60.5
t17 116.5t5 186.5h-209q0 -113 5 -186.5t17.5 -116.5t32.5 -60.5t50 -17.5z" />
    <glyph glyph-name="iota" unicode="&#x3b9;" horiz-adv-x="393" 
d="M259 -10q-78 0 -122 34.5t-44 120.5v391h151v-429q0 -51 17.5 -75t55.5 -24q28 0 67 12v-9q-13 -6 -47 -13.5t-78 -7.5z" />
    <glyph glyph-name="kappa" unicode="&#x3ba;" horiz-adv-x="641" 
d="M100 0v465q0 27 -12 40t-28.5 17t-30.5 4h-12v10h235v-208v-51t-1 -54l165 219q42 56 71 77t60 21q32 0 51.5 -18t19.5 -50q0 -12 -3 -24t-7 -23q-14 9 -35 16.5t-53 7.5q-40 0 -66.5 -16t-56.5 -52l-20 -24l187 -278q30 -45 43.5 -57t26.5 -12h2v-10h-14
q-55 0 -92.5 2.5t-63.5 11t-46 26.5t-39 49l-99 156l-30 -36v-209h-152z" />
    <glyph glyph-name="lambda" unicode="&#x3bb;" horiz-adv-x="570" 
d="M0 0l309 550q-29 91 -66.5 126.5t-93.5 35.5q-37 0 -58 -13t-37 -35q-20 13 -20 40t20.5 46.5t74.5 19.5q45 0 77 -17.5t56 -58t46 -108.5l123 -389q26 -84 55.5 -119.5t71.5 -35.5h9v-42h-3q-32 0 -54.5 17.5t-42.5 59.5t-44 115q-8 26 -24.5 75.5t-33.5 105.5h-2
q-9 -18 -17.5 -33t-17.5 -31l-170 -307z" />
    <glyph glyph-name="uni03BC" unicode="&#x3bc;" horiz-adv-x="665" 
d="M175 -240q-37 0 -65.5 29t-28.5 102q0 40 3 85.5t6 105.5t3 144v310h152v-395q0 -54 18.5 -87t58.5 -33q46 0 68 42.5t22 112.5v360h152v-441q0 -46 17 -65.5t51 -19.5h7v-10h-87q-57 0 -90.5 21.5t-46.5 72.5h-2q-15 -50 -46 -77t-93 -27q-70 0 -114 34t-58 105
q0 -99 15 -160t51 -90t99 -32q0 -37 -24.5 -62t-67.5 -25z" />
    <glyph glyph-name="nu" unicode="&#x3bd;" horiz-adv-x="579" 
d="M216 0q-24 97 -49.5 186t-51.5 159t-52 110.5t-51 40.5q-9 0 -19.5 -4t-19.5 -9l-5 9q28 18 66 33.5t73 15.5q36 0 63.5 -21.5t53 -76t53.5 -153t64 -252.5q36 45 62.5 101t41 115.5t14.5 113.5q0 62 -19 84t-52 24q0 37 19.5 53.5t47.5 16.5q40 0 58 -29t18 -78
q0 -64 -26.5 -140.5t-74 -154.5t-111.5 -144h-103z" />
    <glyph glyph-name="xi" unicode="&#x3be;" horiz-adv-x="505" 
d="M284 -205v10q50 12 75.5 39t25.5 63q0 30 -16 45.5t-43 23.5t-60 14q-43 9 -82.5 21t-70 33t-48.5 54t-18 84q0 81 51.5 139.5t163.5 108.5v2q-94 16 -136 44t-42 68q0 34 24 63.5t62 55t79 46.5q-45 5 -90 19.5t-76 39.5l6 8q28 -20 72.5 -36.5t101.5 -22.5
q42 21 84.5 33t72.5 12q42 0 42 -24q0 -36 -105 -36q-25 0 -49.5 2t-42.5 3q-13 -8 -32 -43.5t-19 -104.5q0 -60 17.5 -83.5t48.5 -35.5q38 18 77 30.5t67 12.5q24 0 33.5 -8.5t9.5 -19.5q0 -16 -19.5 -27.5t-62.5 -11.5q-31 0 -59 5t-44 8q-14 -7 -35 -31t-37 -65.5
t-16 -102.5q0 -44 12.5 -69t43 -40t85.5 -28q43 -11 76.5 -22.5t53 -34t19.5 -64.5q0 -69 -53.5 -114t-146.5 -63z" />
    <glyph glyph-name="omicron" unicode="&#x3bf;" horiz-adv-x="613" 
d="M305 -10q-120 0 -189 69.5t-69 210.5t66 210t195 69q120 0 189 -69t69 -210t-66.5 -210.5t-194.5 -69.5zM307 0q39 0 61.5 26t32.5 85t10 159t-10 158.5t-33 84.5t-62 26q-38 0 -61 -26t-33 -84.5t-10 -158.5t10 -159t33 -85t62 -26z" />
    <glyph glyph-name="pi" unicode="&#x3c0;" horiz-adv-x="668" 
d="M514 -8q-56 0 -83 24.5t-27 95.5q0 30 4 78.5t11 105t16 111.5h-193l-21 -237q-5 -63 -20.5 -100.5t-47 -53.5t-84.5 -16h-18v52q79 0 114 31.5t44 112.5l23 211h-88q-53 0 -74.5 -13.5t-26.5 -49.5h-11q0 89 43 140.5t118 51.5h447v-129h-132q-5 -74 -8.5 -148
t-3.5 -127q0 -59 12.5 -90.5t42.5 -31.5q21 0 51 15v-10q-15 -10 -38 -16.5t-50 -6.5z" />
    <glyph glyph-name="rho" unicode="&#x3c1;" horiz-adv-x="648" 
d="M83 -240v533q0 122 60 189t188 67q80 0 141 -34t95 -98.5t34 -158.5q0 -141 -57.5 -204.5t-159.5 -63.5q-44 0 -82 11t-69 35q1 -13 1 -35.5v-49.5v-191h-151zM341 6q41 0 64 24.5t32.5 83.5t9.5 162q0 98 -11 155.5t-36 82.5t-67 25q-55 0 -77 -42.5t-22 -149.5v-299
q22 -16 47.5 -29t59.5 -13z" />
    <glyph glyph-name="sigma1" unicode="&#x3c2;" horiz-adv-x="507" 
d="M284 -205v10q42 13 70 38t28 71q0 33 -15 50.5t-42 27t-64 18.5q-83 20 -130 50t-65.5 76t-18.5 118q0 108 33 173t90.5 93.5t131.5 28.5q52 0 94.5 -12.5t68 -36.5t25.5 -59q0 -19 -11 -38t-39 -31.5t-79 -12.5q0 103 -17 141.5t-56 38.5q-46 0 -67 -51.5t-21 -178.5
q0 -51 5 -81.5t20 -48.5t45 -30t79 -27q33 -10 64 -23t51.5 -38.5t20.5 -71.5q0 -66 -49 -119.5t-152 -74.5z" />
    <glyph glyph-name="sigma" unicode="&#x3c3;" horiz-adv-x="645" 
d="M306 -10q-78 0 -136.5 31t-90.5 89.5t-32 139.5q0 85 26 140.5t72 87.5t104.5 45t122.5 13h258v-113h-228q76 -21 123 -72t47 -130q0 -107 -66.5 -169t-199.5 -62zM319 0q60 0 83.5 48.5t23.5 163.5q0 74 -9.5 124.5t-35.5 86.5h-26q-43 0 -77.5 -18.5t-55.5 -64.5
t-21 -128q0 -115 28.5 -163.5t89.5 -48.5z" />
    <glyph glyph-name="tau" unicode="&#x3c4;" horiz-adv-x="527" 
d="M323 -10q-132 0 -132 134q0 52 20.5 123.5t57.5 159.5h-138q-58 0 -79.5 -18t-21.5 -67h-10q0 100 38 157t103 57h334v-129h-182q-13 -85 -19 -159.5t-6 -139.5q0 -48 18 -75t52 -27q28 0 63 19v-11q-38 -24 -98 -24z" />
    <glyph glyph-name="upsilon" unicode="&#x3c5;" horiz-adv-x="633" 
d="M330 -10q-112 0 -173 57t-61 163v255q0 38 -16 49.5t-47 11.5h-6v10h220v-387q0 -78 31.5 -111.5t85.5 -33.5q81 0 125.5 67t44.5 193q0 104 -34.5 150t-98.5 54q0 35 19 55.5t50 20.5q55 0 86 -63.5t31 -174.5q0 -152 -65 -234t-192 -82z" />
    <glyph glyph-name="phi" unicode="&#x3c6;" horiz-adv-x="755" 
d="M344 -240v224q-85 2 -152 33t-106 94t-39 163q0 114 54 185t152 91l4 -7q-25 -17 -36.5 -57.5t-15.5 -95.5t-4 -117q0 -101 13 -161t44.5 -87t85.5 -30v385q0 92 39 130t104 38q221 0 221 -275q0 -101 -40 -164t-109 -93t-155 -32v-224h-60zM404 -5q56 1 88.5 29t47 88.5
t14.5 160.5q0 143 -19 203.5t-63 60.5q-41 0 -54.5 -34t-13.5 -90v-418z" />
    <glyph glyph-name="chi" unicode="&#x3c7;" horiz-adv-x="603" 
d="M13 -240l262 472l-47 122q-27 70 -54 98.5t-71 28.5q-15 0 -28 -3t-33 -10l-6 4q13 38 34.5 52.5t49.5 14.5q38 0 58 -25t43 -92l60 -179l144 293h157l-236 -421l62 -169q26 -71 52 -99.5t70 -28.5q15 0 28 3t32 10l6 -4q-13 -37 -30.5 -52t-45.5 -15q-38 0 -60 25
t-45 93l-75 225l-162 -343h-165z" />
    <glyph glyph-name="psi" unicode="&#x3c8;" horiz-adv-x="718" 
d="M377 -240v230q-134 1 -207.5 65.5t-73.5 185.5v224q0 38 -16.5 49.5t-48.5 11.5h-4v10h220v-364q0 -74 30 -115.5t100 -50.5v754h60v-755q85 7 131 78t46 202q0 153 -99 183q0 32 14.5 54t43.5 22t51.5 -31.5t35 -84t12.5 -115.5q0 -75 -22 -143.5t-73.5 -116
t-139.5 -59.5v-234h-60z" />
    <glyph glyph-name="omega" unicode="&#x3c9;" horiz-adv-x="800" 
d="M262 -10q-104 0 -159.5 66.5t-55.5 189.5q0 111 47.5 186.5t145.5 121.5l6 -6q-26 -52 -38 -115.5t-12 -156.5q0 -103 7 -163t25 -85.5t52 -25.5q38 0 60.5 33t27.5 104q-15 47 -24 87t-9 71q0 38 18 60.5t48 22.5t47 -22.5t17 -60.5q0 -31 -9.5 -71t-23.5 -86
q3 -74 28.5 -106.5t59.5 -32.5q32 0 50.5 26t26 86t7.5 163q0 93 -12.5 156.5t-37.5 115.5l7 6q98 -46 145 -121.5t47 -186.5q0 -123 -56.5 -189.5t-161.5 -66.5q-59 0 -90.5 33.5t-45.5 82.5q-14 -49 -45 -82.5t-92 -33.5z" />
    <glyph glyph-name="iotadieresis" unicode="&#x3ca;" horiz-adv-x="393" 
d="M259 -10q-78 0 -122 34.5t-44 120.5v391h151v-429q0 -51 17.5 -75t55.5 -24q28 0 67 12v-9q-13 -6 -47 -13.5t-78 -7.5zM274 626q-19 0 -34 14t-15 48t15 48t34 14t33.5 -14t14.5 -48t-14.5 -48t-33.5 -14zM68 626q-19 0 -33.5 14t-14.5 48t14.5 48t33.5 14t34 -14
t15 -48t-15 -48t-34 -14z" />
    <glyph glyph-name="upsilondieresis" unicode="&#x3cb;" horiz-adv-x="633" 
d="M330 -10q-112 0 -173 57t-61 163v255q0 38 -16 49.5t-47 11.5h-6v10h220v-387q0 -78 31.5 -111.5t85.5 -33.5q81 0 125.5 67t44.5 193q0 104 -34.5 150t-98.5 54q0 35 19 55.5t50 20.5q55 0 86 -63.5t31 -174.5q0 -152 -65 -234t-192 -82zM438 626q-19 0 -34 14t-15 48
t15 48t34 14t33.5 -14t14.5 -48t-14.5 -48t-33.5 -14zM232 626q-19 0 -33.5 14t-14.5 48t14.5 48t33.5 14t34 -14t15 -48t-15 -48t-34 -14z" />
    <glyph glyph-name="omicrontonos" unicode="&#x3cc;" horiz-adv-x="613" 
d="M305 -10q-120 0 -189 69.5t-69 210.5t66 210t195 69q120 0 189 -69t69 -210t-66.5 -210.5t-194.5 -69.5zM307 0q39 0 61.5 26t32.5 85t10 159t-10 158.5t-33 84.5t-62 26q-38 0 -61 -26t-33 -84.5t-10 -158.5t10 -159t33 -85t62 -26zM274 606v8q6 24 13.5 56.5t14 66
t11.5 59.5h100v-12q-15 -25 -37 -56.5t-46.5 -63.5t-45.5 -58h-10z" />
    <glyph glyph-name="upsilontonos" unicode="&#x3cd;" horiz-adv-x="633" 
d="M314 606v8q6 24 13.5 56.5t14 66t11.5 59.5h100v-12q-15 -25 -37 -56.5t-46.5 -63.5t-45.5 -58h-10zM330 -10q-112 0 -173 57t-61 163v255q0 38 -16 49.5t-47 11.5h-6v10h220v-387q0 -78 31.5 -111.5t85.5 -33.5q81 0 125.5 67t44.5 193q0 104 -34.5 150t-98.5 54
q0 35 19 55.5t50 20.5q55 0 86 -63.5t31 -174.5q0 -152 -65 -234t-192 -82z" />
    <glyph glyph-name="omegatonos" unicode="&#x3ce;" horiz-adv-x="800" 
d="M262 -10q-104 0 -159.5 66.5t-55.5 189.5q0 111 47.5 186.5t145.5 121.5l6 -6q-26 -52 -38 -115.5t-12 -156.5q0 -103 7 -163t25 -85.5t52 -25.5q38 0 60.5 33t27.5 104q-15 47 -24 87t-9 71q0 38 18 60.5t48 22.5t47 -22.5t17 -60.5q0 -31 -9.5 -71t-23.5 -86
q3 -74 28.5 -106.5t59.5 -32.5q32 0 50.5 26t26 86t7.5 163q0 93 -12.5 156.5t-37.5 115.5l7 6q98 -46 145 -121.5t47 -186.5q0 -123 -56.5 -189.5t-161.5 -66.5q-59 0 -90.5 33.5t-45.5 82.5q-14 -49 -45 -82.5t-92 -33.5zM378 606v8q6 24 13.5 56.5t14 66t11.5 59.5h100
v-12q-15 -25 -37 -56.5t-46.5 -63.5t-45.5 -58h-10z" />
    <glyph glyph-name="afii10023" unicode="&#x401;" horiz-adv-x="653" 
d="M28 0v10h42q21 0 36 10t15 50v569q0 43 -14.5 54t-36.5 11h-42v10h553l6 -184h-10l-3 34q-7 76 -43.5 108t-116.5 32h-134v-326h237v-10h-237v-358h168q80 0 116.5 32t43.5 109l3 33h10l-7 -184h-586zM439 791q-19 0 -34 14t-15 48t15 48t34 14t33.5 -14t14.5 -48
t-14.5 -48t-33.5 -14zM233 791q-19 0 -33.5 14t-14.5 48t14.5 48t33.5 14t34 -14t15 -48t-15 -48t-34 -14z" />
    <glyph glyph-name="afii10051" unicode="&#x402;" horiz-adv-x="824" 
d="M134 0v10h42q22 0 36.5 11t14.5 54v629h-44q-81 0 -118 -32t-42 -108l-3 -44h-10l7 194h579l7 -194h-10l-3 44q-5 76 -42 108t-118 32h-44v-295q25 9 67 19t92 10q77 0 130.5 -19.5t81 -66.5t27.5 -130q0 -86 -26 -134.5t-75.5 -68t-119.5 -19.5h-27v10h11q29 0 46.5 18
t24.5 61.5t7 118.5q0 82 -10.5 128.5t-36.5 66t-71 19.5q-37 0 -70 -8.5t-51 -15.5v-323q0 -43 14.5 -54t36.5 -11h42v-10h-345z" />
    <glyph glyph-name="afii10052" unicode="&#x403;" horiz-adv-x="591" 
d="M28 0v10h42q21 0 36 10t15 50v569q0 43 -14.5 54t-36.5 11h-42v10h546l7 -196h-10l-3 34q-5 58 -21.5 91t-50.5 47t-90 14h-126v-629q0 -43 14.5 -54t36.5 -11h62v-10h-365zM263 771v10q22 32 45 74t39 76h130v-10q-13 -13 -37.5 -32.5t-54 -41t-59 -41.5t-53.5 -35h-10z
" />
    <glyph glyph-name="afii10053" unicode="&#x404;" horiz-adv-x="668" 
d="M401 -10q-116 0 -193 46t-115 128.5t-38 193.5q0 108 38 190.5t115.5 129t195.5 46.5q107 0 165.5 -34t58.5 -83q0 -37 -32 -61.5t-93 -24.5q0 101 -29 147t-93 46q-83 0 -120 -83.5t-38 -267.5h255v-10h-255q1 -185 47.5 -268.5t148.5 -83.5q148 0 181 164
q27 -11 27 -44q0 -27 -21 -57.5t-70.5 -52t-134.5 -21.5z" />
    <glyph glyph-name="afii10054" unicode="&#x405;" horiz-adv-x="586" 
d="M255 -10q-83 0 -132 21.5t-71 54.5t-22 67q0 33 16 52.5t42 28.5t55 9q0 -92 17.5 -140t47.5 -65.5t69 -17.5q60 0 98.5 32t38.5 96q0 46 -21 77t-60.5 54t-95.5 46q-70 29 -111 60.5t-58.5 70t-17.5 87.5q0 91 68.5 146t189.5 55q95 0 147.5 -33.5t52.5 -81.5
q0 -36 -31 -60t-92 -24q0 97 -24.5 142t-83.5 45q-26 0 -52 -10t-43 -35t-17 -71q0 -38 17 -67.5t56 -55t106 -52.5q104 -42 148 -90.5t44 -121.5q0 -65 -33 -114t-95.5 -77t-152.5 -28z" />
    <glyph glyph-name="afii10055" unicode="&#x406;" horiz-adv-x="401" 
d="M28 0v10h42q22 0 36.5 11t14.5 54v564q0 43 -14.5 54t-36.5 11h-42v10h345v-10h-42q-22 0 -36.5 -11t-14.5 -54v-564q0 -43 14.5 -54t36.5 -11h42v-10h-345z" />
    <glyph glyph-name="afii10056" unicode="&#x407;" horiz-adv-x="401" 
d="M28 0v10h42q22 0 36.5 11t14.5 54v564q0 43 -14.5 54t-36.5 11h-42v10h345v-10h-42q-22 0 -36.5 -11t-14.5 -54v-564q0 -43 14.5 -54t36.5 -11h42v-10h-345zM303 791q-19 0 -34 14t-15 48t15 48t34 14t33.5 -14t14.5 -48t-14.5 -48t-33.5 -14zM97 791q-19 0 -33.5 14
t-14.5 48t14.5 48t33.5 14t34 -14t15 -48t-15 -48t-34 -14z" />
    <glyph glyph-name="afii10057" unicode="&#x408;" horiz-adv-x="397" 
d="M-21 -240v10h18q32 0 61 17t47 56t18 106v694q0 40 -15 50.5t-36 10.5h-42v10h345v-10h-42q-22 0 -37 -11t-15 -54v-641q0 -68 -22 -114t-59.5 -73t-85.5 -39t-99 -12h-36z" />
    <glyph glyph-name="afii10058" unicode="&#x409;" horiz-adv-x="955" 
d="M90 -7q-42 0 -66 20t-24 55q0 26 13 43t36 24q7 -19 25 -33t47 -14q22 0 48 13t50.5 51t41.5 113q7 31 13.5 72t12 85t9.5 84.5t6.5 71t2.5 43.5q0 47 -17 65t-63 18h-73v10h568v-10h-61q-27 0 -40 -13.5t-13 -46.5v-242h53q95 0 154 -25.5t85.5 -70.5t26.5 -104
q0 -90 -66 -146t-205 -56h-299v10h42q30 0 40.5 15.5t10.5 50.5v628h-127q-3 -62 -9 -134t-14.5 -145t-20 -138.5t-24.5 -114.5q-19 -71 -45 -110t-56 -54t-62 -15zM606 10h39q60 0 85.5 44t25.5 147t-28 147t-94 44h-28v-382z" />
    <glyph glyph-name="afii10059" unicode="&#x40a;" horiz-adv-x="1016" 
d="M28 0v10h42q22 0 36.5 11t14.5 54v564q0 43 -14.5 54t-36.5 11h-42v10h335v-10h-32q-22 0 -36.5 -11t-14.5 -54v-261h229v261q0 43 -14.5 54t-36.5 11h-32v10h335v-10h-42q-22 0 -36.5 -11t-14.5 -54v-237h52q96 0 154.5 -25.5t85 -70.5t26.5 -104q0 -90 -66 -146
t-205 -56h-289v10h32q22 0 36.5 11t14.5 54v293h-229v-293q0 -43 14.5 -54t36.5 -11h32v-10h-335zM668 10h38q60 0 85.5 44t25.5 147t-28 147t-94 44h-27v-382z" />
    <glyph glyph-name="afii10060" unicode="&#x40b;" horiz-adv-x="885" 
d="M134 0v10h42q22 0 36.5 11t14.5 54v629h-44q-81 0 -118 -32t-42 -108l-3 -44h-10l7 194h579l7 -194h-10l-3 44q-5 76 -42 108t-118 32h-44v-295q25 9 67 19t92 10q77 0 130.5 -19.5t81 -66.5t27.5 -130v-147q0 -43 14.5 -54t36.5 -11h32v-10h-335v10h42q22 0 36.5 11
t14.5 54v133q0 82 -10.5 128.5t-36.5 66t-71 19.5q-37 0 -70 -8.5t-51 -15.5v-323q0 -43 14.5 -54t36.5 -11h42v-10h-345z" />
    <glyph glyph-name="afii10061" unicode="&#x40c;" horiz-adv-x="720" 
d="M350 771v10q22 32 45 74t39 76h130v-10q-13 -13 -37.5 -32.5t-54 -41t-59 -41.5t-53.5 -35h-10zM28 0v10h42q22 0 36.5 11t14.5 54v564q0 43 -14.5 54t-36.5 11h-42v10h335v-10h-43q-22 0 -36.5 -11t-14.5 -54v-276q35 1 59 11.5t44 30.5q24 23 45 60t48 92
q29 59 51.5 95t46 52t56.5 16q37 0 57 -18t20 -49q0 -25 -13 -44t-36 -26q-5 20 -20 36t-46 16q-17 0 -35 -7.5t-39.5 -31.5t-46.5 -72q-22 -42 -40 -73t-39.5 -52t-54.5 -35q60 0 102 -12.5t73 -42.5t60 -82l47 -84q27 -49 42.5 -78t29 -42t34.5 -13h6v-10h-71
q-77 0 -117 24.5t-65 70.5l-95 173q-22 41 -36 59t-28.5 22t-38.5 4v-278q0 -43 14.5 -54t36.5 -11h43v-10h-335z" />
    <glyph glyph-name="afii10062" unicode="&#x40e;" horiz-adv-x="694" 
d="M131 0v30h49q48 0 83 3.5t59 18t43 47.5l-295 552q-16 31 -28.5 42t-33.5 11h-8v10h343v-10h-46q-35 0 -51 -7.5t-16 -26.5q0 -9 3 -21.5t12 -29.5l125 -238q16 -31 31.5 -62t31.5 -65q9 24 17 43t16 39l115 274q16 36 16 59q0 19 -14 27t-43 8h-46v10h200v-10h-15
q-27 0 -43 -13t-30 -48l-214 -511q-21 -50 -47 -79t-64.5 -41t-97.5 -12h-52zM358 771q-108 0 -160.5 37t-59.5 119h125q2 -81 23 -113.5t72 -32.5t72 32.5t23 113.5h125q-7 -82 -59.5 -119t-160.5 -37z" />
    <glyph glyph-name="afii10145" unicode="&#x40f;" horiz-adv-x="809" 
d="M400 -230q0 88 -13 138t-43.5 71t-83.5 21h-232v10h42q21 0 36 11t15 54v569q0 40 -15.5 50t-35.5 10h-42v10h345v-10h-43q-21 0 -36 -11t-15 -54v-629h251v629q0 43 -15 54t-36 11h-43v10h345v-10h-42q-21 0 -36 -11t-15 -54v-568q0 -40 15.5 -50.5t35.5 -10.5h42v-10
h-241q-50 0 -78 -21t-40 -71t-12 -138h-10z" />
    <glyph glyph-name="afii10017" unicode="&#x410;" horiz-adv-x="753" 
d="M4 0v10h41q28 0 44.5 16t31.5 57l231 631h98l224 -632q15 -41 31.5 -56.5t44.5 -15.5h3v-10h-330v10h54q46 0 46 32q0 16 -11 51l-57 168h-258l-57 -155q-8 -20 -12 -35.5t-4 -26.5q0 -19 12 -26.5t37 -7.5h71v-10h-240zM201 271h251l-62 187q-8 24 -18.5 57.5t-20 68
t-15.5 59.5q-8 -24 -19.5 -56.5t-23.5 -65t-21 -56.5z" />
    <glyph glyph-name="afii10018" unicode="&#x411;" horiz-adv-x="651" 
d="M51 0v10h32q22 0 36.5 11t14.5 54v564q0 43 -14.5 54t-36.5 11h-32v10h525l7 -194h-10l-3 44q-5 76 -42 108t-118 32h-117v-302h62q95 0 154 -25.5t85.5 -70.5t26.5 -104q0 -90 -66 -146t-205 -56h-299zM293 10h48q60 0 85.5 44t25.5 147t-28 147t-94 44h-37v-382z" />
    <glyph glyph-name="afii10019" unicode="&#x412;" horiz-adv-x="672" 
d="M28 0v10h41q22 0 37 11t15 54v565q0 40 -15.5 52t-36.5 12h-41v10h292q142 0 214 -45t72 -131q0 -77 -55.5 -115t-160.5 -44v-2q118 -2 182 -48t64 -137q0 -192 -286 -192h-322zM279 379h38q65 0 93 37.5t28 125.5t-28 125t-95 37h-36v-325zM279 10h66q67 0 95 41t28 139
q0 97 -28 138t-93 41h-68v-359z" />
    <glyph glyph-name="afii10020" unicode="&#x413;" horiz-adv-x="591" 
d="M28 0v10h42q21 0 36 10t15 50v569q0 43 -14.5 54t-36.5 11h-42v10h546l7 -196h-10l-3 34q-5 58 -21.5 91t-50.5 47t-90 14h-126v-629q0 -43 14.5 -54t36.5 -11h62v-10h-365z" />
    <glyph glyph-name="afii10021" unicode="&#x414;" horiz-adv-x="708" 
d="M8 -210v220h97q99 180 153 339.5t54 289.5q0 36 -19 50.5t-68 14.5h-59v10h498v-10h-13q-28 0 -49 -11.5t-21 -55.5v-555q0 -47 24 -59.5t58 -12.5h20v-220h-10q0 111 -29.5 160.5t-98.5 49.5h-399q-69 0 -98.5 -49.5t-29.5 -160.5h-10zM117 10h306v694h-95
q0 -122 -26 -236.5t-73.5 -227t-111.5 -230.5z" />
    <glyph glyph-name="afii10022" unicode="&#x415;" horiz-adv-x="653" 
d="M28 0v10h42q21 0 36 10t15 50v569q0 43 -14.5 54t-36.5 11h-42v10h553l6 -184h-10l-3 34q-7 76 -43.5 108t-116.5 32h-134v-326h237v-10h-237v-358h168q80 0 116.5 32t43.5 109l3 33h10l-7 -184h-586z" />
    <glyph glyph-name="afii10024" unicode="&#x416;" horiz-adv-x="1040" 
d="M0 0v10h6q21 0 34.5 13t29 42t42.5 78l47 84q29 52 60 82t73 42.5t102 12.5q-33 14 -54.5 35t-39.5 52t-40 73q-25 48 -46.5 72t-39.5 31.5t-35 7.5q-31 0 -46 -16t-20 -36q-23 7 -36 26t-13 44q0 31 20 49t57 18q33 0 56.5 -16t46 -52t51.5 -95q27 -55 48 -92t45 -60
q20 -19 43 -30t60 -12v276q0 43 -14.5 54t-36.5 11h-42v10h325v-10h-43q-22 0 -36.5 -11t-14.5 -54v-276q41 0 66.5 10.5t46.5 31.5q24 23 45 60t48 92q29 59 51.5 95t46 52t56.5 16q37 0 57 -18t20 -49q0 -25 -13 -44t-36 -26q-5 20 -20 36t-46 16q-17 0 -35 -7.5
t-39.5 -31.5t-46.5 -72q-22 -42 -40 -73t-39.5 -52t-54.5 -35q60 0 102 -12.5t73 -42.5t60 -82l47 -84q27 -49 42.5 -78t29 -42t34.5 -13h6v-10h-71q-77 0 -117 24.5t-65 70.5l-95 173q-23 42 -37.5 59.5t-30.5 21.5t-45 4v-278q0 -43 14.5 -54t36.5 -11h43v-10h-325v10h42
q22 0 36.5 11t14.5 54v278q-25 -1 -39.5 -5.5t-28 -22.5t-35.5 -57l-95 -173q-25 -46 -65 -70.5t-117 -24.5h-71z" />
    <glyph glyph-name="afii10025" unicode="&#x417;" horiz-adv-x="617" 
d="M283 -11q-87 0 -141.5 21t-80 55.5t-25.5 72.5q0 40 27 63.5t79 23.5q2 -119 39 -172.5t108 -53.5q73 0 105.5 50.5t32.5 143.5q0 65 -16.5 102.5t-53 53t-97.5 15.5h-99v10h97q80 0 112.5 39.5t32.5 132.5q0 86 -25.5 127t-80.5 41q-59 0 -84.5 -49t-25.5 -157
q-37 0 -66.5 6.5t-47 23.5t-17.5 49q0 56 61 96.5t181 40.5q70 0 129 -17t94 -54t35 -98q0 -77 -57 -125.5t-176 -58.5q127 -1 192.5 -44.5t65.5 -132.5q0 -72 -41 -117t-108.5 -66.5t-148.5 -21.5z" />
    <glyph glyph-name="afii10026" unicode="&#x418;" horiz-adv-x="819" 
d="M28 0v10h42q22 0 36.5 11t14.5 54v564q0 43 -14.5 54t-36.5 11h-42v10h345v-10h-42q-22 0 -36.5 -11t-14.5 -54v-429l259 332v97q0 43 -14.5 54t-36.5 11h-42v10h345v-10h-42q-22 0 -36.5 -11t-14.5 -54v-564q0 -43 14.5 -54t36.5 -11h42v-10h-345v10h42q22 0 36.5 11
t14.5 54v450l-259 -332v-118q0 -43 14.5 -54t36.5 -11h42v-10h-345z" />
    <glyph glyph-name="afii10027" unicode="&#x419;" horiz-adv-x="819" 
d="M28 0v10h42q22 0 36.5 11t14.5 54v564q0 43 -14.5 54t-36.5 11h-42v10h345v-10h-42q-22 0 -36.5 -11t-14.5 -54v-429l259 332v97q0 43 -14.5 54t-36.5 11h-42v10h345v-10h-42q-22 0 -36.5 -11t-14.5 -54v-564q0 -43 14.5 -54t36.5 -11h42v-10h-345v10h42q22 0 36.5 11
t14.5 54v450l-259 -332v-118q0 -43 14.5 -54t36.5 -11h42v-10h-345zM407 771q-108 0 -160.5 37t-59.5 119h125q2 -81 23 -113.5t72 -32.5t72 32.5t23 113.5h125q-7 -82 -59.5 -119t-160.5 -37z" />
    <glyph glyph-name="afii10028" unicode="&#x41a;" horiz-adv-x="720" 
d="M28 0v10h42q22 0 36.5 11t14.5 54v564q0 43 -14.5 54t-36.5 11h-42v10h335v-10h-43q-22 0 -36.5 -11t-14.5 -54v-276q35 1 59 11.5t44 30.5q24 23 45 60t48 92q29 59 51.5 95t46 52t56.5 16q37 0 57 -18t20 -49q0 -25 -13 -44t-36 -26q-5 20 -20 36t-46 16
q-17 0 -35 -7.5t-39.5 -31.5t-46.5 -72q-22 -42 -40 -73t-39.5 -52t-54.5 -35q60 0 102 -12.5t73 -42.5t60 -82l47 -84q27 -49 42.5 -78t29 -42t34.5 -13h6v-10h-71q-77 0 -117 24.5t-65 70.5l-95 173q-22 41 -36 59t-28.5 22t-38.5 4v-278q0 -43 14.5 -54t36.5 -11h43v-10
h-335z" />
    <glyph glyph-name="afii10029" unicode="&#x41b;" horiz-adv-x="727" 
d="M90 -7q-42 0 -66 20t-24 55q0 26 13 43t36 24q7 -19 25 -33t47 -14q22 0 48 13t50.5 51t41.5 113q7 31 13.5 72t12 85t9.5 84.5t6.5 71t2.5 43.5q0 47 -17 65t-63 18h-73v10h547v-10h-42q-22 0 -36.5 -11t-14.5 -54v-564q0 -43 14.5 -54t36.5 -11h42v-10h-345v10h42
q22 0 36.5 11t14.5 54v629h-126q-3 -62 -9 -134t-14.5 -145t-20 -138.5t-24.5 -114.5q-19 -71 -45 -110t-56 -54t-62 -15z" />
    <glyph glyph-name="afii10030" unicode="&#x41c;" horiz-adv-x="952" 
d="M28 0v10h73q21 0 36 10t15 50v573q0 40 -15 50.5t-36 10.5h-73v10h273l207 -545l170 545h246v-10h-42q-22 0 -36.5 -11t-14.5 -54v-564q0 -43 14.5 -54t36.5 -11h42v-10h-320v10h10q32 0 47.5 9.5t15.5 46.5v611l-212 -677h-48l-255 672v-597q0 -43 19.5 -54t54.5 -11h40
v-10h-248z" />
    <glyph glyph-name="afii10031" unicode="&#x41d;" horiz-adv-x="819" 
d="M28 0v10h42q22 0 36.5 11t14.5 54v564q0 43 -14.5 54t-36.5 11h-42v10h345v-10h-42q-22 0 -36.5 -11t-14.5 -54v-261h259v261q0 43 -14.5 54t-36.5 11h-42v10h345v-10h-42q-22 0 -36.5 -11t-14.5 -54v-564q0 -43 14.5 -54t36.5 -11h42v-10h-345v10h42q22 0 36.5 11
t14.5 54v293h-259v-293q0 -43 14.5 -54t36.5 -11h42v-10h-345z" />
    <glyph glyph-name="afii10032" unicode="&#x41e;" horiz-adv-x="787" 
d="M394 -10q-114 0 -189 46t-112.5 129t-37.5 194t37.5 193t112.5 127.5t190 45.5q108 0 183.5 -45.5t114.5 -128t39 -193.5t-39.5 -193.5t-115 -128.5t-183.5 -46zM394 0q89 0 129.5 85t40.5 273t-40 272.5t-129 84.5q-90 0 -131 -84.5t-41 -272.5t40.5 -273t130.5 -85z
" />
    <glyph glyph-name="afii10033" unicode="&#x41f;" horiz-adv-x="809" 
d="M28 0v10h42q21 0 36 11t15 54v568q0 40 -15.5 50.5t-35.5 10.5h-42v10h753v-10h-42q-21 0 -36 -11t-15 -54v-569q0 -40 15.5 -50t35.5 -10h42v-10h-345v10h43q21 0 36 11t15 54v629h-251v-629q0 -43 15 -54t36 -11h43v-10h-345z" />
    <glyph glyph-name="afii10034" unicode="&#x420;" horiz-adv-x="638" 
d="M28 0v10h42q22 0 36.5 11t14.5 54v568q0 40 -15 50.5t-36 10.5h-42v10h307q139 0 206 -57t67 -155q0 -60 -29 -112t-93.5 -84.5t-172.5 -32.5h-34v-203q0 -40 16 -50t37 -10h61v-10h-365zM279 283h24q74 0 105.5 48.5t31.5 162.5q0 113 -28 161.5t-94 48.5h-39v-421z" />
    <glyph glyph-name="afii10035" unicode="&#x421;" horiz-adv-x="668" 
d="M401 -10q-116 0 -193 46t-115 128.5t-38 193.5q0 108 38 190.5t115.5 129t195.5 46.5q107 0 165.5 -34t58.5 -83q0 -37 -32 -61.5t-93 -24.5q0 101 -29 147t-93 46q-83 0 -120.5 -84.5t-37.5 -271.5q0 -188 46.5 -272.5t149.5 -84.5q148 0 181 164q27 -11 27 -44
q0 -27 -21 -57.5t-70.5 -52t-134.5 -21.5z" />
    <glyph glyph-name="afii10036" unicode="&#x422;" horiz-adv-x="653" 
d="M154 0v10h42q22 0 36.5 11t14.5 54v629h-64q-81 0 -118 -32t-42 -108l-3 -44h-10l7 194h619l7 -194h-10l-3 44q-5 76 -42 108t-118 32h-64v-629q0 -43 14.5 -54t36.5 -11h42v-10h-345z" />
    <glyph glyph-name="afii10037" unicode="&#x423;" horiz-adv-x="694" 
d="M131 0v30h49q48 0 83 3.5t59 18t43 47.5l-295 552q-16 31 -28.5 42t-33.5 11h-8v10h343v-10h-46q-35 0 -51 -7.5t-16 -26.5q0 -9 3 -21.5t12 -29.5l125 -238q16 -31 31.5 -62t31.5 -65q9 24 17 43t16 39l115 274q16 36 16 59q0 19 -14 27t-43 8h-46v10h200v-10h-15
q-27 0 -43 -13t-30 -48l-214 -511q-21 -50 -47 -79t-64.5 -41t-97.5 -12h-52z" />
    <glyph glyph-name="afii10038" unicode="&#x424;" horiz-adv-x="850" 
d="M257 0v10h13q34 0 58 10.5t24 50.5v63h-31q-81 0 -136.5 20t-89.5 54t-49.5 76t-15.5 87q0 97 65 158t202 61h55v53q0 40 -24 50.5t-58 10.5h-13v10h336v-10h-13q-34 0 -58 -10.5t-24 -50.5v-53h55q137 0 202 -61t65 -158q0 -45 -15.5 -87t-49.5 -76t-89.5 -54
t-136.5 -20h-31v-63q0 -40 24 -50.5t58 -10.5h13v-10h-336zM323 144h29v436h-42q-66 0 -97.5 -52t-31.5 -161q0 -114 34.5 -168.5t107.5 -54.5zM498 144h29q73 0 107.5 54.5t34.5 168.5q0 109 -31.5 161t-97.5 52h-42v-436z" />
    <glyph glyph-name="afii10039" unicode="&#x425;" horiz-adv-x="732" 
d="M10 0v10h21q33 0 56.5 15.5t52.5 56.5l174 242l-198 327q-18 30 -36 41.5t-47 11.5h-2v10h331v-10h-21q-35 0 -47 -8.5t-12 -20.5q0 -11 8 -26.5t18 -32.5l113 -188l134 186q29 41 29 61q0 29 -68 29h-37v10h224v-10h-13q-33 0 -56.5 -15t-52.5 -56l-154 -214l184 -304
q27 -44 44 -66.5t32 -30.5t33 -8h2v-10h-330v10h23q60 0 60 33q0 11 -6.5 24t-26.5 45l-122 202l-154 -214q-29 -41 -29 -61q0 -29 68 -29h44v-10h-239z" />
    <glyph glyph-name="afii10040" unicode="&#x426;" horiz-adv-x="815" 
d="M774 -210q0 80 -16 126t-55 65t-106 19h-569v10h42q21 0 36 11t15 54v569q0 40 -15.5 50t-35.5 10h-42v10h345v-10h-43q-21 0 -36 -11t-15 -54v-629h251v629q0 43 -15 54t-36 11h-43v10h345v-10h-42q-21 0 -36 -11t-15 -54v-587q0 -20 14.5 -31t36.5 -11h45v-220h-10z
" />
    <glyph glyph-name="afii10041" unicode="&#x427;" horiz-adv-x="780" 
d="M407 0v10h42q22 0 36.5 11t14.5 54v215q-26 -10 -69.5 -22.5t-108.5 -12.5q-68 0 -117 19.5t-76 66.5t-27 130v168q0 43 -14.5 54t-36.5 11h-32v10h335v-10h-42q-22 0 -36.5 -11t-14.5 -54v-224q0 -79 28 -111t90 -32q29 0 61 8t60 20v339q0 43 -14.5 54t-36.5 11h-42v10
h345v-10h-42q-22 0 -36.5 -11t-14.5 -54v-564q0 -43 14.5 -54t36.5 -11h42v-10h-345z" />
    <glyph glyph-name="afii10042" unicode="&#x428;" horiz-adv-x="1138" 
d="M28 0v10h42q20 0 35.5 10.5t15.5 50.5v568q0 43 -15 54t-36 11h-42v10h329v-10h-33q-21 0 -36 -11t-15 -54v-629h220v629q0 43 -15 54t-36 11h-33v10h319v-10h-32q-20 0 -35.5 -10t-15.5 -50v-634h220v629q0 43 -15 54t-36 11h-33v10h329v-10h-42q-21 0 -36 -11t-15 -54
v-568q0 -40 15.5 -50.5t35.5 -10.5h42v-10h-1082z" />
    <glyph glyph-name="afii10043" unicode="&#x429;" horiz-adv-x="1144" 
d="M1103 -210q0 80 -16 126t-54.5 65t-106.5 19h-898v10h42q20 0 35.5 10.5t15.5 50.5v568q0 43 -15 54t-36 11h-42v10h329v-10h-33q-21 0 -36 -11t-15 -54v-629h220v629q0 43 -15 54t-36 11h-33v10h319v-10h-32q-20 0 -35.5 -10t-15.5 -50v-634h220v629q0 43 -15 54t-36 11
h-33v10h329v-10h-42q-21 0 -36 -11t-15 -54v-587q0 -20 14.5 -31t36.5 -11h45v-220h-10z" />
    <glyph glyph-name="afii10044" unicode="&#x42a;" horiz-adv-x="744" 
d="M134 0v10h42q30 0 40.5 15.5t10.5 50.5v628h-43q-56 0 -89 -13t-49.5 -43.5t-21.5 -83.5l-4 -44h-10l7 194h482v-10h-61q-27 0 -40 -13.5t-13 -46.5v-242h63q96 0 154.5 -25.5t85 -70.5t26.5 -104q0 -90 -66 -146t-205 -56h-309zM385 10h49q40 0 64.5 17t35.5 58t11 112
q0 77 -12.5 119.5t-39.5 59t-70 16.5h-38v-382z" />
    <glyph glyph-name="afii10045" unicode="&#x42b;" horiz-adv-x="988" 
d="M28 0v10h42q22 0 36.5 11t14.5 54v564q0 43 -14.5 54t-36.5 11h-42v10h345v-10h-42q-22 0 -36.5 -11t-14.5 -54v-237h52q96 0 154.5 -25.5t85 -70.5t26.5 -104q0 -90 -66 -146t-205 -56h-299zM615 0v10h42q22 0 36.5 11t14.5 54v564q0 43 -14.5 54t-36.5 11h-42v10h345
v-10h-42q-22 0 -36.5 -11t-14.5 -54v-564q0 -43 14.5 -54t36.5 -11h42v-10h-345zM280 10h38q60 0 85.5 44t25.5 147t-28 147t-94 44h-27v-382z" />
    <glyph glyph-name="afii10046" unicode="&#x42c;" horiz-adv-x="638" 
d="M28 0v10h42q22 0 36.5 11t14.5 54v564q0 43 -14.5 54t-36.5 11h-42v10h345v-10h-42q-22 0 -36.5 -11t-14.5 -54v-237h62q96 0 154.5 -25.5t85 -70.5t26.5 -104q0 -90 -66 -146t-205 -56h-309zM280 10h48q60 0 85.5 44t25.5 147t-28 147t-94 44h-37v-382z" />
    <glyph glyph-name="afii10047" unicode="&#x42d;" horiz-adv-x="682" 
d="M293 -10q-94 0 -150 22t-81 57t-25 75q0 39 27.5 61.5t74.5 22.5q2 -123 41.5 -175.5t113.5 -52.5q59 0 95 35.5t52.5 113.5t17.5 204h-255v10h255q0 127 -15.5 204.5t-49 112t-88.5 34.5q-68 0 -97 -45.5t-29 -152.5q-56 0 -91 22t-35 63q0 32 25.5 60t78 45.5
t133.5 17.5q115 0 189.5 -46t110.5 -126t36 -182q0 -117 -39.5 -202t-114.5 -131.5t-180 -46.5z" />
    <glyph glyph-name="afii10048" unicode="&#x42e;" horiz-adv-x="1112" 
d="M739 -10q-155 0 -237 97t-82 281h-140v-293q0 -43 14.5 -54t36.5 -11h42v-10h-345v10h42q22 0 36.5 11t14.5 54v564q0 43 -14.5 54t-36.5 11h-42v10h345v-10h-42q-22 0 -36.5 -11t-14.5 -54v-261h140q3 105 39 183t106 121t175 43q102 0 172.5 -45.5t107.5 -128
t37 -193.5t-37 -193.5t-108 -128.5t-173 -46zM739 0q57 0 90 33t46.5 111t13.5 214t-13.5 213.5t-46.5 110.5t-89 33q-58 0 -91 -33t-47 -110.5t-14 -213.5t14 -214t47 -111t90 -33z" />
    <glyph glyph-name="afii10049" unicode="&#x42f;" horiz-adv-x="706" 
d="M-5 0v10h2q15 0 28.5 8.5t35 38.5t58.5 94l111 189q-40 14 -73.5 38t-54 61t-20.5 90q0 90 66 137.5t208 47.5h322v-10h-42q-20 0 -35.5 -10.5t-15.5 -50.5v-573q0 -40 15.5 -50t35.5 -10h42v-10h-345v10h43q20 0 35.5 10t15.5 50v264h-47l-129 -236q-23 -42 -52 -63
t-70 -28t-101 -7h-33zM371 344h56v360h-54q-65 0 -94 -43t-29 -137t28.5 -137t92.5 -43z" />
    <glyph glyph-name="afii10065" unicode="&#x430;" horiz-adv-x="599" 
d="M205 -10q-75 0 -117.5 42.5t-42.5 113.5q0 77 55.5 111t168.5 38l82 3v127q0 65 -13.5 89.5t-47.5 24.5q-40 0 -54 -34t-14 -125q-67 0 -101 15t-34 53q0 36 28 58t74.5 32.5t103.5 10.5q105 0 157.5 -38t52.5 -132v-298q0 -41 13 -56t47 -15h4v-10h-214v101h-2
q-19 -65 -58.5 -88t-87.5 -23zM256 18q29 0 50.5 22t33 57t11.5 74v117l-45 -2q-60 -3 -83 -34.5t-23 -102.5q0 -73 14 -102t42 -29z" />
    <glyph glyph-name="afii10066" unicode="&#x431;" horiz-adv-x="613" 
d="M307 -10q-137 0 -198 84t-61 271q0 71 10.5 138t39.5 121.5t81.5 88.5t136.5 40q107 7 164 13t62 25h10q-3 -55 -19 -86t-46.5 -46.5t-73.5 -22t-100 -11.5q-67 -6 -112.5 -13.5t-73 -22.5t-42 -43.5t-20 -76t-7.5 -121.5h2q13 72 53.5 113.5t95.5 59t111 17.5
q117 0 181.5 -67t64.5 -197q0 -128 -64 -196t-195 -68zM305 0q40 0 63 23.5t33 79t10 151.5t-10 151.5t-33 79t-63 23.5q-39 0 -61.5 -23t-32 -78.5t-9.5 -152.5t9.5 -152.5t32 -78.5t61.5 -23z" />
    <glyph glyph-name="afii10067" unicode="&#x432;" horiz-adv-x="621" 
d="M17 0v10h12q15 0 31.5 4.5t28 18t11.5 42.5v390q0 27 -12 40t-28.5 17t-30.5 4h-12v10h315q112 0 165.5 -33t53.5 -95q0 -59 -40.5 -90.5t-126.5 -37.5v-2q102 -5 148 -36t46 -93q0 -66 -52 -107.5t-164 -41.5h-345zM252 281h67q43 0 62.5 29.5t19.5 93.5t-19.5 93
t-62.5 29h-67v-245zM252 10h71q50 0 73 31t23 100q0 68 -24 99t-77 31h-66v-261z" />
    <glyph glyph-name="afii10068" unicode="&#x433;" horiz-adv-x="508" 
d="M17 0v10h12q15 0 31.5 4.5t28 18t11.5 42.5v386q0 29 -11.5 42.5t-28 18t-31.5 4.5h-12v10h471v-170h-10l-1 20q-3 55 -15.5 85.5t-42 42.5t-82.5 12h-85v-451q0 -29 11 -42.5t26 -18t29 -4.5h22v-10h-323z" />
    <glyph glyph-name="afii10069" unicode="&#x434;" horiz-adv-x="625" 
d="M13 -210v220h107q30 56 51 113t35 113q14 55 21.5 110t7.5 91q0 39 -8.5 58t-28.5 25t-55 6h-46v10h491v-10h-12q-14 0 -31 -4.5t-28.5 -18t-11.5 -42.5v-395q0 -35 21.5 -45.5t50.5 -10.5h23v-220h-10l-5 70q-5 80 -35.5 110t-104.5 30h-268q-54 0 -85.5 -13
t-46.5 -43.5t-18 -83.5l-4 -70h-10zM132 10h226v516h-107q0 -91 -14.5 -184t-41 -178.5t-63.5 -153.5z" />
    <glyph glyph-name="afii10070" unicode="&#x435;" horiz-adv-x="571" 
d="M311 -10q-130 0 -197 72t-67 203q0 141 64.5 212.5t183.5 71.5q109 0 171.5 -61t62.5 -180v-24h-328q0 -152 31 -217.5t102 -65.5q52 0 89.5 34.5t47.5 116.5q20 -4 28.5 -17t8.5 -30q0 -29 -22 -55t-65.5 -43t-109.5 -17zM201 294h176q0 90 -7 144t-25 77.5t-50 23.5
q-49 0 -71 -54.5t-23 -190.5z" />
    <glyph glyph-name="afii10072" unicode="&#x436;" horiz-adv-x="922" 
d="M0 0v10h3q23 0 35 9.5t25 33t39 67.5l55 94q26 45 61.5 63t97.5 18q-22 17 -39 38.5t-42 59.5q-27 42 -50.5 59t-50.5 17q-29 0 -42.5 -14.5t-17.5 -36.5q-24 2 -41.5 18.5t-17.5 44.5q0 23 17 42t59 19q25 0 45.5 -10.5t41.5 -35t48 -67.5q25 -39 40.5 -63t27.5 -36
q18 -18 32 -27.5t28 -13t36 -3.5v175q0 29 -11.5 42.5t-28 18t-31.5 4.5h-12v10h293v-10h-2q-14 0 -29 -4.5t-26 -18t-11 -42.5v-175q22 0 36 3.5t28 13t32 27.5q12 12 27.5 36t40.5 63q27 43 48 67.5t41.5 35t45.5 10.5q42 0 59 -19t17 -42q0 -28 -17.5 -44.5t-41.5 -18.5
q-4 22 -17.5 36.5t-42.5 14.5q-27 0 -50.5 -17t-50.5 -59q-25 -38 -42 -59.5t-39 -38.5q62 0 97.5 -18t61.5 -63l55 -94q26 -44 39 -67.5t25 -33t35 -9.5h3v-10h-42q-55 0 -95.5 6.5t-70.5 26.5t-52 62l-51 95q-19 36 -30.5 54t-21.5 24.5t-27 7.5v-201q0 -29 11 -42.5
t26 -18t29 -4.5h2v-10h-293v10h12q15 0 31.5 4.5t28 18t11.5 42.5v201q-17 -1 -27 -7.5t-21 -24.5t-30 -53l-52 -96q-22 -42 -52 -62t-70.5 -26.5t-95.5 -6.5h-42z" />
    <glyph glyph-name="afii10073" unicode="&#x437;" horiz-adv-x="529" 
d="M243 -9q-78 0 -122.5 16t-63 40.5t-18.5 50.5q0 38 35 48q9 -82 47.5 -113.5t93.5 -31.5q67 0 96 39.5t29 107.5q0 70 -28.5 98t-87.5 28h-67v10h68q52 0 75 30t23 98q0 66 -19 96t-55 30q-46 0 -61 -42.5t-15 -122.5q-61 0 -83.5 20.5t-22.5 48.5q0 26 17.5 50.5
t59.5 40t115 15.5q103 0 160 -39t57 -103q0 -32 -16.5 -59.5t-55 -45t-103.5 -19.5v-2q73 -3 115 -20.5t60 -45.5t18 -65q0 -73 -65 -115.5t-186 -42.5z" />
    <glyph glyph-name="afii10074" unicode="&#x438;" horiz-adv-x="691" 
d="M17 0v10h12q15 0 31.5 4.5t28 18t11.5 42.5v386q0 29 -11.5 42.5t-28 18t-31.5 4.5h-12v10h303v-10h-2q-14 0 -29 -4.5t-26 -18t-11 -42.5v-286l187 205v81q0 29 -11 42.5t-26.5 18t-28.5 4.5h-2v10h303v-10h-12q-14 0 -31 -4.5t-28.5 -18t-11.5 -42.5v-386
q0 -29 11.5 -42.5t28.5 -18t31 -4.5h12v-10h-303v10h2q13 0 28.5 4.5t26.5 18t11 42.5v291l-187 -205v-86q0 -29 11 -42.5t26 -18t29 -4.5h2v-10h-303z" />
    <glyph glyph-name="afii10075" unicode="&#x439;" horiz-adv-x="691" 
d="M17 0v10h12q15 0 31.5 4.5t28 18t11.5 42.5v386q0 29 -11.5 42.5t-28 18t-31.5 4.5h-12v10h303v-10h-2q-14 0 -29 -4.5t-26 -18t-11 -42.5v-286l187 205v81q0 29 -11 42.5t-26.5 18t-28.5 4.5h-2v10h303v-10h-12q-14 0 -31 -4.5t-28.5 -18t-11.5 -42.5v-386
q0 -29 11.5 -42.5t28.5 -18t31 -4.5h12v-10h-303v10h2q13 0 28.5 4.5t26.5 18t11 42.5v291l-187 -205v-86q0 -29 11 -42.5t26 -18t29 -4.5h2v-10h-303zM345 606q-108 0 -160.5 37t-59.5 119h125q2 -81 23 -113.5t72 -32.5t72 32.5t23 113.5h125q-7 -82 -59.5 -119
t-160.5 -37z" />
    <glyph glyph-name="afii10076" unicode="&#x43a;" horiz-adv-x="642" 
d="M17 0v10h12q15 0 31.5 4.5t28 18t11.5 42.5v386q0 29 -11.5 42.5t-28 18t-31.5 4.5h-12v10h303v-10h-2q-14 0 -29 -4.5t-26 -18t-11 -42.5v-175q22 0 36 3.5t28 13t32 27.5q12 12 27.5 36t40.5 63q27 43 48 67.5t41.5 35t45.5 10.5q42 0 59 -19t17 -42q0 -28 -17.5 -44.5
t-41.5 -18.5q-4 22 -17.5 36.5t-42.5 14.5q-27 0 -50.5 -17t-50.5 -59q-25 -38 -42 -59.5t-39 -38.5q62 0 97.5 -18t61.5 -63l55 -94q26 -44 39 -67.5t25 -33t35 -9.5h3v-10h-42q-55 0 -95.5 6.5t-70.5 26.5t-52 62l-51 95q-19 36 -30.5 54t-21.5 24.5t-27 7.5v-201
q0 -29 11 -42.5t26 -18t29 -4.5h2v-10h-303z" />
    <glyph glyph-name="afii10077" unicode="&#x43b;" horiz-adv-x="661" 
d="M90 -7q-42 0 -66 19.5t-24 54.5q0 29 17 45t38 16q9 -44 63 -44q48 0 76 32t47 102q6 21 12 51t12 62.5t9.5 61.5t3.5 48q0 38 -10.5 56t-28 23.5t-39.5 5.5h-61v10h505v-10h-12q-14 0 -31 -4.5t-28.5 -18t-11.5 -42.5v-386q0 -29 11.5 -42.5t28.5 -18t31 -4.5h12v-10
h-313v10h12q13 0 28.5 4.5t26.5 18t11 42.5v451h-113q-7 -128 -23.5 -216t-35.5 -155q-26 -92 -60.5 -127t-86.5 -35z" />
    <glyph glyph-name="afii10078" unicode="&#x43c;" horiz-adv-x="863" 
d="M17 0v10h65q21 0 32.5 7t11.5 36v429q0 28 -11.5 36t-32.5 8h-65v10h256l156 -410l178 410h239v-10h-51q-22 0 -33 -8t-11 -38v-424q0 -30 11 -38t33 -8h51v-10h-324v10h37q24 0 36 9t12 34v454h-2l-219 -507h-62l-186 493h-2v-437q0 -30 12.5 -38t42.5 -8h58v-10h-232z
" />
    <glyph glyph-name="afii10079" unicode="&#x43d;" horiz-adv-x="691" 
d="M17 0v10h12q15 0 31.5 4.5t28 18t11.5 42.5v386q0 29 -11.5 42.5t-28 18t-31.5 4.5h-12v10h303v-10h-2q-14 0 -29 -4.5t-26 -18t-11 -42.5v-180h187v180q0 29 -11 42.5t-26.5 18t-28.5 4.5h-2v10h303v-10h-12q-14 0 -31 -4.5t-28.5 -18t-11.5 -42.5v-386
q0 -29 11.5 -42.5t28.5 -18t31 -4.5h12v-10h-303v10h2q13 0 28.5 4.5t26.5 18t11 42.5v196h-187v-196q0 -29 11 -42.5t26 -18t29 -4.5h2v-10h-303z" />
    <glyph glyph-name="afii10080" unicode="&#x43e;" horiz-adv-x="613" 
d="M305 -10q-120 0 -189 69.5t-69 210.5t66 210t195 69q120 0 189 -69t69 -210t-66.5 -210.5t-194.5 -69.5zM307 0q39 0 61.5 26t32.5 85t10 159t-10 158.5t-33 84.5t-62 26q-38 0 -61 -26t-33 -84.5t-10 -158.5t10 -159t33 -85t62 -26z" />
    <glyph glyph-name="afii10081" unicode="&#x43f;" horiz-adv-x="671" 
d="M17 0v10h12q15 0 31.5 4.5t28 18t11.5 42.5v390q0 27 -12 40t-28.5 17t-30.5 4h-12v10h637v-10h-12q-14 0 -30.5 -4t-28.5 -17t-12 -40v-390q0 -29 11.5 -42.5t28.5 -18t31 -4.5h12v-10h-303v10h2q13 0 28.5 4.5t26.5 18t11 42.5v451h-167v-451q0 -29 11 -42.5t26 -18
t29 -4.5h2v-10h-303z" />
    <glyph glyph-name="afii10082" unicode="&#x440;" horiz-adv-x="645" 
d="M30 -240v10h12q14 0 31 4.5t28.5 18t11.5 42.5v630q0 27 -12 40t-28.5 17t-30.5 4h-3v10h225v-125h2q11 70 50 103.5t99 33.5q96 0 148 -66.5t52 -211.5q0 -146 -52.5 -213t-152.5 -67q-56 0 -95 35.5t-49 111.5h-2q1 -31 1 -67v-70v-165q0 -29 11.5 -42.5t28.5 -18
t31 -4.5h22v-10h-328zM368 15q93 0 93 269q0 239 -91 239q-105 0 -105 -239q0 -269 103 -269z" />
    <glyph glyph-name="afii10083" unicode="&#x441;" horiz-adv-x="527" 
d="M296 -10q-74 0 -130.5 26.5t-87.5 87t-31 162.5q0 108 32 169.5t88.5 87.5t129.5 26q91 0 142 -30t51 -78q0 -19 -10.5 -38t-38.5 -31.5t-80 -12.5q0 69 -6.5 108t-21.5 55.5t-42 16.5q-33 0 -53 -25t-28.5 -84.5t-8.5 -162.5q0 -144 28.5 -205t95.5 -61q52 0 88.5 33.5
t46.5 116.5q16 -5 25 -19t9 -32q0 -25 -21 -50.5t-64.5 -42.5t-112.5 -17z" />
    <glyph glyph-name="afii10084" unicode="&#x442;" horiz-adv-x="567" 
d="M125 0v10h11q29 0 50.5 13.5t21.5 53.5v449h-35q-49 0 -77.5 -12t-43 -40t-19.5 -78l-3 -31h-10l6 171h515l6 -171h-10l-3 31q-5 50 -19.5 78t-43 40t-76.5 12h-35v-449q0 -40 20 -53.5t47 -13.5h11v-10h-313z" />
    <glyph glyph-name="afii10085" unicode="&#x443;" horiz-adv-x="579" 
d="M31 -240v10q68 0 111.5 11.5t70.5 35t46 60t40 86.5l-243 515q-13 27 -23.5 37.5t-26.5 10.5h-6v10h287l1 -10h-20q-29 0 -43 -7t-14 -24t12 -45l98 -225q17 -39 25 -56.5t15 -35.5q7 21 14.5 39.5t12.5 33.5l85 230q12 32 12 51q0 22 -15.5 30.5t-50.5 8.5h-42v10h202
v-10h-2q-34 0 -53.5 -17t-35.5 -61l-166 -452q-26 -72 -50 -118t-54 -72t-74 -36t-110 -10h-3z" />
    <glyph glyph-name="afii10086" unicode="&#x444;" horiz-adv-x="821" 
d="M257 -240v10h12q15 0 31.5 4t28 18t11.5 42v161q-90 5 -155.5 39t-101.5 93.5t-36 141.5q0 122 76.5 193.5t216.5 78.5v148q0 27 -12 40t-28.5 17t-30.5 4h-12v10h227v-220q88 -6 153.5 -39.5t101 -92t35.5 -139.5q0 -123 -76 -195t-214 -79v-161q0 -28 11.5 -42t28 -18
t31.5 -4h12v-10h-310zM340 5v525q-53 -6 -84.5 -33.5t-45 -82.5t-13.5 -145q0 -91 13.5 -146.5t45 -83t84.5 -34.5zM484 6q52 7 82.5 34.5t44 83t13.5 145.5q0 89 -13.5 144t-44 82.5t-82.5 34.5v-524z" />
    <glyph glyph-name="afii10087" unicode="&#x445;" horiz-adv-x="646" 
d="M11 0v10h14q22 0 38.5 5.5t34.5 22.5t45 51l128 161l-165 223q-39 53 -83 53h-2v10h323v-10h-23q-35 0 -46.5 -8.5t-11.5 -20.5q0 -11 4.5 -21t15.5 -25l95 -130l99 119q11 14 18 28t7 28q0 18 -14 24t-37 6h-39v10h206v-10h-9q-29 0 -49 -12.5t-52 -51.5l-123 -150
l183 -249q21 -29 39.5 -41t35.5 -12h3v-10h-325v10h24q62 0 62 33q0 11 -5.5 24.5t-28.5 44.5l-95 129l-116 -145q-11 -14 -18 -28t-7 -28q0 -18 14 -24t37 -6h34v-10h-211z" />
    <glyph glyph-name="afii10088" unicode="&#x446;" horiz-adv-x="686" 
d="M656 -210v11q0 76 -17 119t-55.5 61.5t-104.5 18.5h-462v10h12q14 0 30.5 4t28.5 17t12 40v390q0 29 -11.5 42.5t-28 18t-31.5 4.5h-12v10h298v-10h-2q-13 0 -28.5 -4.5t-26.5 -18t-11 -42.5v-451h177v451q0 29 -11 42.5t-26 18t-29 4.5h-2v10h298v-10h-12
q-14 0 -31 -4.5t-28.5 -18t-11.5 -42.5v-409q0 -20 14.5 -31t36.5 -11h44v-220h-10z" />
    <glyph glyph-name="afii10089" unicode="&#x447;" horiz-adv-x="681" 
d="M334 0v10h17q33 0 55.5 11.5t22.5 55.5v170q-49 -30 -93 -48.5t-102 -18.5q-69 0 -106.5 37t-37.5 95v146q0 37 -19.5 52.5t-51.5 15.5h-3v10h294v-10h-2q-15 0 -30.5 -5t-25.5 -19.5t-10 -42.5v-176q0 -68 64 -68q31 0 57.5 10t65.5 34v199q0 40 -19.5 54t-46.5 14h-2
v10h303v-10h-11q-29 0 -50.5 -13t-21.5 -54v-382q0 -41 21.5 -54t50.5 -13h11v-10h-330z" />
    <glyph glyph-name="afii10090" unicode="&#x448;" horiz-adv-x="995" 
d="M17 0v10h12q14 0 30.5 4t28.5 17t12 40v390q0 29 -11.5 42.5t-28 18t-31.5 4.5h-12v10h298v-10h-2q-13 0 -28.5 -4.5t-26.5 -18t-11 -42.5v-451h177v455q0 27 -11 40t-26.5 17t-28.5 4h-2v10h283v-10h-2q-13 0 -28.5 -4.5t-26.5 -18t-11 -42.5v-451h177v451
q0 29 -11 42.5t-26 18t-29 4.5h-2v10h298v-10h-12q-14 0 -31 -4.5t-28.5 -18t-11.5 -42.5v-390q0 -27 12 -40t28.5 -17t30.5 -4h12v-10h-961z" />
    <glyph glyph-name="afii10091" unicode="&#x449;" horiz-adv-x="1010" 
d="M980 -210l-1 20q-3 73 -20 114t-54 58.5t-102 17.5h-786v10h12q14 0 30.5 4t28.5 17t12 40v390q0 29 -11.5 42.5t-28 18t-31.5 4.5h-12v10h298v-10h-2q-13 0 -28.5 -4.5t-26.5 -18t-11 -42.5v-451h177v455q0 27 -11 40t-26.5 17t-28.5 4h-2v10h283v-10h-2
q-13 0 -28.5 -4.5t-26.5 -18t-11 -42.5v-451h177v451q0 29 -11 42.5t-26 18t-29 4.5h-2v10h298v-10h-12q-14 0 -31 -4.5t-28.5 -18t-11.5 -42.5v-409q0 -20 14.5 -31t36.5 -11h44v-220h-10z" />
    <glyph glyph-name="afii10092" unicode="&#x44a;" horiz-adv-x="711" 
d="M125 0v10h11q72 0 72 64v452h-35q-49 0 -77.5 -12t-43 -40t-19.5 -78l-3 -31h-10l6 171h429v-10h-13q-33 0 -57.5 -13t-24.5 -48v-160h96q62 0 114 -11t84 -42.5t32 -94.5q0 -67 -55.5 -112t-169.5 -45h-336zM360 10h65q55 0 78.5 34.5t23.5 115.5q0 73 -24.5 104
t-81.5 31h-61v-285z" />
    <glyph glyph-name="afii10093" unicode="&#x44b;" horiz-adv-x="905" 
d="M17 0v10h11q72 0 72 64v387q0 35 -18.5 50t-53.5 15h-11v10h330v-10h-13q-33 0 -57.5 -13t-24.5 -48v-160h76q62 0 114 -11t84 -42.5t32 -94.5q0 -67 -55.5 -112t-169.5 -45h-316zM570 0v10h12q14 0 31 4.5t28.5 18t11.5 42.5v386q0 29 -11.5 42.5t-28.5 18t-31 4.5h-12
v10h313v-10h-7q-14 0 -31 -4.5t-28.5 -18t-11.5 -42.5v-386q0 -29 11.5 -42.5t28.5 -18t31 -4.5h7v-10h-313zM252 10h45q55 0 78.5 34.5t23.5 115.5q0 73 -24.5 104t-81.5 31h-41v-285z" />
    <glyph glyph-name="afii10094" unicode="&#x44c;" horiz-adv-x="603" 
d="M17 0v10h11q72 0 72 64v387q0 35 -18.5 50t-53.5 15h-11v10h330v-10h-13q-33 0 -57.5 -13t-24.5 -48v-160h96q62 0 114 -11t84 -42.5t32 -94.5q0 -67 -55.5 -112t-169.5 -45h-336zM252 10h65q55 0 78.5 34.5t23.5 115.5q0 73 -24.5 104t-81.5 31h-61v-285z" />
    <glyph glyph-name="afii10095" unicode="&#x44d;" horiz-adv-x="519" 
d="M229 -9q-76 0 -118.5 15.5t-59.5 41.5t-17 57q0 37 25 57t74 20q0 -100 22 -140.5t71 -40.5q36 0 55.5 26t28 86t8.5 161h-194v10h194q0 94 -8.5 149.5t-27.5 80t-51 24.5q-46 0 -64 -37.5t-18 -130.5q-51 0 -74.5 19t-23.5 51q0 26 18.5 51t60.5 41t110 16
q110 0 171 -62t61 -205q0 -109 -31 -172t-85.5 -90.5t-126.5 -27.5z" />
    <glyph glyph-name="afii10096" unicode="&#x44e;" horiz-adv-x="923" 
d="M625 -10q-120 0 -184 72t-64 209h-125v-196q0 -29 11.5 -42.5t27 -18t27.5 -4.5h7v-10h-308v10h12q15 0 31.5 4.5t28 18t11.5 42.5v386q0 29 -11.5 42.5t-28 18t-31.5 4.5h-12v10h308v-10h-7q-12 0 -27.5 -4.5t-27 -18t-11.5 -42.5v-180h125q2 136 65.5 202t185.5 66
q116 0 182 -69t66 -210t-64 -210.5t-187 -69.5zM627 0q35 0 56 25t29.5 84t8.5 161t-8.5 161t-29.5 83.5t-57 24.5t-56.5 -24.5t-29 -83.5t-8.5 -161t9 -161t29.5 -84t56.5 -25z" />
    <glyph glyph-name="afii10097" unicode="&#x44f;" horiz-adv-x="613" 
d="M0 0v10h2q14 0 32 24t52 79l94 154q-30 5 -58 21t-45.5 42.5t-17.5 63.5q0 67 50.5 104.5t168.5 37.5h318v-10h-3q-43 0 -61.5 -15t-18.5 -46v-388q0 -27 14.5 -47t55.5 -20h13v-10h-321v10h4q33 0 57.5 11.5t24.5 55.5v184h-40l-91 -169q-30 -56 -84 -74t-146 -18z
M305 271h56v255h-56q-89 0 -89 -136q0 -119 89 -119z" />
    </font>
</defs>
</svg>
