<svg xmlns="http://www.w3.org/2000/svg" viewBox="0 0 101.8 92.08"><defs><style>.cls-1{fill:#1a171b;}</style></defs><title>eric-logo-ed</title><g id="Ebene_2" data-name="Ebene 2"><path class="cls-1" d="M38.64,73.43C41,76.07,46.74,77,54,74.53c8.65-3,13.71-8.2,19.58-14.74A68,68,0,0,0,85.21,42.43C91.66,29.25,88.57,26.2,74.67,26.2a104.51,104.51,0,0,0-40.53,7.75c-2,.8-2.49,1.24-1.67,1.81a2.21,2.21,0,0,0,2.46.23,127.14,127.14,0,0,1,28.9-5.11c12.08-.9,16.35.77,12.5,9.75A63.74,63.74,0,0,1,66,57.63c-4.91,6-13.09,12.49-17.8,13.11-2.73.36-3.12-4.34-1.93-7.82.53-1.54.08-2-2.69-1.94a53.25,53.25,0,0,0-5.55.37c-1.72.19-1.79.9-1.92,3.23C35.88,67.87,36.48,71,38.64,73.43Z"/><path class="cls-1" d="M28.46,46.88C22,45.74,21.41,39,23.52,34.22A27.13,27.13,0,0,1,42.11,19a28.92,28.92,0,0,1,7.77-.48c1,.14,1.43-.61,1.26-1.48s-.83-1.07-1.56-1.24a26.31,26.31,0,0,0-8.72.22,33.52,33.52,0,0,0-14.47,7c-3.91,3.19-8.19,8.38-10,13.89-2.33,7,1.22,13.84,9.62,14.7,7.36.75,20.71-2.65,24.35-4.7.51-.29.65-.59.49-1a3.18,3.18,0,0,0-.7-1.16.89.89,0,0,0-1-.25C48,44.77,36.22,48.25,28.46,46.88Z"/></g></svg>